<?xml version="1.0" encoding="UTF-8"?>
<svg width="1141px" height="884px" viewBox="0 0 1141 884" version="1.1" xmlns="http://www.w3.org/2000/svg" xmlns:xlink="http://www.w3.org/1999/xlink">
    <!-- Generator: Sketch 55 (78076) - https://sketchapp.com -->
    <title>bigherobg</title>
    <desc>Created with Sketch.</desc>
    <defs>
        <linearGradient x1="0.0325313529%" y1="49.9984997%" x2="100.047626%" y2="49.9984997%" id="linearGradient-1">
            <stop stop-color="#ECC4D7" offset="0%"></stop>
            <stop stop-color="#EFD4D1" offset="42%"></stop>
            <stop stop-color="#F2EAC9" offset="100%"></stop>
        </linearGradient>
        <linearGradient x1="52.0223406%" y1="1429.62314%" x2="35.3347745%" y2="1216.87117%" id="linearGradient-2">
            <stop stop-color="#ECC4D7" offset="0%"></stop>
            <stop stop-color="#EFD4D1" offset="42%"></stop>
            <stop stop-color="#F2EAC9" offset="100%"></stop>
        </linearGradient>
        <linearGradient x1="0.741307827%" y1="691.413513%" x2="100.747354%" y2="691.413513%" id="linearGradient-3">
            <stop stop-color="#ECD0C4" offset="0%"></stop>
            <stop stop-color="#EFD4D1" offset="42%"></stop>
            <stop stop-color="#F2EAC9" offset="100%"></stop>
        </linearGradient>
        <linearGradient x1="0.554273215%" y1="619.33008%" x2="100.558598%" y2="619.33008%" id="linearGradient-4">
            <stop stop-color="#ECC4D7" offset="0%"></stop>
            <stop stop-color="#EFD4D1" offset="42%"></stop>
            <stop stop-color="#F2EAC9" offset="100%"></stop>
        </linearGradient>
        <linearGradient x1="67.4014476%" y1="2061.18519%" x2="21.082188%" y2="2265.94863%" id="linearGradient-5">
            <stop stop-color="#ECC4D7" offset="0%"></stop>
            <stop stop-color="#EFD4D1" offset="42%"></stop>
            <stop stop-color="#F2EAC9" offset="100%"></stop>
        </linearGradient>
        <linearGradient x1="58.3808098%" y1="71.8927235%" x2="40.7259813%" y2="34.862978%" id="linearGradient-6">
            <stop stop-color="#ECC4D7" offset="0%"></stop>
            <stop stop-color="#EFD4D1" offset="42%"></stop>
            <stop stop-color="#F2EAC9" offset="100%"></stop>
        </linearGradient>
        <linearGradient x1="-25.5916996%" y1="118.866671%" x2="213.646667%" y2="-77.3039178%" id="linearGradient-7">
            <stop stop-color="#ECC4D7" offset="0%"></stop>
            <stop stop-color="#EFD4D1" offset="42%"></stop>
            <stop stop-color="#F2EAC9" offset="100%"></stop>
        </linearGradient>
        <linearGradient x1="37.532694%" y1="-485.473275%" x2="65.2604621%" y2="-509.920307%" id="linearGradient-8">
            <stop stop-color="#25233A" offset="0%"></stop>
            <stop stop-color="#67DDF9" offset="1%"></stop>
            <stop stop-color="#5CB3CE" offset="12%"></stop>
            <stop stop-color="#538EA9" offset="24%"></stop>
            <stop stop-color="#4C718B" offset="37%"></stop>
            <stop stop-color="#465A73" offset="50%"></stop>
            <stop stop-color="#424A63" offset="63%"></stop>
            <stop stop-color="#404059" offset="79%"></stop>
            <stop stop-color="#3F3D56" offset="100%"></stop>
        </linearGradient>
        <linearGradient x1="34.5448962%" y1="-6.97821682%" x2="89.3223338%" y2="193.427052%" id="linearGradient-9">
            <stop stop-color="#000000" stop-opacity="0" offset="0%"></stop>
            <stop stop-color="#000000" stop-opacity="0.8" offset="91%"></stop>
            <stop stop-color="#000000" offset="100%"></stop>
        </linearGradient>
        <linearGradient x1="50.7443309%" y1="22.3919347%" x2="50.7443309%" y2="131.378907%" id="linearGradient-10">
            <stop stop-color="#D988AE" offset="0%"></stop>
            <stop stop-color="#EFD4D1" offset="42%"></stop>
            <stop stop-color="#F2EAC9" offset="100%"></stop>
        </linearGradient>
        <linearGradient x1="50.7443309%" y1="22.3919347%" x2="50.7443309%" y2="131.378907%" id="linearGradient-11">
            <stop stop-color="#D988AE" offset="0%"></stop>
            <stop stop-color="#EFD4D1" offset="42%"></stop>
            <stop stop-color="#F2EAC9" offset="100%"></stop>
        </linearGradient>
        <polygon id="path-12" points="0.949648148 0.192586873 37.4625815 0.192586873 37.4625815 49.9897143 0.949648148 49.9897143"></polygon>
        <linearGradient x1="50.7443309%" y1="0%" x2="50.7443309%" y2="131.378907%" id="linearGradient-14">
            <stop stop-color="#D988AE" offset="0%"></stop>
            <stop stop-color="#EFD4D1" offset="42%"></stop>
            <stop stop-color="#F2EAC9" offset="100%"></stop>
        </linearGradient>
        <linearGradient x1="50.7443309%" y1="0%" x2="50.7443309%" y2="131.378907%" id="linearGradient-15">
            <stop stop-color="#D988AE" offset="0%"></stop>
            <stop stop-color="#EFD4D1" offset="42%"></stop>
            <stop stop-color="#F2EAC9" offset="100%"></stop>
        </linearGradient>
    </defs>
    <g stroke="none" stroke-width="1" fill="none" fill-rule="evenodd">
        <g transform="translate(-839.000000, 0.000000)">
            <g transform="translate(356.000000, 0.000000)">
                <g transform="translate(483.000000, 0.000000)">
                    <path d="M1141,0 L1141,883.976563 C1004.7188,733.372313 901.385465,636.046792 831,592 C634.295061,468.903256 428.947809,434.338952 322,352 C157.649683,225.466946 50.3163495,108.133613 0,0 L1141,0 Z" fill="#82D4F0"></path>
                    <path d="M1141,0 L1141,859.976562 C1010.05213,714.705646 909.385465,620.046792 839,576 C642.295061,452.903256 436.947809,418.338952 330,336 C165.649683,209.466946 63.6496829,97.4669465 24,0 L1141,0 Z" fill="#23C0F5"></path>
                    <path d="M413.3,286 C388.96,291.16 363.66,296.76 344.12,312.17 C327.62,325.17 301.91,349.17 294.12,368.67 C261.12,451.04 298.43,551.27 370.85,602.53 C404.91,626.64 447.36,638.31 477.97,666.69 C497.33,684.64 510.89,708.4 531.49,724.9 C561.59,748.99 602.23,754.32 640.69,756.9 C667.41,758.71 695.17,759.49 719.96,749.33 C737.88,741.99 753.06,729.4 767.96,716.99 L866.67,634.56 C882.53,621.33 897.36,600.26 918.01,600.4 C1103.87,601.73 1116.4,383 831.15,286.12 C806.01,277.58 788.77,253.84 765.15,241.67 C716.36,216.52 660.21,224.67 611,242.07 C548.52,264.22 478.14,272.21 413.3,286 Z" fill="#82D4F0" fill-rule="nonzero" opacity="0.689928385"></path>
                </g>
                <g transform="translate(856.000000, 134.000000)">
                    <g transform="translate(228.000000, 0.000000)" fill-rule="nonzero">
                        <path d="M326.07,504.86 C333.85,504.99 343.87,506.93 345.07,514.61 C345.72,518.61 343.43,522.5 340.95,525.73 C325.44,546 299.74,556.25 274.38,559 C249.02,561.75 223.46,557.9 198.14,554.78 C161.546667,550.26 124.813333,547.26 87.94,545.78 C61.72,544.72 34.14,544.06 11.56,530.7 C7.37,528.23 3.25,525.14 1.24,520.7 C-2.76,511.87 3.56,501.12 12.24,496.83 C20.92,492.54 31.12,492.96 40.8,493.48 C135.86,498.6 230.85,504.86 326.07,504.86 Z" fill="#000405" opacity="0.118266369"></path>
                        <path d="M326.4,153.4 C326.4,153.4 292.57,197.15 286.15,204.48 C274.44,217.8 266.89,235.27 266.89,235.27 L249.89,307.61 L230.89,302.54 L189.58,291.54 C189.58,291.54 204.26,252 197.15,240 C187.67,224 195.87,214 198.03,207.13 C202.03,194.4 181.6,171.13 181.6,171.13 L168.51,112.5 L188.27,109.86 L202.61,157.39 L227.18,179.32 L244.68,180.25 C244.68,180.25 257.88,182.97 267.48,178.53 C276.66,174.27 309.09,137.7 309.09,137.7 L322.32,149.7 L326.4,153.4 Z" fill="#82D4F0"></path>
                        <path d="M268.56,119.7 C270.975131,117.760911 274.02938,116.797538 277.12,117 C279.382276,116.908068 281.596087,117.67219 283.32,119.14 C284.648145,120.630386 285.492087,122.489152 285.74,124.47 C286.227823,126.924803 286.412537,129.430197 286.29,131.93 C286.07,136.52 284.88,141.38 286.86,145.53 C287.330229,146.517484 287.966085,147.417152 288.74,148.19 C289.635367,149.191413 290.881132,149.810716 292.22,149.92 C293.595441,149.981287 294.809951,149.030062 295.08,147.68 C293.923172,150.256835 291.787468,152.266667 289.145194,153.265026 C286.502921,154.263385 283.571785,154.168013 281,153 C280.170671,152.620799 279.391424,152.140487 278.68,151.57 L280.42,155.1 C278.978675,154.730357 277.583304,154.200384 276.26,153.52 C272.01,151.21 269.63,146.52 268.5,141.78 C267.5,137.43 267.3,132.94 266.36,128.57 C265.67,125.24 265.85,122.12 268.56,119.7 Z" fill="#323047"></path>
                        <path d="M254.28,124.5 C255.143632,124.469562 256.005283,124.601862 256.82,124.89 C258.197413,125.462499 259.141844,126.753865 259.27,128.24 C259.348544,129.737808 258.531754,131.139704 257.19,131.81 C256.33432,132.159178 255.413338,132.319497 254.49,132.28 C253.65,132.28 252.8,132.28 251.96,132.2 C251.417823,132.248957 250.922653,131.890386 250.8,131.36 C250.251584,130.271136 249.838512,129.119237 249.57,127.93 C248.88,124.25 251.36,124.47 254.28,124.5 Z" fill="#68C8FD"></path>
                        <path d="M251,159.61 C251,159.61 250.84,162.5 250.64,166.26 C250.47,169.43 250.26,173.26 250.09,176.44 C249.800373,181.819671 247.489503,186.891442 243.62,190.64 C241.36,192.95 235.97,197.26 231.86,195.73 C229.86,194.99 229.79,192.47 230.21,190.96 C231.137135,188.20749 231.652697,185.333149 231.74,182.43 C231.805734,180.080019 231.594276,177.73048 231.11,175.43 C228.54,169 251,159.61 251,159.61 Z" fill="url(#linearGradient-1)"></path>
                        <path d="M251,159.61 C251,159.61 250.84,162.5 250.64,166.26 C249.06,169.78 247.58,172.65 246.77,174.08 C245.14,176.97 238.44,181.52 231.77,182.43 C231.835734,180.080019 231.624276,177.73048 231.14,175.43 C228.54,169 251,159.61 251,159.61 Z" fill="url(#linearGradient-2)"></path>
                        <path d="M231.44,121.32 C219.59366,122.038315 210.572393,132.223617 211.29,144.07 C211.29,144.58 211.37,145.07 211.44,145.59 C212.108325,154.326996 214.351076,162.871131 218.06,170.81 C225.06,182.81 242.8,172.94 245.61,168 C248.42,163.06 259.2,140.78 254.67,134.47 C251.55,130.21 242.9,120.86 231.44,121.32 Z" fill="url(#linearGradient-3)"></path>
                        <path d="M225.14,109.13 C232.666529,106.932819 240.694536,107.16729 248.08,109.8 C255.35,112.56 261.62,118.24 264.39,125.51 C266.769126,132.247817 266.540822,139.632027 263.75,146.21 C260.935203,152.733565 256.451393,158.400412 250.75,162.64 C249.28,158.14 253.81,154.14 255.57,149.75 C255.980063,148.939243 256.069334,148.003676 255.82,147.13 C255.18,145.5 252.74,145.32 251.35,146.38 C249.96,147.44 249.35,149.23 248.84,150.9 C250.19,143.75 251.19,135.35 246.13,130.11 C243.13,127.01 238.6,125.85 234.28,125.81 C226.260913,125.786312 218.589977,129.084199 213.09,134.92 C211.5,136.63 209.24,138.73 207.22,137.55 C206.59169,137.120203 206.09907,136.52004 205.8,135.82 C199.83,124 215.51,111.77 225.14,109.13 Z" fill="#323047"></path>
                        <path d="M322.8,122.34 C317.8,120.14 312.55,118.34 307.12,118.34 C301.69,118.34 296.06,120.18 292.47,124.26 C290.595265,126.533429 289.231119,129.183281 288.47,132.03 C287.869146,133.811414 287.631132,135.695119 287.77,137.57 C287.987437,138.92966 288.322016,140.267976 288.77,141.57 C289.71,144.81 290.11,148.57 288.06,151.29 C287.289257,152.387667 286.059012,153.072773 284.72,153.15 C283.350218,153.174198 282.17622,152.175871 281.98,150.82 C281.1,153.31 282.54,156.23 284.83,157.54 C287.216744,158.752131 290.007664,158.886765 292.5,157.91 C293.536263,157.584885 294.498033,157.058121 295.33,156.36 C296.153231,155.568109 296.830277,154.63717 297.33,153.61 C299.42,149.82 300.47,145.61 302.03,141.52 C303.59,137.43 305.85,133.52 309.54,131.22 C312.463305,129.622818 315.749112,128.806533 319.08,128.85 C322.39,128.74 325.72,129.01 329.02,128.71 C332.32,128.41 329.93,126.45 328.51,125.42 C326.716792,124.201115 324.803479,123.169065 322.8,122.34 L322.8,122.34 Z" fill="#323047"></path>
                        <path d="M369.11,86.49 C369.96,87.15 362,93.35 362,93.35 C362,93.35 358.28,99.76 354.5,101.54 C350.72,103.32 322.32,149.69 322.32,149.69 L311.11,139.53 L335.29,107 C335.29,107 343.29,91.67 342.4,85 C342.4,85 342.88,77.12 345.29,80.78 C346.99,83.39 345.9,87.5 347.91,87.94 C348.132601,87.9594191 348.355838,87.9105861 348.55,87.8 C350.217834,86.7887333 351.747288,85.5651697 353.1,84.16 C357.1,80.35 361.88,75.05 361.88,75.05 C361.88,75.05 364.5,73.94 364.17,75.05 C363.84,76.16 359.03,83.65 358.76,84.05 C359.21,83.64 366.59,77.05 367.76,77.56 C368.93,78.07 362.04,85.66 361.64,86.1 C362.07,85.8 369.94,80.32 370.53,80.81 C371.64,81.74 364.53,87.91 363.94,88.38 C364.39,88.14 368.3,85.85 369.11,86.49 Z" fill="url(#linearGradient-4)"></path>
                        <path d="M400.67,91.24 C400.073624,91.4343595 399.439898,91.4857427 398.82,91.39 C396.803761,91.2367268 394.780198,91.2033347 392.76,91.29 C391.4,91.35 388.59,92.29 388.52,90.18 C388.52,89.62 388.66,89.07 388.63,88.51 C388.616357,88.2676745 388.582912,88.0268713 388.53,87.79 C390.197834,86.7787333 391.727288,85.5551697 393.08,84.15 C393.692653,84.3546653 394.272108,84.647762 394.8,85.02 L398.74,87.57 C399.44,88.03 400.14,88.49 400.81,88.99 C401.106275,89.1756071 401.342455,89.4430468 401.49,89.76 C401.619036,90.3880449 401.270904,91.0163814 400.67,91.24 L400.67,91.24 Z" fill="url(#linearGradient-5)"></path>
                        <path d="M267.67,27.24 C267.073624,27.4343595 266.439898,27.4857427 265.82,27.39 C263.803761,27.2367268 261.780198,27.2033347 259.76,27.29 C258.4,27.35 255.59,28.29 255.52,26.18 C255.52,25.62 255.66,25.07 255.63,24.51 C255.616357,24.2676745 255.582912,24.0268713 255.53,23.79 C257.197834,22.7787333 258.727288,21.5551697 260.08,20.15 C260.692653,20.3546653 261.272108,20.647762 261.8,21.02 L265.74,23.57 C266.44,24.03 267.14,24.49 267.81,24.99 C268.106275,25.1756071 268.342455,25.4430468 268.49,25.76 C268.619036,26.3880449 268.270904,27.0163814 267.67,27.24 L267.67,27.24 Z" fill="url(#linearGradient-5)"></path>
                        <path d="M247.15,62.09 C246.553624,62.2843595 245.919898,62.3357427 245.3,62.24 C243.283761,62.0867268 241.260198,62.0533347 239.24,62.14 C237.88,62.2 235.07,63.14 235,61.03 C235,60.47 235.14,59.92 235.11,59.36 C235.096357,59.1176745 235.062912,58.8768713 235.01,58.64 C236.677834,57.6287333 238.207288,56.4051697 239.56,55 C240.172653,55.2046653 240.752108,55.497762 241.28,55.87 L245.22,58.42 C245.92,58.88 246.62,59.34 247.29,59.84 C247.586275,60.0256071 247.822455,60.2930468 247.97,60.61 C248.099036,61.2380449 247.750904,61.8663814 247.15,62.09 L247.15,62.09 Z" fill="url(#linearGradient-5)"></path>
                        <path d="M335.15,38.09 C334.553624,38.2843595 333.919898,38.3357427 333.3,38.24 C331.283761,38.0867268 329.260198,38.0533347 327.24,38.14 C325.88,38.2 323.07,39.14 323,37.03 C323,36.47 323.14,35.92 323.11,35.36 C323.096357,35.1176745 323.062912,34.8768713 323.01,34.64 C324.677834,33.6287333 326.207288,32.4051697 327.56,31 C328.172653,31.2046653 328.752108,31.497762 329.28,31.87 L333.22,34.42 C333.92,34.88 334.62,35.34 335.29,35.84 C335.586275,36.0256071 335.822455,36.2930468 335.97,36.61 C336.099036,37.2380449 335.750904,37.8663814 335.15,38.09 L335.15,38.09 Z" fill="url(#linearGradient-5)" transform="translate(329.498377, 34.700015) rotate(-12.000000) translate(-329.498377, -34.700015) "></path>
                        <path d="M165.4,34.42 C164.32,34.54 167.82,44 167.82,44 C167.82,44 167.6,51.41 169.82,54.91 C172.04,58.41 171.82,112.06 171.82,112.06 L186.7,110.06 L183.32,69.65 C183.32,69.65 184.61,52.41 188.88,47.22 C188.88,47.22 192.62,40.27 188.65,42.11 C185.83,43.43 184.58,47.49 182.65,46.81 C182.445952,46.714041 182.280324,46.5519371 182.18,46.35 C181.271107,44.6175479 180.598455,42.7711182 180.18,40.86 C178.77,35.51 177.53,28.49 177.53,28.49 C177.53,28.49 175.93,26.19 175.67,27.3 C175.41,28.41 175.5,37.3 175.51,37.81 C175.34,37.24 172.51,27.72 171.26,27.55 C170.01,27.38 171.85,37.45 171.97,38.03 C171.75,37.55 167.97,28.75 167.19,28.85 C165.76,29.06 168.6,38.08 168.81,38.75 C168.53,38.31 166.42,34.32 165.4,34.42 Z" fill="url(#linearGradient-6)"></path>
                        <path d="M210,2.91 C210.416241,3.38963813 210.940703,3.76327476 211.53,4 C213.321891,4.93913453 215.058109,5.9808653 216.73,7.12 C217.86,7.89 219.73,10.19 220.92,8.41 C221.24,7.95 221.39,7.41 221.71,6.94 C221.855682,6.74120322 222.012605,6.55089305 222.18,6.37 C221.271107,4.63754788 220.598455,2.79111824 220.18,0.88 C219.551409,0.732171587 218.904389,0.678253313 218.26,0.72 L213.57,0.81 C212.728501,0.791734202 211.886707,0.828479162 211.05,0.92 C210.694174,0.917798989 210.345854,1.02229477 210.05,1.22 C209.615037,1.69237379 209.593724,2.41273748 210,2.91 L210,2.91 Z" fill="url(#linearGradient-7)"></path>
                        <path d="M167,10.91 C167.416241,11.3896381 167.940703,11.7632748 168.53,12 C170.321891,12.9391345 172.058109,13.9808653 173.73,15.12 C174.86,15.89 176.73,18.19 177.92,16.41 C178.24,15.95 178.39,15.41 178.71,14.94 C178.855682,14.7412032 179.012605,14.5508931 179.18,14.37 C178.271107,12.6375479 177.598455,10.7911182 177.18,8.88 C176.551409,8.73217159 175.904389,8.67825331 175.26,8.72 L170.57,8.81 C169.728501,8.7917342 168.886707,8.82847916 168.05,8.92 C167.694174,8.91779899 167.345854,9.02229477 167.05,9.22 C166.615037,9.69237379 166.593724,10.4127375 167,10.91 L167,10.91 Z" fill="url(#linearGradient-7)" transform="translate(172.944484, 12.888152) rotate(-41.000000) translate(-172.944484, -12.888152) "></path>
                        <path d="M396,42.91 C396.416241,43.3896381 396.940703,43.7632748 397.53,44 C399.321891,44.9391345 401.058109,45.9808653 402.73,47.12 C403.86,47.89 405.73,50.19 406.92,48.41 C407.24,47.95 407.39,47.41 407.71,46.94 C407.855682,46.7412032 408.012605,46.5508931 408.18,46.37 C407.271107,44.6375479 406.598455,42.7911182 406.18,40.88 C405.551409,40.7321716 404.904389,40.6782533 404.26,40.72 L399.57,40.81 C398.728501,40.7917342 397.886707,40.8284792 397.05,40.92 C396.694174,40.917799 396.345854,41.0222948 396.05,41.22 C395.615037,41.6923738 395.593724,42.4127375 396,42.91 L396,42.91 Z" fill="url(#linearGradient-7)" transform="translate(401.944484, 44.888152) rotate(-25.000000) translate(-401.944484, -44.888152) "></path>
                        <path d="M356,18.91 C356.416241,19.3896381 356.940703,19.7632748 357.53,20 C359.321891,20.9391345 361.058109,21.9808653 362.73,23.12 C363.86,23.89 365.73,26.19 366.92,24.41 C367.24,23.95 367.39,23.41 367.71,22.94 C367.855682,22.7412032 368.012605,22.5508931 368.18,22.37 C367.271107,20.6375479 366.598455,18.7911182 366.18,16.88 C365.551409,16.7321716 364.904389,16.6782533 364.26,16.72 L359.57,16.81 C358.728501,16.7917342 357.886707,16.8284792 357.05,16.92 C356.694174,16.917799 356.345854,17.0222948 356.05,17.22 C355.615037,17.6923738 355.593724,18.4127375 356,18.91 L356,18.91 Z" fill="url(#linearGradient-7)"></path>
                        <path d="M112.67,506.21 C108.67,514.38 105.76,520.73 105.76,520.73 L55.43,523.13 C55.43,523.13 63.77,501.06 77.34,506.76 C81.93,508.68 98.56,505.07 98.56,505.07 L99.08,503.4 L112.67,506.21 Z" fill="#25233A"></path>
                        <path d="M291.05,508.68 L283.34,513 L217.34,443.62 L210.06,351 L149.88,405.59 C149.88,405.59 151.49,443.18 130.45,472.59 C126.68,477.86 119.01,493.17 113.21,505.13 C113.03,505.5 112.85,505.88 112.68,506.25 L111.55,506.02 L107.62,505.2 L99.09,503.44 L126.75,391.64 L189.6,291.58 L230.91,302.58 L249.91,307.65 C249.91,307.65 262.73,333.34 249.91,399.83 L241.41,437.89 C241.41,437.89 275.67,456.16 286.23,492.3 L291,508.66 L291.05,508.68 Z" fill="#3F3D56"></path>
                        <path d="M291.05,508.68 L298.88,516.87 L279,537.59 L253,537.59 C253,537.59 258.54,528.44 269.62,526.99 C280.7,525.54 283.35,512.99 283.35,512.99 L291.05,508.68 Z" fill="url(#linearGradient-8)"></path>
                        <path d="M326.4,153.4 C326.4,153.4 292.57,197.15 286.15,204.48 C274.44,217.8 266.89,235.27 266.89,235.27 L249.89,307.61 L230.89,302.54 C230.89,302.54 248.63,236.21 255.76,222.13 C262.89,208.05 322.3,149.69 322.3,149.69 L326.4,153.4 Z" fill="url(#linearGradient-9)"></path>
                        <path d="M291,508.66 C290.65,507.66 279.36,476.3 262.41,463.15 C245.2,449.79 235.2,431.35 235.2,431.35 C231.2,395.95 230.87,302.54 230.87,302.54 L249.87,307.61 C249.87,307.61 262.69,333.3 249.87,399.79 L241.37,437.85 C241.37,437.85 275.63,456.16 286.19,492.3 L291,508.66 Z" fill="#25233A" opacity="0.396693638"></path>
                        <path d="M149.88,405.57 C149.88,405.57 151.49,443.16 130.45,472.57 C126.68,477.84 119.01,493.15 113.21,505.11 L111.55,506 L107.62,505.18 L107.62,505.18 L140.24,402.29 C140.24,402.29 179.75,355.48 187,351 C194.25,346.52 210.08,351 210.08,351 L149.88,405.57 Z" fill="#25233A" opacity="0.59719122"></path>
                    </g>
                    <g transform="translate(0.000000, 72.000000)">
                        <path d="M44.6729743,103.870537 C44.6729743,103.870537 55.4523818,168.553873 55.9780093,180.12934 C56.4955503,191.704807 47.652878,243.278188 53.143664,266.611317 C53.143664,266.611317 35.4340598,259.98751 33,267 C33,267 42.6755897,196.219199 45.9587401,184.510122 C49.2297606,172.788899 41.7375468,102 41.7375468,102 L44.6729743,103.870537 Z" fill="url(#linearGradient-10)"></path>
                        <path d="M328.924689,101.865893 C328.924689,101.865893 318.572584,166.471937 318.026904,178.035618 C317.481224,189.603346 325.476624,241.208851 320.249166,264.502159 C320.249166,264.502159 336.765875,257.965461 339,265 C339,265 330.328431,194.185105 327.335099,182.463573 C324.345721,170.74204 331.664952,100 331.664952,100 L328.924689,101.865893 Z" fill="url(#linearGradient-11)"></path>
                        <path d="M128,242 C66.5613006,241.353601 41.5051171,199.084698 31.2991023,178.484229 C13.981851,143.54654 23.7071621,49.6339365 101.906927,111.716387 L98.8955763,114.763698 C30.5959242,60.5303842 27.2429166,148.364424 39.9875236,174.09594 C52.8791227,200.116528 80.8751469,221.479829 125.616345,221.949573 L128,242 Z" fill="#FFD169"></path>
                        <path d="M46.867975,185.507324 C40.8104371,183.094541 35.1422837,179.886818 30,176 C30.4094558,176.966711 30.8429973,177.909454 31.2885816,178.800266 C41.6012489,199.296937 66.9192685,241.352863 129,242 L126.591436,222.046605 C88.0423729,221.651132 61.8371989,206.115846 46.867975,185.507324" fill="#FCC163"></path>
                        <path d="M249,242 C310.432079,241.353601 335.495375,199.084698 345.700717,178.484229 C363.014994,143.54654 353.301717,49.6339365 275.095432,111.716387 L278.099827,114.763698 C346.40881,60.5303842 349.761251,148.368439 337.007574,174.09594 C324.113878,200.116528 296.134199,221.479829 251.376313,221.949573 L249,242 Z" fill="#FFD169"></path>
                        <path d="M341.764655,165.5965 C340.827024,169.44445 339.64991,172.847316 338.298259,175.566373 C325.216064,201.789889 296.827336,223.319797 251.411053,223.793204 L249,244 C311.334244,243.348559 336.763953,200.750012 347.114433,179.988885 C349.736555,174.744991 351.737647,168.165846 353,161 C349.460542,162.873397 345.710015,164.435236 341.764655,165.5965" fill="#FCC163"></path>
                        <path d="M107.226196,213 L125,256 C92.7878039,251.132838 107.226196,213 107.226196,213" fill="#F2B255"></path>
                        <path d="M272.541224,213 L259,256 C283.543731,251.132838 272.541224,213 272.541224,213" fill="#F2B255"></path>
                        <path d="M282,142 L285.057434,95 C295.921433,96.6274293 298.949984,100.947297 298.999498,107.620555 C299.106776,122.315285 282,142 282,142" fill="#FCC163"></path>
                        <path d="M97,142 L92.8100664,95 C82.6020816,96.5766129 79.8618969,100.883065 80.0052787,107.560484 C80.3159392,122.254032 97,142 97,142" fill="#FCC163"></path>
                        <polygon fill="#FCC163" points="176 345.680773 191.770244 371 207 343.441122 189.055792 308"></polygon>
                        <polygon fill="#FFD169" points="181 345.680773 190.66191 371 200 343.441122 189.001387 308"></polygon>
                        <path d="M189.45686,333.311936 C194.665455,333.311936 199.401983,334.335005 203,336 L188.504793,308 L179,334.820461 C182.062479,333.869609 185.624793,333.311936 189.45686,333.311936" fill="#F2B255"></path>
                        <path d="M189.977791,355.748477 C186.782233,355.748477 183.742134,355.404582 181,354.807945 L191.869217,371 L202,354 C198.536706,355.10212 194.412708,355.748477 189.977791,355.748477" fill="#F2B255"></path>
                        <g transform="translate(174.000000, 0.000000)">
                            <mask id="mask-13" fill="white">
                                <use xlink:href="#path-12"></use>
                            </mask>
                            <g></g>
                        </g>
                        <polygon fill="#FFE183" points="220.462693 48 157.533297 48 104 91 274 91"></polygon>
                        <polygon fill="#FCC163" points="216.021877 48 161.970058 48 116 91 262 91"></polygon>
                        <polygon fill="#FFD169" points="213.262831 48 167.729177 48 129 91 252 91"></polygon>
                        <polygon fill="#FCC163" points="163 49.7671343 178.34753 36 201.143863 36 217 50"></polygon>
                        <polygon fill="#FFE183" points="197.397152 48 182.590981 48 170 91 210 91"></polygon>
                        <path d="M155.347233,407 L230.346262,407 C230.346262,407 239.213668,360 191.63198,360 C148.893533,360 155.347233,407 155.347233,407" fill="#FFD169"></path>
                        <path d="M193.204984,391.447926 C179.12859,391.447926 166.43332,388.585507 157.339265,384 C153.773667,395.566427 155.344746,407 155.344746,407 L230.352894,407 C230.352894,407 232.50175,395.602661 228.967812,384.060389 C219.885628,388.617714 207.225975,391.447926 193.204984,391.447926" fill="#F2B255"></path>
                        <path d="M90,88.6825618 C134.646784,76.0497699 258.922741,78.2110136 288,88.686594 C283.652223,211.401688 244.838506,322.568644 189.002002,327 C136.400307,316.685706 90.544473,219.627317 90,88.6825618" fill="#FCC163"></path>
                        <path d="M113,94.3670501 C147.503591,82.1965525 243.527584,84.2736507 266,94.3670501 C262.634974,212.611549 232.643577,319.728155 189.497987,324 C148.852017,314.06076 113.422641,220.534543 113,94.3670501" fill="#FFD169"></path>
                        <path d="M287.787816,94.2457838 C287.855875,92.6509309 287.947955,91.0600063 288,89.4612251 C258.922741,79.2596661 134.646784,77.1502178 90,89.4572969 C90.008007,91.3231963 90.0560487,93.1537417 90.0880765,95 C136.976808,83.898881 249.902906,85.3405338 287.787816,94.2457838" fill="#F2B255"></path>
                        <path d="M189,307.954079 C139.081645,298.204654 95.276477,210.612478 90.4683974,90.2289729 C90.3162683,90.293246 90.1561325,90.353502 90,90.4217922 C90.544462,220.872071 133.060536,320.724339 189,331 C248.382385,326.593276 283.652311,212.677251 288,90.4258092 C287.671721,90.2771777 287.327429,90.1405974 286.991144,90 C279.436734,204.309698 241.856848,303.780345 189,307.954079" fill="#F5C559"></path>
                        <path d="M240,409 C240,404.025641 236.19219,400 231.496026,400 L154.503974,400 C149.80781,400 146,404.025641 146,409 L240,409 Z" fill="#FFD169"></path>
                        <path d="M153,301.270148 C160.636924,309.255731 193.204038,353.425854 231,300 C201.470026,322.783014 180.362305,320.737364 153,301.270148" fill="#FCC163"></path>
                        <path d="M96,88.9978022 C96,86.2373626 93.987395,84 91.5042017,84 C89.0168067,84 87,86.2373626 87,88.9978022 C87,91.7626374 89.0168067,94 91.5042017,94 C93.987395,94 96,91.7626374 96,88.9978022" fill="#F2B255"></path>
                        <path d="M292,89.0021959 C292,86.2397892 289.988334,84 287.5021,84 C285.015866,84 283,86.2397892 283,89.0021959 C283,91.7602108 285.015866,94 287.5021,94 C289.988334,94 292,91.7602108 292,89.0021959" fill="#F2B255"></path>
                        <path d="M271,84 C271,81.2363796 268.987395,79 266.504202,79 C264.021008,79 262,81.2363796 262,84 C262,86.7592267 264.021008,89 266.504202,89 C268.987395,89 271,86.7592267 271,84" fill="#F2B255"></path>
                        <path d="M117,84 C117,81.2363796 114.986455,79 112.497898,79 C110.013545,79 108,81.2363796 108,84 C108,86.7592267 110.013545,89 112.497898,89 C114.986455,89 117,86.7592267 117,84" fill="#F2B255"></path>
                        <path d="M148,79 C148,76.2383465 145.985514,74 143.495794,74 C141.014486,74 139,76.2383465 139,79 C139,81.7616535 141.014486,84 143.495794,84 C145.985514,84 148,81.7616535 148,79" fill="#F2B255"></path>
                        <path d="M179,79.0043975 C179,76.2383465 176.987395,74 174.504202,74 C172.012605,74 170,76.2383465 170,79.0043975 C170,81.766051 172.012605,84 174.504202,84 C176.987395,84 179,81.766051 179,79.0043975" fill="#F2B255"></path>
                        <path d="M214,79.0021978 C214,76.2373626 211.986455,74 209.493695,74 C207.017749,74 205,76.2373626 205,79.0021978 C205,81.7626374 207.017749,84 209.493695,84 C211.986455,84 214,81.7626374 214,79.0021978" fill="#F2B255"></path>
                        <path d="M242,81.0087873 C242,78.2407733 239.984134,76 237.4979,76 C235.011666,76 233,78.2407733 233,81.0087873 C233,83.7636204 235.011666,86 237.4979,86 C239.984134,86 242,83.7636204 242,81.0087873" fill="#F2B255"></path>
                        <polygon fill="#F2B255" points="151 53 227 53 227 48 151 48"></polygon>
                        <path d="M228.94798,51 L151.056562,51 C149.271993,49.9834559 148.554155,48.2291667 149.280014,46.6507353 C149.997851,45.0723039 151.994965,44 154.244724,44 L225.759817,44 C228.013588,44 229.994659,45.0723039 230.720518,46.6507353 C231.446376,48.2291667 230.724528,49.9834559 228.94798,51" fill="#FFD169"></path>
                        <path d="M227.045348,48.5305 L152.95694,48.5305 C151.261925,48.2275 150.575187,47.7145 151.265895,47.2495 C151.948664,46.7845 153.850097,46.4695 155.993675,46.4695 L224.016551,46.4695 C226.15616,46.4695 228.049654,46.7845 228.736393,47.2465 C229.423132,47.7145 228.736393,48.2275 227.045348,48.5305" fill="#FFE183"></path>
                        <polygon fill="#D98BB0" points="328 101.815134 333.958862 94 337 96.9071137 333.723674 110"></polygon>
                        <path d="M332.028469,98.4287997 C332.028469,98.4287997 328.427287,149.038206 330.821435,160.375294 C333.223552,171.712383 347.612347,220.703934 346.41328,244.189055 C346.41328,244.189055 366.80139,238.524546 372,245 C372,245 353.209317,174.141182 345.612575,163.215618 C338.0238,152.277951 335.227307,96 335.227307,96 L332.028469,98.4287997 Z" fill="url(#linearGradient-14)"></path>
                        <polygon fill="#DA8DB0" points="48 102.734657 41.5957552 96 38 98.8900147 41.5957552 109"></polygon>
                        <path d="M43.0923597,100.448518 C43.0923597,100.448518 46.6465757,151.152236 44.0521988,162.489763 C41.4497898,173.831331 25.9558174,222.809773 27.1044115,246.333324 C27.1044115,246.333324 5.53413529,240.547387 0,247 C0,247 20.2690717,176.154595 28.3694714,165.245356 C36.4658551,154.336117 39.7228825,98 39.7228825,98 L43.0923597,100.448518 Z" fill="url(#linearGradient-15)"></path>
                    </g>
                </g>
            </g>
        </g>
    </g>
</svg>