<svg xmlns="http://www.w3.org/2000/svg" viewBox="0 0 1141 884">
<style type="text/css">
	.st0{fill-rule:evenodd;clip-rule:evenodd;fill:#82D4F0;}
	.st1{fill-rule:evenodd;clip-rule:evenodd;fill:#23C0F5;}
	.st2{display:none;opacity:0.6899;fill:#82D4F0;enable-background:new    ;}
	.st3{display:none;}
	.st4{display:inline;}
	.st5{opacity:0.1183;fill:#000405;enable-background:new    ;}
	.st6{fill:#82D4F0;}
	.st7{fill:#323047;}
	.st8{fill:#68C8FD;}
	.st9{fill:url(#SVGID_1_);}
	.st10{fill:url(#SVGID_2_);}
	.st11{fill:url(#SVGID_3_);}
	.st12{fill:url(#SVGID_4_);}
	.st13{fill:url(#SVGID_5_);}
	.st14{fill:url(#SVGID_6_);}
	.st15{fill:url(#SVGID_7_);}
	.st16{fill:url(#SVGID_8_);}
	.st17{fill:url(#SVGID_9_);}
	.st18{fill:url(#SVGID_10_);}
	.st19{fill:url(#SVGID_11_);}
	.st20{fill:url(#SVGID_12_);}
	.st21{fill:url(#SVGID_13_);}
	.st22{fill:#25233A;}
	.st23{fill:#3F3D56;}
	.st24{fill:url(#SVGID_14_);}
	.st25{fill:url(#SVGID_15_);}
	.st26{opacity:0.3967;fill:#25233A;enable-background:new    ;}
	.st27{opacity:0.5972;fill:#25233A;enable-background:new    ;}
	.st28{fill-rule:evenodd;clip-rule:evenodd;fill:url(#SVGID_16_);}
	.st29{fill-rule:evenodd;clip-rule:evenodd;fill:url(#SVGID_17_);}
	.st30{fill-rule:evenodd;clip-rule:evenodd;fill:#FFD169;}
	.st31{fill-rule:evenodd;clip-rule:evenodd;fill:#FCC163;}
	.st32{fill-rule:evenodd;clip-rule:evenodd;fill:#F2B255;}
	.st33{fill-rule:evenodd;clip-rule:evenodd;fill:#FFE183;}
	.st34{fill-rule:evenodd;clip-rule:evenodd;fill:#F5C559;}
	.st35{fill-rule:evenodd;clip-rule:evenodd;fill:#D98BB0;}
	.st36{fill-rule:evenodd;clip-rule:evenodd;fill:url(#SVGID_18_);}
	.st37{fill-rule:evenodd;clip-rule:evenodd;fill:#DA8DB0;}
	.st38{fill-rule:evenodd;clip-rule:evenodd;fill:url(#SVGID_19_);}
</style>
<g>
	<g transform="translate(-839.000000, 0.000000)">
		<g transform="translate(356.000000, 0.000000)">
			<g transform="translate(483.000000, 0.000000)">
				<path class="st0" d="M1141,0v884C1004.7,733.4,901.4,636,831,592C634.3,468.9,428.9,434.3,322,352C157.6,225.5,50.3,108.1,0,0
					H1141z"/>
				<path class="st1" d="M1141,0v860C1010.1,714.7,909.4,620,839,576C642.3,452.9,436.9,418.3,330,336C165.6,209.5,63.6,97.5,24,0
					H1141z"/>
				<path class="st2" d="M413.3,286c-24.3,5.2-49.6,10.8-69.2,26.2c-16.5,13-42.2,37-50,56.5c-33,82.4,4.3,182.6,76.7,233.9
					c34.1,24.1,76.5,35.8,107.1,64.2c19.4,18,32.9,41.7,53.5,58.2c30.1,24.1,70.7,29.4,109.2,32c26.7,1.8,54.5,2.6,79.3-7.6
					c17.9-7.3,33.1-19.9,48-32.3l98.7-82.4c15.9-13.2,30.7-34.3,51.3-34.2c185.9,1.3,198.4-217.4-86.9-314.3
					c-25.1-8.5-42.4-32.3-66-44.4c-48.8-25.1-104.9-17-154.2,0.4C548.5,264.2,478.1,272.2,413.3,286z"/>
			</g>
			<g transform="translate(856.000000, 134.000000)" class="st3">
				<g transform="translate(228.000000, 0.000000)" class="st4">
					<path class="st5" d="M326.1,504.9c7.8,0.1,17.8,2.1,19,9.8c0.6,4-1.6,7.9-4.1,11.1c-15.5,20.3-41.2,30.5-66.6,33.3
						s-50.9-1.1-76.2-4.2c-36.6-4.5-73.3-7.5-110.2-9c-26.2-1.1-53.8-1.7-76.4-15.1c-4.2-2.5-8.3-5.6-10.3-10
						c-4-8.8,2.3-19.6,11-23.9c8.7-4.3,18.9-3.9,28.6-3.3C135.9,498.6,230.9,504.9,326.1,504.9z"/>
					<path class="st6" d="M326.4,153.4c0,0-33.8,43.8-40.3,51.1c-11.7,13.3-19.3,30.8-19.3,30.8l-17,72.3l-19-5.1l-41.3-11
						c0,0,14.7-39.5,7.6-51.5c-9.5-16-1.3-26,0.9-32.9c4-12.7-16.4-36-16.4-36l-13.1-58.6l19.8-2.6l14.3,47.5l24.6,21.9l17.5,0.9
						c0,0,13.2,2.7,22.8-1.7c9.2-4.3,41.6-40.8,41.6-40.8l13.2,12L326.4,153.4z"/>
					<path class="st7" d="M268.6,119.7c2.4-1.9,5.5-2.9,8.6-2.7c2.3-0.1,4.5,0.7,6.2,2.1c1.3,1.5,2.2,3.3,2.4,5.3
						c0.5,2.5,0.7,5,0.6,7.5c-0.2,4.6-1.4,9.5,0.6,13.6c0.5,1,1.1,1.9,1.9,2.7c0.9,1,2.1,1.6,3.5,1.7c1.4,0.1,2.6-0.9,2.9-2.2
						c-1.2,2.6-3.3,4.6-5.9,5.6c-2.6,1-5.6,0.9-8.1-0.3c-0.8-0.4-1.6-0.9-2.3-1.4l1.7,3.5c-1.4-0.4-2.8-0.9-4.2-1.6
						c-4.3-2.3-6.6-7-7.8-11.7c-1-4.4-1.2-8.8-2.1-13.2C265.7,125.2,265.9,122.1,268.6,119.7z"/>
					<path class="st8" d="M254.3,124.5c0.9,0,1.7,0.1,2.5,0.4c1.4,0.6,2.3,1.9,2.4,3.4c0.1,1.5-0.7,2.9-2.1,3.6
						c-0.9,0.3-1.8,0.5-2.7,0.5c-0.8,0-1.7,0-2.5-0.1c-0.5,0-1-0.3-1.2-0.8c-0.5-1.1-1-2.2-1.2-3.4
						C248.9,124.3,251.4,124.5,254.3,124.5z"/>
					
						<linearGradient id="SVGID_1_" gradientUnits="userSpaceOnUse" x1="-1009.5684" y1="806.9359" x2="-1008.5684" y2="806.9359" gradientTransform="matrix(20.9968 0 0 -36.4411 21427.75 29583.4609)">
						<stop  offset="0" style="stop-color:#ECC4D7"/>
						<stop  offset="0.42" style="stop-color:#EFD4D1"/>
						<stop  offset="1" style="stop-color:#F2EAC9"/>
					</linearGradient>
					<path class="st9" d="M251,159.6c0,0-0.2,2.9-0.4,6.6c-0.2,3.2-0.4,7-0.6,10.2c-0.3,5.4-2.6,10.5-6.5,14.2
						c-2.3,2.3-7.6,6.6-11.8,5.1c-2-0.7-2.1-3.3-1.6-4.8c0.9-2.8,1.4-5.6,1.5-8.5c0.1-2.3-0.1-4.7-0.6-7
						C228.5,169,251,159.6,251,159.6z"/>
					
						<linearGradient id="SVGID_2_" gradientUnits="userSpaceOnUse" x1="-1007.035" y1="792.2898" x2="-1007.2019" y2="794.4174" gradientTransform="matrix(20.0695 0 0 -22.82 20473.5195 18563.9961)">
						<stop  offset="0" style="stop-color:#ECC4D7"/>
						<stop  offset="0.42" style="stop-color:#EFD4D1"/>
						<stop  offset="1" style="stop-color:#F2EAC9"/>
					</linearGradient>
					<path class="st10" d="M251,159.6c0,0-0.2,2.9-0.4,6.6c-1.6,3.5-3.1,6.4-3.9,7.8c-1.6,2.9-8.3,7.4-15,8.3c0.1-2.3-0.1-4.7-0.6-7
						C228.5,169,251,159.6,251,159.6z"/>
					
						<linearGradient id="SVGID_3_" gradientUnits="userSpaceOnUse" x1="-1020.3559" y1="807.4677" x2="-1019.3559" y2="807.4677" gradientTransform="matrix(44.5173 0 0 -55.2182 45635.0898 44735.8516)">
						<stop  offset="0" style="stop-color:#ECD0C4"/>
						<stop  offset="0.42" style="stop-color:#EFD4D1"/>
						<stop  offset="1" style="stop-color:#F2EAC9"/>
					</linearGradient>
					<path class="st11" d="M231.4,121.3c-11.8,0.7-20.9,10.9-20.2,22.8c0,0.5,0.1,1,0.2,1.5c0.7,8.7,2.9,17.3,6.6,25.2
						c7,12,24.7,2.1,27.6-2.8s13.6-27.2,9.1-33.5C251.6,130.2,242.9,120.9,231.4,121.3z"/>
					<path class="st7" d="M225.1,109.1c7.5-2.2,15.6-2,22.9,0.7c7.3,2.8,13.5,8.4,16.3,15.7c2.4,6.7,2.2,14.1-0.6,20.7
						c-2.8,6.5-7.3,12.2-13,16.4c-1.5-4.5,3.1-8.5,4.8-12.9c0.4-0.8,0.5-1.7,0.3-2.6c-0.6-1.6-3.1-1.8-4.5-0.8s-2,2.8-2.5,4.5
						c1.4-7.1,2.4-15.5-2.7-20.8c-3-3.1-7.5-4.3-11.9-4.3c-8,0-15.7,3.3-21.2,9.1c-1.6,1.7-3.8,3.8-5.9,2.6c-0.6-0.4-1.1-1-1.4-1.7
						C199.8,124,215.5,111.8,225.1,109.1z"/>
					<path class="st7" d="M322.8,122.3c-5-2.2-10.3-4-15.7-4s-11.1,1.8-14.6,5.9c-1.9,2.3-3.2,4.9-4,7.8c-0.6,1.8-0.8,3.7-0.7,5.5
						c0.2,1.4,0.6,2.7,1,4c0.9,3.2,1.3,7-0.7,9.7c-0.8,1.1-2,1.8-3.3,1.9c-1.4,0-2.5-1-2.7-2.3c-0.9,2.5,0.6,5.4,2.8,6.7
						c2.4,1.2,5.2,1.3,7.7,0.4c1-0.3,2-0.9,2.8-1.6c0.8-0.8,1.5-1.7,2-2.8c2.1-3.8,3.1-8,4.7-12.1c1.6-4.1,3.8-8,7.5-10.3
						c2.9-1.6,6.2-2.4,9.5-2.4c3.3-0.1,6.6,0.2,9.9-0.1c3.3-0.3,0.9-2.3-0.5-3.3C326.7,124.2,324.8,123.2,322.8,122.3L322.8,122.3z"
						/>
					
						<linearGradient id="SVGID_4_" gradientUnits="userSpaceOnUse" x1="-1022.7889" y1="807.7413" x2="-1021.7889" y2="807.7413" gradientTransform="matrix(59.5374 0 0 -75.1333 61205.6484 60800.4297)">
						<stop  offset="0" style="stop-color:#ECC4D7"/>
						<stop  offset="0.42" style="stop-color:#EFD4D1"/>
						<stop  offset="1" style="stop-color:#F2EAC9"/>
					</linearGradient>
					<path class="st12" d="M369.1,86.5c0.9,0.7-7.1,6.9-7.1,6.9s-3.7,6.4-7.5,8.2s-32.2,48.2-32.2,48.2l-11.2-10.2l24.2-32.5
						c0,0,8-15.3,7.1-22c0,0,0.5-7.9,2.9-4.2c1.7,2.6,0.6,6.7,2.6,7.2c0.2,0,0.4,0,0.6-0.1c1.7-1,3.2-2.2,4.6-3.6
						c4-3.8,8.8-9.1,8.8-9.1s2.6-1.1,2.3,0c-0.3,1.1-5.1,8.6-5.4,9c0.4-0.4,7.8-7,9-6.5c1.2,0.5-5.7,8.1-6.1,8.5
						c0.4-0.3,8.3-5.8,8.9-5.3c1.1,0.9-6,7.1-6.6,7.6C364.4,88.1,368.3,85.8,369.1,86.5z"/>
					
						<linearGradient id="SVGID_5_" gradientUnits="userSpaceOnUse" x1="-1000.7766" y1="781.6941" x2="-1001.2397" y2="779.6465" gradientTransform="matrix(12.9967 0 0 -7.4 13346.1563 6013.7695)">
						<stop  offset="0" style="stop-color:#ECC4D7"/>
						<stop  offset="0.42" style="stop-color:#EFD4D1"/>
						<stop  offset="1" style="stop-color:#F2EAC9"/>
					</linearGradient>
					<path class="st13" d="M400.7,91.2c-0.6,0.2-1.2,0.2-1.9,0.2c-2-0.2-4-0.2-6.1-0.1c-1.4,0.1-4.2,1-4.2-1.1
						c0-0.6,0.1-1.1,0.1-1.7c0-0.2,0-0.5-0.1-0.7c1.7-1,3.2-2.2,4.5-3.6c0.6,0.2,1.2,0.5,1.7,0.9l3.9,2.6c0.7,0.5,1.4,0.9,2.1,1.4
						c0.3,0.2,0.5,0.5,0.7,0.8C401.6,90.4,401.3,91,400.7,91.2L400.7,91.2z"/>
					
						<linearGradient id="SVGID_6_" gradientUnits="userSpaceOnUse" x1="-1000.7766" y1="781.6941" x2="-1001.2397" y2="779.6465" gradientTransform="matrix(12.9967 0 0 -7.4 13213.1406 5949.7744)">
						<stop  offset="0" style="stop-color:#ECC4D7"/>
						<stop  offset="0.42" style="stop-color:#EFD4D1"/>
						<stop  offset="1" style="stop-color:#F2EAC9"/>
					</linearGradient>
					<path class="st14" d="M267.7,27.2c-0.6,0.2-1.2,0.2-1.9,0.1c-2-0.2-4-0.2-6.1-0.1c-1.4,0.1-4.2,1-4.2-1.1
						c0-0.6,0.1-1.1,0.1-1.7c0-0.2,0-0.5-0.1-0.7c1.7-1,3.2-2.2,4.5-3.6c0.6,0.2,1.2,0.5,1.7,0.9l3.9,2.5c0.7,0.5,1.4,0.9,2.1,1.4
						c0.3,0.2,0.5,0.5,0.7,0.8C268.6,26.4,268.3,27,267.7,27.2L267.7,27.2z"/>
					
						<linearGradient id="SVGID_7_" gradientUnits="userSpaceOnUse" x1="-1000.7766" y1="781.6941" x2="-1001.2398" y2="779.6465" gradientTransform="matrix(12.9967 0 0 -7.4 13192.6523 5984.623)">
						<stop  offset="0" style="stop-color:#ECC4D7"/>
						<stop  offset="0.42" style="stop-color:#EFD4D1"/>
						<stop  offset="1" style="stop-color:#F2EAC9"/>
					</linearGradient>
					<path class="st15" d="M247.1,62.1c-0.6,0.2-1.2,0.2-1.8,0.2c-2-0.2-4-0.2-6.1-0.1c-1.4,0.1-4.2,1-4.2-1.1
						c0-0.6,0.1-1.1,0.1-1.7c0-0.2,0-0.5-0.1-0.7c1.7-1,3.2-2.2,4.6-3.6c0.6,0.2,1.2,0.5,1.7,0.9l3.9,2.5c0.7,0.5,1.4,0.9,2.1,1.4
						c0.3,0.2,0.5,0.5,0.7,0.8C248.1,61.2,247.8,61.9,247.1,62.1L247.1,62.1z"/>
					
						<linearGradient id="SVGID_8_" gradientUnits="userSpaceOnUse" x1="-1002.4097" y1="769.8092" x2="-1002.8729" y2="767.7616" gradientTransform="matrix(12.7127 -2.7022 -1.5386 -7.2383 14232.168 3047.9946)">
						<stop  offset="0" style="stop-color:#ECC4D7"/>
						<stop  offset="0.42" style="stop-color:#EFD4D1"/>
						<stop  offset="1" style="stop-color:#F2EAC9"/>
					</linearGradient>
					<path class="st16" d="M335.7,36.8c-0.5,0.3-1.2,0.5-1.8,0.5c-2,0.3-4,0.7-5.9,1.2c-1.3,0.3-3.9,1.8-4.4-0.2
						c-0.1-0.5-0.1-1.1-0.2-1.7c-0.1-0.2-0.1-0.5-0.2-0.7c1.4-1.3,2.7-2.9,3.7-4.5c0.6,0.1,1.3,0.2,1.9,0.5l4.4,1.7
						c0.8,0.3,1.6,0.6,2.3,1c0.3,0.1,0.6,0.3,0.8,0.6C336.5,35.8,336.3,36.5,335.7,36.8L335.7,36.8z"/>
					
						<linearGradient id="SVGID_9_" gradientUnits="userSpaceOnUse" x1="-1012.3603" y1="807.6529" x2="-1012.5369" y2="808.0232" gradientTransform="matrix(25.283 0 0 -85.0627 25777.6875 68785.7188)">
						<stop  offset="0" style="stop-color:#ECC4D7"/>
						<stop  offset="0.42" style="stop-color:#EFD4D1"/>
						<stop  offset="1" style="stop-color:#F2EAC9"/>
					</linearGradient>
					<path class="st17" d="M165.4,34.4c-1.1,0.1,2.4,9.6,2.4,9.6s-0.2,7.4,2,10.9c2.2,3.5,2,57.1,2,57.1l14.9-2l-3.4-40.4
						c0,0,1.3-17.2,5.6-22.4c0,0,3.7-7-0.2-5.1c-2.8,1.3-4.1,5.4-6,4.7c-0.2-0.1-0.4-0.3-0.5-0.5c-0.9-1.7-1.6-3.6-2-5.5
						c-1.4-5.4-2.6-12.4-2.6-12.4s-1.6-2.3-1.9-1.2c-0.3,1.1-0.2,10-0.2,10.5c-0.2-0.6-3-10.1-4.3-10.3s0.6,9.9,0.7,10.5
						c-0.2-0.5-4-9.3-4.8-9.2c-1.4,0.2,1.4,9.2,1.6,9.9C168.5,38.3,166.4,34.3,165.4,34.4z"/>
					
						<linearGradient id="SVGID_10_" gradientUnits="userSpaceOnUse" x1="-995.9026" y1="801.0527" x2="-993.5102" y2="803.0144" gradientTransform="matrix(12.471 0 0 -8.3637 12625.8789 6709.9111)">
						<stop  offset="0" style="stop-color:#ECC4D7"/>
						<stop  offset="0.42" style="stop-color:#EFD4D1"/>
						<stop  offset="1" style="stop-color:#F2EAC9"/>
					</linearGradient>
					<path class="st18" d="M210,2.9c0.4,0.5,0.9,0.9,1.5,1.1c1.8,0.9,3.5,2,5.2,3.1c1.1,0.8,3,3.1,4.2,1.3c0.3-0.5,0.5-1,0.8-1.5
						c0.1-0.2,0.3-0.4,0.5-0.6c-0.9-1.7-1.6-3.6-2-5.5c-0.6-0.1-1.3-0.2-1.9-0.2l-4.7,0.1c-0.8,0-1.7,0-2.5,0.1
						c-0.4,0-0.7,0.1-1,0.3C209.6,1.7,209.6,2.4,210,2.9L210,2.9z"/>
					
						<linearGradient id="SVGID_11_" gradientUnits="userSpaceOnUse" x1="-1007.3391" y1="769.073" x2="-1004.9467" y2="771.0347" gradientTransform="matrix(9.412 -8.1817 -5.4871 -6.3121 13869.8984 -3363.8459)">
						<stop  offset="0" style="stop-color:#ECC4D7"/>
						<stop  offset="0.42" style="stop-color:#EFD4D1"/>
						<stop  offset="1" style="stop-color:#F2EAC9"/>
					</linearGradient>
					<path class="st19" d="M167.2,15.3c0.6,0.1,1.3,0,1.9-0.2c2-0.5,4-0.8,6-1.1c1.4-0.2,4.3,0.3,4-1.8c-0.1-0.6-0.3-1.1-0.4-1.6
						c0-0.2,0-0.5,0-0.7c-1.8-0.7-3.5-1.7-5.1-2.8c-0.6,0.3-1.1,0.7-1.6,1.1l-3.5,3.1c-0.6,0.5-1.3,1.1-1.8,1.7
						c-0.3,0.2-0.5,0.5-0.6,0.9C166.1,14.6,166.5,15.2,167.2,15.3L167.2,15.3z"/>
					
						<linearGradient id="SVGID_12_" gradientUnits="userSpaceOnUse" x1="-1001.0572" y1="780.0137" x2="-998.6648" y2="781.9755" gradientTransform="matrix(11.3026 -5.2705 -3.5346 -7.5801 14466.7246 690.3926)">
						<stop  offset="0" style="stop-color:#ECC4D7"/>
						<stop  offset="0.42" style="stop-color:#EFD4D1"/>
						<stop  offset="1" style="stop-color:#F2EAC9"/>
					</linearGradient>
					<path class="st20" d="M395.7,45.6c0.6,0.3,1.2,0.4,1.8,0.3c2,0.1,4,0.3,6,0.6c1.3,0.2,4,1.5,4.3-0.6c0.1-0.6,0-1.1,0.1-1.7
						c0-0.2,0.1-0.5,0.2-0.7c-1.6-1.2-2.9-2.6-4.1-4.1c-0.6,0.1-1.2,0.4-1.8,0.7l-4.2,2.1c-0.8,0.3-1.5,0.7-2.2,1.2
						c-0.3,0.1-0.6,0.4-0.8,0.7C394.9,44.7,395.1,45.3,395.7,45.6L395.7,45.6z"/>
					
						<linearGradient id="SVGID_13_" gradientUnits="userSpaceOnUse" x1="-995.9026" y1="801.0527" x2="-993.5102" y2="803.0144" gradientTransform="matrix(12.471 0 0 -8.3637 12771.8789 6725.9126)">
						<stop  offset="0" style="stop-color:#ECC4D7"/>
						<stop  offset="0.42" style="stop-color:#EFD4D1"/>
						<stop  offset="1" style="stop-color:#F2EAC9"/>
					</linearGradient>
					<path class="st21" d="M356,18.9c0.4,0.5,0.9,0.9,1.5,1.1c1.8,0.9,3.5,2,5.2,3.1c1.1,0.8,3,3.1,4.2,1.3c0.3-0.5,0.5-1,0.8-1.5
						c0.1-0.2,0.3-0.4,0.5-0.6c-0.9-1.7-1.6-3.6-2-5.5c-0.6-0.1-1.3-0.2-1.9-0.2l-4.7,0.1c-0.8,0-1.7,0-2.5,0.1
						c-0.4,0-0.7,0.1-1,0.3C355.6,17.7,355.6,18.4,356,18.9L356,18.9z"/>
					<path class="st22" d="M112.7,506.2c-4,8.2-6.9,14.5-6.9,14.5l-50.3,2.4c0,0,8.3-22.1,21.9-16.4c4.6,1.9,21.2-1.7,21.2-1.7
						l0.5-1.7L112.7,506.2z"/>
					<path class="st23" d="M291,508.7l-7.7,4.3l-66-69.4l-7.3-92.6l-60.2,54.6c0,0,1.6,37.6-19.4,67c-3.8,5.3-11.4,20.6-17.2,32.5
						c-0.2,0.4-0.4,0.8-0.5,1.1l-1.1-0.2l-3.9-0.8l-8.5-1.8l27.7-111.8l62.9-100.1l41.3,11l19,5.1c0,0,12.8,25.7,0,92.2l-8.5,38.1
						c0,0,34.3,18.3,44.8,54.4L291,508.7L291,508.7z"/>
					
						<linearGradient id="SVGID_14_" gradientUnits="userSpaceOnUse" x1="-1017.4768" y1="808.7103" x2="-1017.1995" y2="808.9548" gradientTransform="matrix(45.88 0 0 -28.91 47080.4063 23839.8984)">
						<stop  offset="0" style="stop-color:#25233A"/>
						<stop  offset="1.000000e-02" style="stop-color:#67DDF9"/>
						<stop  offset="0.12" style="stop-color:#5CB3CE"/>
						<stop  offset="0.24" style="stop-color:#538EA9"/>
						<stop  offset="0.37" style="stop-color:#4C718B"/>
						<stop  offset="0.5" style="stop-color:#465A73"/>
						<stop  offset="0.63" style="stop-color:#424A63"/>
						<stop  offset="0.79" style="stop-color:#404059"/>
						<stop  offset="1" style="stop-color:#3F3D56"/>
					</linearGradient>
					<path class="st24" d="M291,508.7l7.8,8.2L279,537.6h-26c0,0,5.5-9.2,16.6-10.6c11.1-1.5,13.7-14,13.7-14L291,508.7z"/>
					
						<linearGradient id="SVGID_15_" gradientUnits="userSpaceOnUse" x1="-1025.1628" y1="808.7089" x2="-1024.6151" y2="806.7048" gradientTransform="matrix(95.51 0 0 -157.92 98177.1875 127849.9531)">
						<stop  offset="0" style="stop-color:#000000;stop-opacity:0"/>
						<stop  offset="0.91" style="stop-color:#000000;stop-opacity:0.8"/>
						<stop  offset="1" style="stop-color:#000000"/>
					</linearGradient>
					<path class="st25" d="M326.4,153.4c0,0-33.8,43.8-40.3,51.1c-11.7,13.3-19.3,30.8-19.3,30.8l-17,72.3l-19-5.1
						c0,0,17.7-66.3,24.9-80.4c7.1-14.1,66.5-72.4,66.5-72.4L326.4,153.4z"/>
					<path class="st26" d="M291,508.7c-0.4-1-11.6-32.4-28.6-45.5c-17.2-13.4-27.2-31.8-27.2-31.8c-4-35.4-4.3-128.8-4.3-128.8
						l19,5.1c0,0,12.8,25.7,0,92.2l-8.5,38.1c0,0,34.3,18.3,44.8,54.4L291,508.7z"/>
					<path class="st27" d="M149.9,405.6c0,0,1.6,37.6-19.4,67c-3.8,5.3-11.4,20.6-17.2,32.5l-1.7,0.9l-3.9-0.8l0,0l32.6-102.9
						c0,0,39.5-46.8,46.8-51.3s23.1,0,23.1,0L149.9,405.6z"/>
				</g>
				<g transform="translate(0.000000, 72.000000)" class="st4">
					
						<linearGradient id="SVGID_16_" gradientUnits="userSpaceOnUse" x1="-782.8478" y1="736.4306" x2="-782.8478" y2="735.3408" gradientTransform="matrix(23 0 0 -165 18049.9961 121650)">
						<stop  offset="0" style="stop-color:#D988AE"/>
						<stop  offset="0.42" style="stop-color:#EFD4D1"/>
						<stop  offset="1" style="stop-color:#F2EAC9"/>
					</linearGradient>
					<path class="st28" d="M44.7,103.9c0,0,10.8,64.7,11.3,76.3c0.5,11.6-8.3,63.1-2.8,86.5c0,0-17.7-6.6-20.1,0.4
						c0,0,9.7-70.8,13-82.5c3.3-11.7-4.2-82.5-4.2-82.5L44.7,103.9z"/>
					
						<linearGradient id="SVGID_17_" gradientUnits="userSpaceOnUse" x1="-781.0714" y1="736.4306" x2="-781.0714" y2="735.3408" gradientTransform="matrix(21 0 0 -165 16731 121648)">
						<stop  offset="0" style="stop-color:#D988AE"/>
						<stop  offset="0.42" style="stop-color:#EFD4D1"/>
						<stop  offset="1" style="stop-color:#F2EAC9"/>
					</linearGradient>
					<path class="st29" d="M328.9,101.9c0,0-10.4,64.6-10.9,76.2c-0.5,11.6,7.4,63.2,2.2,86.5c0,0,16.5-6.5,18.8,0.5
						c0,0-8.7-70.8-11.7-82.5c-3-11.7,4.3-82.5,4.3-82.5L328.9,101.9z"/>
					<path class="st30" d="M128,242c-61.4-0.6-86.5-42.9-96.7-63.5c-17.3-34.9-7.6-128.9,70.6-66.8l-3,3
						C30.6,60.5,27.2,148.4,40,174.1c12.9,26,40.9,47.4,85.6,47.9L128,242z"/>
					<path class="st31" d="M46.9,185.5c-6.1-2.4-11.7-5.6-16.9-9.5c0.4,1,0.8,1.9,1.3,2.8c10.3,20.5,35.6,62.6,97.7,63.2l-2.4-20
						C88,221.7,61.8,206.1,46.9,185.5"/>
					<path class="st30" d="M249,242c61.4-0.6,86.5-42.9,96.7-63.5c17.3-34.9,7.6-128.9-70.6-66.8l3,3c68.3-54.2,71.7,33.6,58.9,59.3
						c-12.9,26-40.9,47.4-85.6,47.9L249,242z"/>
					<path class="st31" d="M341.8,165.6c-0.9,3.8-2.1,7.3-3.5,10c-13.1,26.2-41.5,47.8-86.9,48.2L249,244
						c62.3-0.7,87.8-43.2,98.1-64c2.6-5.2,4.6-11.8,5.9-19C349.5,162.9,345.7,164.4,341.8,165.6"/>
					<path class="st32" d="M107.2,213l17.8,43C92.8,251.1,107.2,213,107.2,213"/>
					<path class="st32" d="M272.5,213L259,256C283.5,251.1,272.5,213,272.5,213"/>
					<path class="st31" d="M282,142l3.1-47c10.9,1.6,13.9,5.9,13.9,12.6C299.1,122.3,282,142,282,142"/>
					<path class="st31" d="M97,142l-4.2-47c-10.2,1.6-12.9,5.9-12.8,12.6C80.3,122.3,97,142,97,142"/>
					<polygon class="st31" points="176,345.7 191.8,371 207,343.4 189.1,308 					"/>
					<polygon class="st30" points="181,345.7 190.7,371 200,343.4 189,308 					"/>
					<path class="st32" d="M189.5,333.3c5.2,0,9.9,1,13.5,2.7l-14.5-28l-9.5,26.8C182.1,333.9,185.6,333.3,189.5,333.3"/>
					<path class="st32" d="M190,355.7c-3.2,0-6.2-0.3-9-0.9l10.9,16.2l10.1-17C198.5,355.1,194.4,355.7,190,355.7"/>
					<g transform="translate(174.000000, 0.000000)">
					</g>
					<polygon class="st33" points="220.5,48 157.5,48 104,91 274,91 					"/>
					<polygon class="st31" points="216,48 162,48 116,91 262,91 					"/>
					<polygon class="st30" points="213.3,48 167.7,48 129,91 252,91 					"/>
					<polygon class="st31" points="163,49.8 178.3,36 201.1,36 217,50 					"/>
					<polygon class="st33" points="197.4,48 182.6,48 170,91 210,91 					"/>
					<path class="st30" d="M155.3,407h75c0,0,8.9-47-38.7-47C148.9,360,155.3,407,155.3,407"/>
					<path class="st32" d="M193.2,391.4c-14.1,0-26.8-2.9-35.9-7.4c-3.6,11.6-2,23-2,23h75c0,0,2.1-11.4-1.4-22.9
						C219.9,388.6,207.2,391.4,193.2,391.4"/>
					<path class="st31" d="M90,88.7c44.6-12.6,168.9-10.5,198,0c-4.3,122.7-43.2,233.9-99,238.3C136.4,316.7,90.5,219.6,90,88.7"/>
					<path class="st30" d="M113,94.4c34.5-12.2,130.5-10.1,153,0c-3.4,118.2-33.4,225.4-76.5,229.6
						C148.9,314.1,113.4,220.5,113,94.4"/>
					<path class="st32" d="M287.8,94.2c0.1-1.6,0.2-3.2,0.2-4.8c-29.1-10.2-153.4-12.3-198,0c0,1.9,0.1,3.7,0.1,5.5
						C137,83.9,249.9,85.3,287.8,94.2"/>
					<path class="st34" d="M189,308c-49.9-9.7-93.7-97.3-98.5-217.7c-0.2,0.1-0.3,0.1-0.5,0.2c0.5,130.5,43.1,230.3,99,240.6
						c59.4-4.4,94.7-118.3,99-240.6c-0.3-0.1-0.7-0.3-1-0.4C279.4,204.3,241.9,303.8,189,308"/>
					<path class="st30" d="M240,409c0-5-3.8-9-8.5-9h-77c-4.7,0-8.5,4-8.5,9H240z"/>
					<path class="st31" d="M153,301.3c7.6,8,40.2,52.2,78-1.3C201.5,322.8,180.4,320.7,153,301.3"/>
					<path class="st32" d="M96,89c0-2.8-2-5-4.5-5C89,84,87,86.2,87,89c0,2.8,2,5,4.5,5C94,94,96,91.8,96,89"/>
					<path class="st32" d="M292,89c0-2.8-2-5-4.5-5s-4.5,2.2-4.5,5c0,2.8,2,5,4.5,5S292,91.8,292,89"/>
					<path class="st32" d="M271,84c0-2.8-2-5-4.5-5c-2.5,0-4.5,2.2-4.5,5c0,2.8,2,5,4.5,5C269,89,271,86.8,271,84"/>
					<path class="st32" d="M117,84c0-2.8-2-5-4.5-5c-2.5,0-4.5,2.2-4.5,5c0,2.8,2,5,4.5,5C115,89,117,86.8,117,84"/>
					<path class="st32" d="M148,79c0-2.8-2-5-4.5-5c-2.5,0-4.5,2.2-4.5,5s2,5,4.5,5C146,84,148,81.8,148,79"/>
					<path class="st32" d="M179,79c0-2.8-2-5-4.5-5c-2.5,0-4.5,2.2-4.5,5c0,2.8,2,5,4.5,5C177,84,179,81.8,179,79"/>
					<path class="st32" d="M214,79c0-2.8-2-5-4.5-5c-2.5,0-4.5,2.2-4.5,5c0,2.8,2,5,4.5,5C212,84,214,81.8,214,79"/>
					<path class="st32" d="M242,81c0-2.8-2-5-4.5-5c-2.5,0-4.5,2.2-4.5,5c0,2.8,2,5,4.5,5C240,86,242,83.8,242,81"/>
					<polygon class="st32" points="151,53 227,53 227,48 151,48 					"/>
					<path class="st30" d="M228.9,51h-77.9c-1.8-1-2.5-2.8-1.8-4.3c0.7-1.6,2.7-2.7,5-2.7h71.5c2.3,0,4.2,1.1,5,2.7
						C231.4,48.2,230.7,50,228.9,51"/>
					<path class="st33" d="M227,48.5H153c-1.7-0.3-2.4-0.8-1.7-1.3c0.7-0.5,2.6-0.8,4.7-0.8h68c2.1,0,4,0.3,4.7,0.8
						C229.4,47.7,228.7,48.2,227,48.5"/>
					<polygon class="st35" points="328,101.8 334,94 337,96.9 333.7,110 					"/>
					
						<linearGradient id="SVGID_18_" gradientUnits="userSpaceOnUse" x1="-791.2857" y1="736.6174" x2="-791.2857" y2="735.3036" gradientTransform="matrix(42 0 0 -149 33585.0234 109852)">
						<stop  offset="0" style="stop-color:#D988AE"/>
						<stop  offset="0.42" style="stop-color:#EFD4D1"/>
						<stop  offset="1" style="stop-color:#F2EAC9"/>
					</linearGradient>
					<path class="st36" d="M332,98.4c0,0-3.6,50.6-1.2,61.9c2.4,11.3,16.8,60.3,15.6,83.8c0,0,20.4-5.7,25.6,0.8
						c0,0-18.8-70.9-26.4-81.8C338,152.3,335.2,96,335.2,96L332,98.4z"/>
					<polygon class="st37" points="48,102.7 41.6,96 38,98.9 41.6,109 					"/>
					
						<linearGradient id="SVGID_19_" gradientUnits="userSpaceOnUse" x1="-791.9667" y1="736.6174" x2="-791.9667" y2="735.3036" gradientTransform="matrix(45 0 0 -149 35661 109854)">
						<stop  offset="0" style="stop-color:#D988AE"/>
						<stop  offset="0.42" style="stop-color:#EFD4D1"/>
						<stop  offset="1" style="stop-color:#F2EAC9"/>
					</linearGradient>
					<path class="st38" d="M43.1,100.4c0,0,3.6,50.7,1,62c-2.6,11.3-18.1,60.3-16.9,83.8c0,0-21.6-5.8-27.1,0.7
						c0,0,20.3-70.8,28.4-81.8C36.5,154.3,39.7,98,39.7,98L43.1,100.4z"/>
				</g>
			</g>
		</g>
	</g>
</g>
</svg>
