<svg xmlns="http://www.w3.org/2000/svg" viewBox="0 0 361.6 269.8">
<style type="text/css">
	.st0{fill:#E5B64E;}
</style>
<title>Logo</title>
<path class="st0" d="M361.5,60.5c-8.5,0.5-17,1.2-25.5,2.2c-4.2,0.5-8.5,1-12.7,1.7c-2.1,0.3-4.2,0.7-6.3,1s-4.1,0.6-6.1,0.7
	c-4.1,0.3-8.2,0.2-12.3-0.3c-4.1-0.4-8.3-1.3-12.5-2c-4.3-0.9-8.6-1.3-13-1.2c-1.1,0-2.2,0.1-3.3,0.3c-0.5,0.1-1.1,0.2-1.7,0.3
	s-1.1,0.3-1.6,0.4c-2,0.5-4.1,0.9-6.1,1.1c-2.1,0.2-4.2,0.3-6.2,0.2c-2.1-0.1-4.3-0.2-6.4-0.4c-4.3-0.3-8.5-0.8-12.7-1.4
	c-4.2-0.6-8.4-1.5-12.4-2.5c-2-0.5-4-1.2-5.9-2l-0.7-0.3c-0.2-0.1-0.4-0.2-0.6-0.3l-0.6-0.3l-0.8-0.5c-1.1-0.6-2.3-1.1-3.5-1.3
	c-2.3-0.4-4.7-0.3-6.9,0.2c-2.2,0.4-4.3,1-6.4,1.8c-4.1,1.5-8,3.3-11.8,5.4c-1.9,1-3.8,2.1-5.6,3.2l-2.7,1.6l-1.3,0.8l-1.4,0.7
	c-1.8,0.9-3.8,1.6-5.8,2.1c-1,0.2-2,0.3-3,0.2c-0.8,0-1.5-0.2-2.3-0.5c-0.1-37.6-4.4-62-31.3-62c-43.4,0-30.8,32.6-51.9,44.5
	c-10.2,5.8-5.5-13-20.5-10c-4.7,0.9-15.8,11.5-19,15c-20,21.7-23.3,55-23.3,65.2c0,66.3,31.2,122.7,69.4,122.7s75.9-55.7,75.9-122
	c0-19.3,0.6-37.1,0.6-52.7c0.7,0.4,1.4,0.7,2.1,0.8c1.1,0.2,2.2,0.3,3.3,0.2c2.2-0.2,4.4-0.7,6.4-1.5c2-0.8,4-1.7,5.9-2.7
	c1.9-0.9,3.8-1.9,5.7-2.8s3.8-1.8,5.8-2.6s3.9-1.6,5.8-2.3c1.9-0.7,3.9-1.2,5.9-1.6c1.9-0.4,3.8-0.6,5.7-0.4
	c0.9,0.1,1.7,0.3,2.5,0.7l1.4,0.8c0.5,0.3,1.1,0.5,1.6,0.7c2.1,0.7,4.2,1.1,6.4,1.5c4.3,0.7,8.5,1.2,12.8,1.7l12.7,1.5
	c2.1,0.3,4.2,0.5,6.4,0.8c2.2,0.3,4.3,0.4,6.5,0.3c2.2-0.1,4.4-0.2,6.5-0.6c0.6-0.1,1-0.2,1.5-0.2s1-0.1,1.5-0.1c1-0.1,2-0.1,3,0
	c4.1,0.2,8.3,0.8,12.3,1.7c4.1,0.8,8.3,1.8,12.7,2.4c4.4,0.6,8.8,0.8,13.2,0.4c2.2-0.2,4.4-0.6,6.5-1l6.4-1.2l12.5-2.4
	c8.4-1.6,16.7-3.2,25.1-4.9L361.5,60.5z M91.9,95.4c-4.4,3.7-6.7-4.6-6.7-10.7s1-11.3,6.7-11.3s7.3,4.3,7.3,10.3S100.5,88,91.9,95.4
	z"/>
<g id="lxwGuX.tif">
	<path d="M64.3,269.8V103.2c-3.5,0-6.7,0-9.9,0c-1.3,0-2,0.2-1.8,1.8c0.1,1.4,0,2.9-0.1,4.3c0,35.8,0,71.6,0,107.4
		c0,5.4-0.4,10.8-0.5,16.2c-0.1,7.7,0,15.3,0,23c0,0.3-0.1,0.5-0.2,0.8c-3.3,0.9-3.5,0.7-3.6-2.6c-0.1-4.8-0.5-9.6-0.5-14.4
		c0-7.6,0.4-15.1,0.4-22.7c0.1-10.2,0.1-20.5,0.1-30.7c0.1-22.1,0.3-44.1,0.4-66.2c0-5.5,0-11.1,0-16.9c-4.6,0-9.1,0-13.5,0
		c-9.8-0.1-19.5-0.3-29.3-0.5c-1.4,0-2.9-0.3-4.2-0.7c-1.5-0.4-2.3-1.4-1.3-2.6c6,0,11.6,0.1,17.3,0c7.4-0.2,14.7-0.7,22.1-1
		c2.4-0.1,4.8,0.2,7.3,0.1c0.8-0.1,1.5-0.7,1.5-1.6c0.1-10.7,0.1-21.5,0.2-32.2c0-1.1,0.5-2.2,1.2-3c0.5-0.5,2.3-0.5,2.6-0.1
		c0.8,1.1,1.3,2.4,1.3,3.7c-0.2,10.6-0.6,21.3-0.9,31.9c-0.1,1.9,1.1,2.1,2.4,2.2c2.9,0.1,5.8,0,9,0c0-3.1,0-6,0-8.9
		c0.1-6.7,0.2-13.4,0.3-20.1c0-3.2,0.2-6.3,0.2-9.5c0-2.1,0.6-2.9,2.6-2.1c0.6,0.1,1.3,0,1.9-0.1v40.3c0,0,9.1,0.9,13.3,2.3
		c4.5,1.6,9.5,2.2,13.2,5.5c1.2,1.1,2.4,2.4,3.4,3.7c1.8,2.3,1.5,5.6-0.5,8.3c-0.7,1-0.6,2.4,0.4,3.1c0.3,0.2,0.6,0.4,0.9,0.4l0,0
		c3.8,0.6,6,3.2,7.6,6.3c3.2,6.3,4.4,12.5,0.6,19.3c-2.6,4.7-6.6,8.6-11.3,11.1c-5.3,3-12.5,2-18.2,1.9c-0.5,4.1,0,8.5,0.2,13.1
		c0.1,2.1-1.8,3-3.5,2.9s-1.7-1.8-1.6-3.7c0-2.4,0.2-4.6,0.1-6.9c-0.5-8.3-0.6-7.2-5.6-6.9v17c0.3,14.9,0.3,29.9,0.2,44.8
		c0,5.4-0.5,10.9-0.5,16.4c0,7.8,0.4,15.5,0.4,23.3c-0.2,3-0.5,6-1,9L64.3,269.8z M72.9,156.8v-3.2c0-12.6,0-25.2,0.2-37.8
		c0.1-1.8,0.4-3.6,0.8-5.3c0.3-1.4,1.6-2.3,3.1-2c0,0,0.1,0,0.1,0c1.3,0.3,2.3,0.7,2.3,2.8c-0.1,3.4,0,6.8,0,10.2v36.1
		c4.7,0.7,9.1,1,13.8-1.2c6.6-3.1,13.8-13,12.8-20c-1-7.3-6.1-10.5-12.5-11.7c-1.4-0.3-2.8-0.5-4.1-0.7c-0.4-0.1-1.6-1-1.6-1.6
		c0.1-1,0.8-1.8,1.8-2.2c3.3-1,5.2-4.4,4.2-7.7c-0.1-0.2-0.1-0.4-0.2-0.5c-1.5-3.4-7.3-5.2-10.6-6.2c-4.4-1.3-8.7-2.9-13.6-2.8v53.6
		L72.9,156.8z"/>
	<path d="M175.5,208.5l-4.6-16.3c-4.1-0.4-8.2-0.9-12.2-1.1c-1.2,0.2-2.3,0.9-2.9,2c-1.7,4.4-3,9-4.6,13.4c-0.3,0.8-1.6,1.2-2.5,1.8
		l-0.7-0.6c1.9-5.4,3.8-10.8,5.9-16.7c-1.4,0-2.3,0-3.3,0c-7.6-0.3-15.2-0.6-22.8-0.8c-1.3,0-2.7,0.3-4,0.3
		c-13.8-0.2-27.5-0.3-41.3-0.6c-1.8,0.1-3.6-0.2-5.3-0.7c-0.8-0.3-1.2-1.9-1.7-2.9l0.6-1c3.6,0,7.2-0.1,10.7,0
		c11.2,0.3,22.4,0.6,33.6,1c5.7,0.2,11.3,1,17,1.3c5,0.3,10.1,0.3,15.1,0.4c1.8,0.3,3.5-0.9,3.9-2.7c2-6.2,4.2-12.4,6.3-18.5
		c0.4-0.8,0.9-1.5,1.6-2.2c1.4-1.8,2.7-1.5,3.3,0.6c1.8,6.1,3.6,12.3,5.2,18.5c1.2,4.6,2.4,9.2,3.5,13.8c0.7,2.7,1.4,5.4,1.8,8.1
		c0.1,0.9-0.6,1.9-0.9,2.9L175.5,208.5z M170.2,189.6c-0.3-1.7-0.5-2.8-0.7-3.8c-0.9-4.3-1.9-8.6-2.9-12.8c-0.3-0.9-0.8-1.8-1.4-2.6
		c-0.8,0.8-2,1.4-2.4,2.4c-1.9,5-3.5,10.1-5.4,15.7L170.2,189.6z"/>
	<path d="M147.2,216.2c7.9,0,15.7-0.1,23.5,0c11.4,0.1,22.8,0.3,34.2,0.6c9.1,0.2,18.2,0.4,27.2,1.1c5.7,0.5,11.2,1.6,15.7,6
		s2.4,13.7-2.2,16.4c-5.3,3.2-10.8,5.6-17,5.9c-3.4,0.1-8,0.2-10.9-0.6c-0.3-0.1-0.3-0.7,0-0.7c2.8,0,4.2,0,5.9-0.1
		c3.7-0.3,7.4-0.7,11-1.2c2.6-0.2,5-1.2,7-2.9c5.1-4.3,6.7-11.1,2.5-15.3c-2-2-5.3-3-8.1-3.6c-4.3-0.8-8.6-1.2-12.9-1.2
		c-10.8-0.3-21.5-0.4-32.3-0.6c-10.5-0.2-20.9-0.4-31.4-0.6c-3.5-0.1-7.1-0.4-10.6-0.5C147,218.9,146.7,217.9,147.2,216.2z"/>
	<path d="M238.6,136.9c2.2,0.9,2.7,1.8,1.9,3.4c-2,4.2-0.6,8,2.2,11.2c1.3,1.3,3,1.9,4.8,1.9c3.1-0.2,6.6-0.6,9.2-2.1
		c3-1.6,3.6-5.1,3.2-8.5c-0.1-1.5,0.1-3.1,0.6-4.5c0.1-0.5,1.2-0.9,1.9-0.9c0.3,0,0.9,0.9,0.9,1.5c0.2,4.4,0.1,8.9,0.3,13.3
		c0.3,6.7-2.2,12.1-6.8,16.9c-4.8,4.9-10.8,6.5-17.4,7.2c-7.2,0.8-13.8-1.3-20.3-3.9c-1.9-0.9-3.5-2.2-4.9-3.9c-0.6-0.6-0.3-2-0.4-3
		c0.9,0.3,2.4,0.4,2.7,1.1c1.4,3,4,4.1,6.7,5c8.3,2.9,16.8,4.1,25.3,1c8.3-2.9,13-12.6,11.7-21.3c0-0.3-0.4-0.6-0.4-0.5
		c-3.4,1.5-6.9,2.8-10.4,3.9c-8.1,2.2-14.3-4.3-12.5-12.4C237.3,140.6,238,138.9,238.6,136.9z"/>
	<path d="M68.8,55.4c-4.6-0.9-4.6-0.9-4.6-5.1c0.2-9.2,0.3-18.4,0.6-27.6c0-0.7,0.5-1.4,0.4-2.1c-0.1-1.2-0.1-3-0.8-3.4
		c-3-1.6-2.1-4.3-1.6-7c0.6-3.1,1.4-6.1,2.5-9c0.5-1.6,2.1-1.7,2.6-0.4c1.4,3,2.4,6.2,3,9.4c0.5,2.8-1.1,5.6-3.3,7.6
		c-0.2,0.2-0.3,0.6,0,0.9c0,0,0,0,0,0c3,3.1,1.4,6.5,1.6,10.1c0.3,6.5,0.5,13.1,0.5,19.6C69.5,50.8,69.2,53.1,68.8,55.4z"/>
	<path d="M166.2,154.7h-2.1c-0.1-0.3-0.2-0.7-0.2-1c0-4.3,0-8.6,0-12.9c0-2.4-1-4.6-3.6-4.2c-2.8,0.4-5.7,2.4-8.6,2.3
		c-4.5-0.1-4.6,0.9-4.1,8.3c0.1,1.8-0.1,3.5-0.4,5.2c-0.1,0.5-1.2,1.1-1.9,1.2c-0.3,0.1-1.1-0.9-1.1-1.5c-0.2-1.3,0.5-2.8,0.3-4
		c0.1-2.1,0-4.1-0.5-6.1c0-0.2,0-0.7-0.1-1c-0.5-2.3-0.6-3.3,0.1-4.7c0.8-0.8,1.9-1.2,3-1c2.7,1.3,5,0.1,7.4-0.8
		c3.3-1.5,7.2-1.4,10.4,0.2c1.8,0.9,2.9,2.8,2.7,4.9C167.3,144.4,166.7,149.4,166.2,154.7z"/>
	<path d="M215.6,191.5c-0.3,5.7-0.7,11.6-1,17.5l-1.3,0.3c-0.4-0.9-1.1-1.7-1.2-2.6c-0.1-3.5,0-6.9-0.1-10.4c0-0.7,0.4-3.5-0.3-4.5
		s-2.3-0.2-3-0.2l-0.4-1.4c-0.7-1.9-0.7-1.9,0.2-2.9c0.3,0.3,3.7,1.8,3.8,1.4c0.8-2.6,0.2-7.2,0.5-10.6c1.9,0.1,2.6,0.8,2.5,2.5
		c-0.1,2.6,0,5.1,0,8.3c9.2,0,18.3,1.6,27.6-0.5c-2.1,1-4.3,2.7-6.5,2.8C229.6,191.7,222.7,191.5,215.6,191.5z"/>
	<path d="M183.6,137.6c-2.2,0.1-2.8,0.8-2.8,2.9c0.1,4.1,0,8.1,0,12.3h-2.5c-0.3-5-0.6-9.9-0.9-15h-5.4c-0.5-2.4-0.5-2.4,5.5-2.5
		c0-2.1-0.1-4.1,0-6.2c0.2-1.8,0.6-3.7,1.1-5.4c0.2-0.7,1.1-1.2,1.6-1.8c0.5,0.8,0.8,1.7,1,2.6c0,2.5-0.3,5-0.5,7.5s0.6,3.9,3.5,3.5
		c2.2-0.3,6.1-1,5.6,1.3"/>
	<path d="M214,223.5c0.8,0.6,0.9,1.9,0.9,2.8c0.1,10,0.1,20.1,0,30.1c0,1.4,0.3,3.2-1,4.4c-0.5,0.4-1.3,0.4-1.7-0.1
		c-0.2-0.2-0.2-0.4-0.3-0.6c-0.3-2.4-0.5-4.8-0.5-7.3c0-8.2,0.1-16.5,0.4-24.7c0-1.5-0.1-3.6,1.1-4.5
		C213.2,223.3,213.7,223.3,214,223.5z"/>
	<path d="M194.6,128.5c0-2.1,0-4.5,0.1-6.5c0.1-2.7,0.3-5.3,0.7-7.9c0.1-0.4,1.1-0.8,1.4-0.8c1.1,0,1.1,1.1,1.1,1.6
		c-0.1,11.2-0.2,22.5-0.6,33.7c0,1.5,0.4,4.4-1.9,4.3s-1.2-2.1-1.2-4.3c0-0.9,0.1-4.5,0-2.7"/>
	<path d="M205.5,192.4c-1.3,0-2.7,0.4-3.3-0.1c-2.7-2.2-5.4-2-8.5-0.8c-5.4,2.2-5.5,2-5.5,8.1v7.4l-3.3,1v-4.8c0-3.4,0.1-6.8,0-10.1
		c-0.1-1.9,1.5-2.9,2.5-2.1c3.3,2.3,5.4-0.5,7.8-1.4C198.4,188.5,203.6,189.4,205.5,192.4z"/>
	<path d="M248.4,261.5c-0.3-4.9-0.6-9.8-0.7-14.6c0-0.8,1-1.7,1.5-2.5c0.5,0.5,1.1,0.9,1.8,1.2c0.9,0.3,1.9,0.3,2.8,0.1
		c4.5-2.2,8.9-3,13.3,0c1.3,0.9,1.4,0.8,0.3,2.8c-1.3-0.8-2.6-1.6-3.9-2.4c-2.5-1.6-5.6-1.6-8.1-0.1c-4.5,2.5-5.8,6.3-4.4,12.3
		C251.7,261,251.3,261.5,248.4,261.5z"/>
	<path d="M53.1,36.7v19.9c-3-0.1-3.8-1.5-3.8-3.7c0.1-4.4,0-8.8,0-13.2C49.4,36.2,49.4,36.2,53.1,36.7z"/>
	<path d="M54.3,28.3c-0.6,2-0.7,3.6-1.5,4.6c-0.9,0.7-2.1,0.9-3.2,0.5c-1-0.6-1.6-1.6-1.7-2.7c0-2.7,0.2-5.4,0.5-8.1
		c0.1-0.6,0.8-1.5,1.2-1.5c0.8,0,1.5,0.3,2,0.9C52.6,24.2,53.5,26.4,54.3,28.3z"/>
	<path d="M272.5,262.3v-17.4h2.8c0,5.7,0.2,11.5,0,16.7c0,0.2-0.2,0.4-0.4,0.4c0,0,0,0,0,0C274.2,262.1,273.5,262.1,272.5,262.3z"/>
	<path d="M313.3,262.4c0.6-0.3,0.7-0.6-0.1-0.8c-5.3,0-14.1-1.1-20.6-1.1c-0.6,0-1-0.5-0.9-1.1c0-0.2,0.1-0.4,0.2-0.6
		c0.4-0.4,0.8-0.8,1.3-1.1c3-2.5,6.4-4.7,9.5-7.1c1.6-1.3,3-2.7,4.5-4.2c0.4-0.4,0.4-1,0-1.4c-0.1-0.1-0.3-0.2-0.4-0.2
		c-5.7-1.2-21.3-1.6-21.8,0.8c-0.3,1.1,11.2-0.1,15.5,0.1c0.6,0,1.1,0.6,1.1,1.2c0,0.3-0.2,0.6-0.4,0.8c-7.4,5.9-11.5,8.4-17.2,12.5
		c-0.4,0.4-0.5,1-0.1,1.4c0.2,0.2,0.4,0.3,0.7,0.3h7.1l1.3,0C299.5,262.5,308,264.3,313.3,262.4z"/>
	<path d="M272.6,227.9c2.6-0.1,2.7,0.1,3.1,4.4c-0.4,0.1-0.9,0.3-1.4,0.5s-1,0.3-1.7,0.4V227.9z"/>
</g>
<path d="M136.6,150.4c1.6,1.9-5.5,3.9-9,3.5c-4.3-0.4-8.6-0.8-11.6-4.6c-4-5-3.7-11.3,3-14.3c3.4-1.5,6.7-1.2,10.3-1.1
	c3.3,0,6.5,1.1,9.2,3c1.7,1.2,2.8,2.9,2.2,5c-0.5,2.1-2.5,3.5-4.7,3.2c-5.5-0.2-11-0.1-16.4-0.3c-1.6,0-2,1-1.3,1.9
	c1.2,1.6,2.7,3.4,4.4,4.1c3.6,1.5,5,1.8,9,1.1C134.7,151.6,136,149.7,136.6,150.4z M116.9,138.3c-1,1.3-1.3,4.4,2.9,4.9
	c4,0.5,7.9,0.1,11.8,0.6c1.8,0.2,3.6,0,5.3-0.6c0.5-0.1,0.9-2.1,0-3.3c-1.3-1.7-3.2-2.9-5.4-3.4c-2.7-0.5-5.5-0.8-8.3-0.7
	C120.1,135.8,118.6,136.2,116.9,138.3z"/>
<path d="M338.3,259.4c1.6,1.9-5.5,3.9-9,3.5c-4.3-0.4-8.6-0.8-11.6-4.6c-4-5-3.7-11.3,3-14.3c3.4-1.5,6.7-1.2,10.3-1.1
	c3.3,0,6.5,1.1,9.2,3c1.7,1.2,2.8,2.9,2.2,5c-0.5,2.1-2.5,3.5-4.7,3.2c-5.5-0.2-11-0.1-16.4-0.3c-1.6,0-2,1-1.3,1.9
	c1.2,1.6,2.6,3.4,4.4,4.1c3.6,1.5,5,1.8,9,1.1C336.5,260.6,337.8,258.7,338.3,259.4z M318.6,247.3c-1,1.3-1.3,4.4,2.9,4.9
	c4,0.5,7.9,0.1,11.8,0.6c1.8,0.2,3.6,0,5.3-0.6c0.5-0.1,0.9-2.1,0-3.3c-1.3-1.7-3.2-2.9-5.4-3.4c-2.7-0.5-5.5-0.8-8.3-0.7
	C321.9,244.8,320.4,245.2,318.6,247.3z"/>
<path d="M226.6,150.4c1.6,1.9-5.5,3.9-9,3.5c-4.3-0.4-8.6-0.8-11.6-4.6c-4-5-3.7-11.3,3-14.3c3.4-1.5,6.7-1.2,10.3-1.1
	c3.3,0,6.5,1.1,9.2,3c1.7,1.2,2.8,2.9,2.2,5c-0.5,2.1-2.5,3.5-4.7,3.2c-5.5-0.2-11-0.1-16.4-0.3c-1.6,0-2,1-1.3,1.9
	c1.2,1.6,2.6,3.4,4.4,4.1c3.6,1.5,5,1.8,9,1.1C224.7,151.6,226,149.7,226.6,150.4z M206.9,138.3c-1.1,1.3-1.3,4.4,2.9,4.9
	c4,0.5,7.9,0.1,11.8,0.6c1.8,0.2,3.6,0,5.3-0.6c0.5-0.1,0.9-2.1,0-3.3c-1.3-1.7-3.2-2.9-5.4-3.4c-2.7-0.5-5.5-0.8-8.3-0.7
	C210.1,135.8,208.6,136.2,206.9,138.3z"/>
</svg>
