<svg version="1.1" xmlns="http://www.w3.org/2000/svg" viewBox="0 0 770.3 532.3">
<style type="text/css">
	.st0{display:none;fill-rule:evenodd;clip-rule:evenodd;fill:#82D4F0;}
	.st1{display:none;fill-rule:evenodd;clip-rule:evenodd;fill:#23C0F5;}
	.st2{opacity:0.6899;fill:#82D4F0;enable-background:new    ;}
	.st3{display:none;}
	.st4{display:inline;}
	.st5{opacity:0.1183;fill:#000405;enable-background:new    ;}
	.st6{fill:#82D4F0;}
	.st7{fill:#323047;}
	.st8{fill:#68C8FD;}
	.st9{fill:url(#SVGID_1_);}
	.st10{fill:url(#SVGID_2_);}
	.st11{fill:url(#SVGID_3_);}
	.st12{fill:url(#SVGID_4_);}
	.st13{fill:url(#SVGID_5_);}
	.st14{fill:url(#SVGID_6_);}
	.st15{fill:url(#SVGID_7_);}
	.st16{fill:url(#SVGID_8_);}
	.st17{fill:url(#SVGID_9_);}
	.st18{fill:url(#SVGID_10_);}
	.st19{fill:url(#SVGID_11_);}
	.st20{fill:url(#SVGID_12_);}
	.st21{fill:url(#SVGID_13_);}
	.st22{fill:#25233A;}
	.st23{fill:#3F3D56;}
	.st24{fill:url(#SVGID_14_);}
	.st25{fill:url(#SVGID_15_);}
	.st26{opacity:0.3967;fill:#25233A;enable-background:new    ;}
	.st27{opacity:0.5972;fill:#25233A;enable-background:new    ;}
	.st28{fill-rule:evenodd;clip-rule:evenodd;fill:url(#SVGID_16_);}
	.st29{fill-rule:evenodd;clip-rule:evenodd;fill:url(#SVGID_17_);}
	.st30{fill-rule:evenodd;clip-rule:evenodd;fill:#FFD169;}
	.st31{fill-rule:evenodd;clip-rule:evenodd;fill:#FCC163;}
	.st32{fill-rule:evenodd;clip-rule:evenodd;fill:#F2B255;}
	.st33{fill-rule:evenodd;clip-rule:evenodd;fill:#FFE183;}
	.st34{fill-rule:evenodd;clip-rule:evenodd;fill:#F5C559;}
	.st35{fill-rule:evenodd;clip-rule:evenodd;fill:#D98BB0;}
	.st36{fill-rule:evenodd;clip-rule:evenodd;fill:url(#SVGID_18_);}
	.st37{fill-rule:evenodd;clip-rule:evenodd;fill:#DA8DB0;}
	.st38{fill-rule:evenodd;clip-rule:evenodd;fill:url(#SVGID_19_);}
</style>
<g>
	<g transform="translate(-839.000000, 0.000000)">
		<g transform="translate(356.000000, 0.000000)">
			<g transform="translate(483.000000, 0.000000)">
				<path class="st0" d="M859-225.8v884c-136.3-150.6-239.6-247.9-310-292c-196.7-123.1-402.1-157.7-509-240
					c-164.4-126.5-271.7-243.9-322-352L859-225.8L859-225.8z"/>
				<path class="st1" d="M859-225.8v860c-131-145.3-231.6-240-302-284c-196.7-123.1-402.1-157.7-509-240
					c-164.4-126.5-266.4-238.5-306-336L859-225.8L859-225.8z"/>
				<path class="st2" d="M131.3,60.2C107,65.4,81.7,71,62.1,86.4c-16.5,13-42.2,37-50,56.5c-33,82.4,4.3,182.6,76.7,233.9
					c34.1,24.1,76.5,35.8,107.1,64.2c19.4,18,32.9,41.7,53.5,58.2c30.1,24.1,70.7,29.4,109.2,32c26.7,1.8,54.5,2.6,79.3-7.6
					c17.9-7.3,33.1-19.9,48-32.3l98.7-82.4c15.9-13.2,30.7-34.3,51.3-34.2C821.8,376,834.3,157.3,549,60.4
					c-25.1-8.5-42.4-32.3-66-44.5c-48.8-25.1-104.9-17-154.2,0.4C266.5,38.4,196.1,46.4,131.3,60.2z"/>
			</g>
			<g transform="translate(856.000000, 134.000000)" class="st3">
				<g transform="translate(228.000000, 0.000000)" class="st4">
					<path class="st5" d="M44.1,279.1c7.8,0.1,17.8,2.1,19,9.8c0.6,4-1.6,7.9-4.1,11.1c-15.5,20.3-41.2,30.5-66.6,33.3
						s-50.9-1.1-76.2-4.2c-36.6-4.5-73.3-7.5-110.2-9c-26.2-1.1-53.8-1.7-76.4-15.1c-4.2-2.5-8.3-5.6-10.3-10
						c-4-8.8,2.3-19.6,11-23.9s18.9-3.9,28.6-3.3C-146.1,272.8-51.2,279.1,44.1,279.1z"/>
					<path class="st6" d="M44.4-72.4c0,0-33.8,43.8-40.3,51.1C-7.6-8-15.2,9.5-15.2,9.5l-17,72.3l-19-5.1l-41.3-11
						c0,0,14.7-39.5,7.6-51.5c-9.5-16-1.3-26,0.9-32.9c4-12.7-16.4-36-16.4-36l-13.1-58.6l19.8-2.6l14.3,47.5l24.6,21.9l17.5,0.9
						c0,0,13.2,2.7,22.8-1.7c9.2-4.2,41.6-40.8,41.6-40.8l13.2,12L44.4-72.4z"/>
					<path class="st7" d="M-13.4-106.1c2.4-1.9,5.5-2.9,8.6-2.7c2.3-0.1,4.5,0.7,6.2,2.1c1.3,1.5,2.2,3.3,2.4,5.3
						c0.5,2.5,0.7,5,0.6,7.5c-0.3,4.6-1.5,9.5,0.5,13.6c0.5,1,1.1,1.9,1.9,2.7c0.9,1,2.1,1.6,3.5,1.7c1.4,0.1,2.6-0.9,2.9-2.2
						c-1.2,2.6-3.3,4.6-5.9,5.6s-5.6,0.9-8.1-0.3c-0.8-0.4-1.6-0.9-2.3-1.4l1.7,3.5c-1.6-0.4-3-0.9-4.3-1.6c-4.3-2.3-6.6-7-7.8-11.7
						c-1-4.4-1.2-8.8-2.1-13.2C-16.3-100.6-16.2-103.7-13.4-106.1z"/>
					<path class="st8" d="M-27.7-101.3c0.9,0,1.7,0.1,2.5,0.4c1.4,0.6,2.3,1.9,2.4,3.4s-0.7,2.9-2.1,3.6c-0.9,0.3-1.8,0.5-2.7,0.5
						c-0.8,0-1.7,0-2.5-0.1c-0.5,0-1-0.3-1.2-0.8c-0.5-1.1-1-2.2-1.2-3.4C-33.1-101.6-30.6-101.3-27.7-101.3z"/>
					
						<linearGradient id="SVGID_1_" gradientUnits="userSpaceOnUse" x1="-2477.3101" y1="-79.2045" x2="-2476.3101" y2="-79.2045" gradientTransform="matrix(20.9968 0 0 36.4411 51963.6563 2838.2983)">
						<stop  offset="0" style="stop-color:#ECC4D7"/>
						<stop  offset="0.42" style="stop-color:#EFD4D1"/>
						<stop  offset="1" style="stop-color:#F2EAC9"/>
					</linearGradient>
					<path class="st9" d="M-31-66.2c0,0-0.2,2.9-0.4,6.6c-0.2,3.2-0.4,7-0.6,10.2c-0.3,5.4-2.6,10.5-6.5,14.2
						c-2.3,2.3-7.6,6.6-11.8,5.1c-2-0.7-2.1-3.3-1.6-4.8c0.9-2.8,1.4-5.6,1.5-8.5c0.1-2.3-0.1-4.7-0.6-7C-53.5-56.8-31-66.2-31-66.2
						z"/>
					
						<linearGradient id="SVGID_2_" gradientUnits="userSpaceOnUse" x1="-2473.4265" y1="-61.4949" x2="-2473.5935" y2="-63.6224" gradientTransform="matrix(20.0695 0 0 22.82 49621.2617 1661.4437)">
						<stop  offset="0" style="stop-color:#ECC4D7"/>
						<stop  offset="0.42" style="stop-color:#EFD4D1"/>
						<stop  offset="1" style="stop-color:#F2EAC9"/>
					</linearGradient>
					<path class="st10" d="M-31-66.2c0,0-0.2,2.9-0.4,6.6c-1.6,3.5-3.1,6.4-3.9,7.8c-1.6,2.9-8.3,7.4-15,8.3c0.1-2.3-0.1-4.7-0.6-7
						C-53.5-56.8-31-66.2-31-66.2z"/>
					
						<linearGradient id="SVGID_3_" gradientUnits="userSpaceOnUse" x1="-2503.5479" y1="-81.4814" x2="-2502.5479" y2="-81.4814" gradientTransform="matrix(44.5173 0 0 55.2182 111380.8047 4422.3486)">
						<stop  offset="0" style="stop-color:#ECD0C4"/>
						<stop  offset="0.42" style="stop-color:#EFD4D1"/>
						<stop  offset="1" style="stop-color:#F2EAC9"/>
					</linearGradient>
					<path class="st11" d="M-50.6-104.5c-11.8,0.7-20.8,10.9-20.1,22.8c0,0.5,0.1,1,0.2,1.5c0.7,8.7,2.9,17.3,6.6,25.2
						c7,12,24.7,2.1,27.6-2.8s13.6-27.2,9.1-33.5C-30.5-95.6-39.1-104.9-50.6-104.5z"/>
					<path class="st7" d="M-56.9-116.7c7.5-2.2,15.6-2,22.9,0.7c7.3,2.8,13.5,8.4,16.3,15.7c2.4,6.7,2.2,14.1-0.6,20.7
						c-2.8,6.5-7.3,12.2-13,16.4c-1.5-4.5,3.1-8.5,4.8-12.9c0.4-0.8,0.5-1.7,0.3-2.6c-0.6-1.6-3.1-1.8-4.5-0.8
						c-1.4,1.1-2,2.8-2.5,4.5c1.4-7.1,2.4-15.5-2.7-20.8c-3-3.1-7.5-4.3-11.9-4.3c-8,0-15.7,3.3-21.2,9.1c-1.6,1.7-3.8,3.8-5.9,2.6
						c-0.6-0.4-1.1-1-1.4-1.7C-82.2-101.8-66.5-114-56.9-116.7z"/>
					<path class="st7" d="M40.8-103.5c-5-2.2-10.3-4-15.7-4s-11.1,1.8-14.6,5.9c-1.9,2.3-3.2,4.9-4,7.8c-0.6,1.8-0.9,3.7-0.7,5.6
						c0.2,1.4,0.6,2.7,1,4c0.9,3.2,1.3,7-0.7,9.7c-0.8,1.1-2,1.8-3.3,1.9c-1.4,0-2.5-1-2.7-2.3c-0.9,2.5,0.6,5.4,2.8,6.7
						c2.4,1.2,5.2,1.3,7.7,0.4c1-0.3,2-0.9,2.8-1.6c0.8-0.8,1.5-1.7,2-2.8c2.1-3.8,3.1-8,4.7-12.1s3.8-8,7.5-10.3
						c2.9-1.6,6.2-2.4,9.5-2.4c3.3-0.1,6.6,0.2,9.9-0.1c3.3-0.3,0.9-2.3-0.5-3.3C44.7-101.6,42.8-102.6,40.8-103.5L40.8-103.5z"/>
					
						<linearGradient id="SVGID_4_" gradientUnits="userSpaceOnUse" x1="-2509.4604" y1="-82.6513" x2="-2508.4604" y2="-82.6513" gradientTransform="matrix(59.5374 0 0 75.1333 149436.2188 6096.2642)">
						<stop  offset="0" style="stop-color:#ECC4D7"/>
						<stop  offset="0.42" style="stop-color:#EFD4D1"/>
						<stop  offset="1" style="stop-color:#F2EAC9"/>
					</linearGradient>
					<path class="st12" d="M87.1-139.3c0.9,0.7-7.1,6.9-7.1,6.9s-3.7,6.4-7.5,8.2c-3.8,1.8-32.2,48.1-32.2,48.1L29.1-86.3l24.2-32.5
						c0,0,8-15.3,7.1-22c0,0,0.5-7.9,2.9-4.2c1.7,2.6,0.6,6.7,2.6,7.2c0.2,0,0.4,0,0.6-0.1c1.7-1,3.2-2.2,4.6-3.6
						c4-3.8,8.8-9.1,8.8-9.1s2.6-1.1,2.3,0c-0.3,1.1-5.1,8.6-5.4,9c0.4-0.4,7.8-7,9-6.5s-5.7,8.1-6.1,8.5c0.4-0.3,8.3-5.8,8.9-5.3
						c1.1,0.9-6,7.1-6.6,7.6C82.4-137.7,86.3-140,87.1-139.3z"/>
					
						<linearGradient id="SVGID_5_" gradientUnits="userSpaceOnUse" x1="-2450.522" y1="-33.8244" x2="-2450.9851" y2="-31.7768" gradientTransform="matrix(12.9967 0 0 7.4 31906.0391 253.7119)">
						<stop  offset="0" style="stop-color:#ECC4D7"/>
						<stop  offset="0.42" style="stop-color:#EFD4D1"/>
						<stop  offset="1" style="stop-color:#F2EAC9"/>
					</linearGradient>
					<path class="st13" d="M118.7-134.6c-0.6,0.2-1.2,0.2-1.9,0.2c-2-0.2-4-0.2-6.1-0.1c-1.4,0.1-4.2,1-4.2-1.1
						c0-0.6,0.1-1.1,0.1-1.7c0-0.2,0-0.5-0.1-0.7c1.7-1,3.2-2.2,4.5-3.6c0.6,0.2,1.2,0.5,1.7,0.9l3.9,2.6c0.7,0.5,1.4,0.9,2.1,1.4
						c0.3,0.2,0.5,0.5,0.7,0.8C119.6-135.4,119.3-134.8,118.7-134.6L118.7-134.6z"/>
					
						<linearGradient id="SVGID_6_" gradientUnits="userSpaceOnUse" x1="-2450.5227" y1="-33.8246" x2="-2450.9858" y2="-31.777" gradientTransform="matrix(12.9967 0 0 7.4 31773.0195 189.7158)">
						<stop  offset="0" style="stop-color:#ECC4D7"/>
						<stop  offset="0.42" style="stop-color:#EFD4D1"/>
						<stop  offset="1" style="stop-color:#F2EAC9"/>
					</linearGradient>
					<path class="st14" d="M-14.3-198.6c-0.6,0.2-1.2,0.2-1.9,0.1c-2-0.2-4-0.2-6.1-0.1c-1.4,0.1-4.2,1-4.2-1.1
						c0-0.6,0.1-1.1,0.1-1.7c0-0.2,0-0.5-0.1-0.7c1.7-1,3.2-2.2,4.5-3.6c0.6,0.2,1.2,0.5,1.7,0.9l3.9,2.5c0.7,0.5,1.4,0.9,2.1,1.4
						c0.3,0.2,0.5,0.5,0.7,0.8C-13.4-199.4-13.7-198.8-14.3-198.6L-14.3-198.6z"/>
					
						<linearGradient id="SVGID_7_" gradientUnits="userSpaceOnUse" x1="-2450.5232" y1="-33.8247" x2="-2450.9866" y2="-31.7771" gradientTransform="matrix(12.9967 0 0 7.4 31752.5391 224.5644)">
						<stop  offset="0" style="stop-color:#ECC4D7"/>
						<stop  offset="0.42" style="stop-color:#EFD4D1"/>
						<stop  offset="1" style="stop-color:#F2EAC9"/>
					</linearGradient>
					<path class="st15" d="M-34.9-163.7c-0.6,0.2-1.2,0.2-1.8,0.2c-2-0.2-4-0.2-6.1-0.1c-1.4,0.1-4.2,1-4.2-1.1
						c0-0.6,0.1-1.1,0.1-1.7c0-0.2,0-0.5-0.1-0.7c1.7-1,3.2-2.2,4.6-3.6c0.6,0.2,1.2,0.5,1.7,0.9l3.9,2.5c0.7,0.5,1.4,0.9,2.1,1.4
						c0.3,0.2,0.5,0.5,0.7,0.8C-33.9-164.6-34.3-163.9-34.9-163.7L-34.9-163.7z"/>
					
						<linearGradient id="SVGID_8_" gradientUnits="userSpaceOnUse" x1="-2456.1724" y1="-5.239" x2="-2456.6355" y2="-3.1913" gradientTransform="matrix(12.7127 -2.7022 1.5386 7.2383 31255.1191 -6640.3613)">
						<stop  offset="0" style="stop-color:#ECC4D7"/>
						<stop  offset="0.42" style="stop-color:#EFD4D1"/>
						<stop  offset="1" style="stop-color:#F2EAC9"/>
					</linearGradient>
					<path class="st16" d="M53.7-189c-0.5,0.3-1.2,0.5-1.8,0.5c-2,0.3-4,0.7-5.9,1.2c-1.3,0.3-3.9,1.8-4.4-0.2
						c-0.1-0.5-0.1-1.1-0.2-1.7c-0.1-0.2-0.1-0.5-0.2-0.7c1.4-1.3,2.7-2.9,3.7-4.5c0.6,0.1,1.3,0.2,1.9,0.5l4.4,1.7
						c0.8,0.3,1.6,0.6,2.3,1c0.3,0.1,0.6,0.3,0.8,0.6C54.5-190,54.3-189.3,53.7-189L53.7-189z"/>
					
						<linearGradient id="SVGID_9_" gradientUnits="userSpaceOnUse" x1="-2485.0596" y1="-82.8542" x2="-2485.2361" y2="-83.2245" gradientTransform="matrix(25.283 0 0 85.0627 62729.9609 6906.5771)">
						<stop  offset="0" style="stop-color:#ECC4D7"/>
						<stop  offset="0.42" style="stop-color:#EFD4D1"/>
						<stop  offset="1" style="stop-color:#F2EAC9"/>
					</linearGradient>
					<path class="st17" d="M-116.6-191.4c-1.1,0.1,2.4,9.6,2.4,9.6s-0.2,7.4,2,10.9s2,57.1,2,57.1l14.9-2l-3.4-40.4
						c0,0,1.3-17.2,5.6-22.4c0,0,3.7-6.9-0.2-5.1c-2.8,1.3-4.1,5.4-6,4.7c-0.2-0.1-0.4-0.3-0.5-0.5c-0.9-1.7-1.6-3.6-2-5.5
						c-1.4-5.3-2.6-12.4-2.6-12.4s-1.6-2.3-1.9-1.2s-0.2,10-0.2,10.5c-0.2-0.6-3-10.1-4.3-10.3c-1.3-0.2,0.6,9.9,0.7,10.5
						c-0.2-0.5-4-9.3-4.8-9.2c-1.4,0.2,1.4,9.2,1.6,9.9C-113.5-187.5-115.6-191.5-116.6-191.4z"/>
					
						<linearGradient id="SVGID_10_" gradientUnits="userSpaceOnUse" x1="-2443.6558" y1="-56.0975" x2="-2441.2634" y2="-58.0593" gradientTransform="matrix(12.471 0 0 8.3637 30398.7969 253.4916)">
						<stop  offset="0" style="stop-color:#ECC4D7"/>
						<stop  offset="0.42" style="stop-color:#EFD4D1"/>
						<stop  offset="1" style="stop-color:#F2EAC9"/>
					</linearGradient>
					<path class="st18" d="M-72-222.9c0.4,0.5,0.9,0.9,1.5,1.1c1.8,0.9,3.5,2,5.2,3.1c1.1,0.8,3,3.1,4.2,1.3c0.3-0.5,0.5-1,0.8-1.5
						c0.1-0.2,0.3-0.4,0.5-0.6c-0.9-1.7-1.6-3.6-2-5.5c-0.6-0.1-1.3-0.2-1.9-0.2l-4.7,0.1c-0.8,0-1.7,0-2.5,0.1
						c-0.4,0-0.7,0.1-1,0.3C-72.4-224.1-72.4-223.4-72-222.9L-72-222.9z"/>
					
						<linearGradient id="SVGID_11_" gradientUnits="userSpaceOnUse" x1="-2477.0007" y1="18.5682" x2="-2474.6084" y2="16.6063" gradientTransform="matrix(9.412 -8.1817 5.4871 6.3121 23098.5586 -20585.6758)">
						<stop  offset="0" style="stop-color:#ECC4D7"/>
						<stop  offset="0.42" style="stop-color:#EFD4D1"/>
						<stop  offset="1" style="stop-color:#F2EAC9"/>
					</linearGradient>
					<path class="st19" d="M-114.8-210.5c0.6,0.1,1.3,0,1.9-0.2c2-0.5,4-0.8,6-1.1c1.4-0.2,4.3,0.3,4-1.8c-0.1-0.6-0.3-1.1-0.4-1.6
						c0-0.2,0-0.5,0-0.7c-1.8-0.7-3.5-1.7-5.1-2.8c-0.6,0.3-1.1,0.7-1.6,1.1l-3.5,3.1c-0.6,0.5-1.3,1.1-1.8,1.7
						c-0.3,0.2-0.5,0.5-0.6,0.9C-115.9-211.2-115.5-210.6-114.8-210.5L-114.8-210.5z"/>
					
						<linearGradient id="SVGID_12_" gradientUnits="userSpaceOnUse" x1="-2459.7629" y1="-6.1313" x2="-2457.3706" y2="-8.093" gradientTransform="matrix(11.3026 -5.2705 3.5346 7.5801 27936.4473 -13089.6484)">
						<stop  offset="0" style="stop-color:#ECC4D7"/>
						<stop  offset="0.42" style="stop-color:#EFD4D1"/>
						<stop  offset="1" style="stop-color:#F2EAC9"/>
					</linearGradient>
					<path class="st20" d="M113.7-180.2c0.6,0.3,1.2,0.4,1.8,0.3c2,0.1,4,0.3,6,0.6c1.3,0.2,4,1.5,4.3-0.6c0.1-0.6,0-1.1,0.1-1.7
						c0-0.2,0.1-0.5,0.2-0.7c-1.6-1.2-2.9-2.6-4.1-4.1c-0.6,0.1-1.2,0.4-1.8,0.7l-4.2,2.1c-0.8,0.3-1.5,0.7-2.2,1.2
						c-0.3,0.1-0.6,0.4-0.8,0.7C112.9-181.1,113.1-180.5,113.7-180.2L113.7-180.2z"/>
					
						<linearGradient id="SVGID_13_" gradientUnits="userSpaceOnUse" x1="-2443.6558" y1="-56.0976" x2="-2441.2634" y2="-58.0593" gradientTransform="matrix(12.471 0 0 8.3637 30544.7969 269.4926)">
						<stop  offset="0" style="stop-color:#ECC4D7"/>
						<stop  offset="0.42" style="stop-color:#EFD4D1"/>
						<stop  offset="1" style="stop-color:#F2EAC9"/>
					</linearGradient>
					<path class="st21" d="M74-206.9c0.4,0.5,0.9,0.9,1.5,1.1c1.8,0.9,3.5,2,5.2,3.1c1.1,0.8,3,3.1,4.2,1.3c0.3-0.5,0.5-1,0.8-1.5
						c0.1-0.2,0.3-0.4,0.5-0.6c-0.9-1.7-1.6-3.6-2-5.5c-0.6-0.1-1.3-0.2-1.9-0.2l-4.7,0.1c-0.8,0-1.7,0-2.5,0.1
						c-0.4,0-0.7,0.1-1,0.3C73.6-208.1,73.6-207.4,74-206.9L74-206.9z"/>
					<path class="st22" d="M-169.3,280.4c-4,8.2-6.9,14.5-6.9,14.5l-50.3,2.4c0,0,8.3-22.1,21.9-16.4c4.6,1.9,21.2-1.7,21.2-1.7
						l0.5-1.7L-169.3,280.4z"/>
					<path class="st23" d="M9,282.9l-7.7,4.3l-66-69.4l-7.3-92.6l-60.2,54.6c0,0,1.6,37.6-19.4,67c-3.8,5.3-11.4,20.6-17.2,32.5
						c-0.2,0.4-0.4,0.8-0.5,1.1l-1.1-0.2l-3.9-0.8l-8.5-1.8l27.7-111.8l62.9-100.1l41.3,11l19,5.1c0,0,12.8,25.7,0,92.2l-8.5,38.1
						c0,0,34.3,18.3,44.8,54.4L9,282.9L9,282.9z"/>
					
						<linearGradient id="SVGID_14_" gradientUnits="userSpaceOnUse" x1="-2501.0784" y1="-79.6418" x2="-2500.8013" y2="-79.8862" gradientTransform="matrix(45.88 0 0 28.91 114866.0625 2536.7053)">
						<stop  offset="0" style="stop-color:#25233A"/>
						<stop  offset="1.000000e-02" style="stop-color:#67DDF9"/>
						<stop  offset="0.12" style="stop-color:#5CB3CE"/>
						<stop  offset="0.24" style="stop-color:#538EA9"/>
						<stop  offset="0.37" style="stop-color:#4C718B"/>
						<stop  offset="0.5" style="stop-color:#465A73"/>
						<stop  offset="0.63" style="stop-color:#424A63"/>
						<stop  offset="0.79" style="stop-color:#404059"/>
						<stop  offset="1" style="stop-color:#3F3D56"/>
					</linearGradient>
					<path class="st24" d="M9,282.9l7.8,8.2L-3,311.8h-26c0,0,5.5-9.2,16.6-10.6c11.1-1.5,13.7-14,13.7-14L9,282.9z"/>
					
						<linearGradient id="SVGID_15_" gradientUnits="userSpaceOnUse" x1="-2515.719" y1="-84.9243" x2="-2515.1711" y2="-82.9203" gradientTransform="matrix(95.51 0 0 157.92 240258.1719 13324.1084)">
						<stop  offset="0" style="stop-color:#000000;stop-opacity:0"/>
						<stop  offset="0.91" style="stop-color:#000000;stop-opacity:0.8"/>
						<stop  offset="1" style="stop-color:#000000"/>
					</linearGradient>
					<path class="st25" d="M44.4-72.4c0,0-33.8,43.8-40.3,51.1C-7.6-8-15.2,9.5-15.2,9.5l-17,72.3l-19-5.1c0,0,17.7-66.3,24.9-80.4
						s66.6-72.4,66.6-72.4L44.4-72.4z"/>
					<path class="st26" d="M9,282.9c-0.4-1-11.6-32.4-28.6-45.5c-17.2-13.4-27.2-31.8-27.2-31.8c-4-35.4-4.3-128.8-4.3-128.8l19,5.1
						c0,0,12.8,25.7,0,92.2l-8.5,38.1c0,0,34.3,18.3,44.8,54.4L9,282.9z"/>
					<path class="st27" d="M-132.1,179.8c0,0,1.6,37.6-19.4,67c-3.8,5.3-11.4,20.6-17.2,32.5l-1.7,0.9l-3.9-0.8l0,0l32.6-102.9
						c0,0,39.5-46.8,46.8-51.3c7.3-4.5,23.1,0,23.1,0L-132.1,179.8z"/>
				</g>
				<g transform="translate(0.000000, 72.000000)" class="st4">
					
						<linearGradient id="SVGID_16_" gradientUnits="userSpaceOnUse" x1="-2025.1335" y1="-84.697" x2="-2025.1335" y2="-83.6072" gradientTransform="matrix(23 0 0 165 46340.6523 13888.1377)">
						<stop  offset="0" style="stop-color:#D988AE"/>
						<stop  offset="0.42" style="stop-color:#EFD4D1"/>
						<stop  offset="1" style="stop-color:#F2EAC9"/>
					</linearGradient>
					<path class="st28" d="M-237.3-121.9c0,0,10.8,64.7,11.3,76.3s-8.3,63.1-2.8,86.5c0,0-17.7-6.6-20.1,0.4c0,0,9.7-70.8,13-82.5
						s-4.2-82.5-4.2-82.5L-237.3-121.9z"/>
					
						<linearGradient id="SVGID_17_" gradientUnits="userSpaceOnUse" x1="-2020.8181" y1="-84.697" x2="-2020.8181" y2="-83.6072" gradientTransform="matrix(21 0 0 165 42483.6875 13886.1377)">
						<stop  offset="0" style="stop-color:#D988AE"/>
						<stop  offset="0.42" style="stop-color:#EFD4D1"/>
						<stop  offset="1" style="stop-color:#F2EAC9"/>
					</linearGradient>
					<path class="st29" d="M46.9-123.9c0,0-10.4,64.6-10.9,76.2s7.4,63.2,2.2,86.5c0,0,16.5-6.5,18.8,0.5c0,0-8.7-70.8-11.7-82.5
						s4.3-82.5,4.3-82.5L46.9-123.9z"/>
					<path class="st30" d="M-154,16.2c-61.4-0.6-86.5-42.9-96.7-63.5c-17.3-35-7.6-128.9,70.6-66.8l-3,3
						c-68.3-54.2-71.7,33.6-58.9,59.3c12.9,26,40.9,47.4,85.6,47.9L-154,16.2z"/>
					<path class="st31" d="M-235.1-40.3c-6.1-2.4-11.7-5.6-16.9-9.5c0.4,1,0.8,1.9,1.3,2.8c10.3,20.5,35.6,62.6,97.7,63.2l-2.4-20
						C-194-4.2-220.2-19.7-235.1-40.3"/>
					<path class="st30" d="M-33,16.2c61.4-0.6,86.5-42.9,96.7-63.5c17.3-35,7.6-128.9-70.6-66.8l3,3C64.4-165.3,67.8-77.4,55-51.7
						C42.1-25.7,14.1-4.3-30.6-3.8L-33,16.2z"/>
					<path class="st31" d="M59.8-60.2c-0.9,3.8-2.1,7.3-3.5,10C43.2-24,14.8-2.5-30.6-2L-33,18.2c62.3-0.7,87.8-43.2,98.1-64
						c2.6-5.2,4.6-11.8,5.9-19C67.5-62.9,63.7-61.4,59.8-60.2"/>
					<path class="st32" d="M-174.8-12.8l17.8,43C-189.2,25.3-174.8-12.8-174.8-12.8"/>
					<path class="st32" d="M-9.5-12.8l-13.5,43C1.5,25.3-9.5-12.8-9.5-12.8"/>
					<path class="st31" d="M0-83.8l3.1-47C14-129.2,17-124.9,17-118.2C17.1-103.5,0-83.8,0-83.8"/>
					<path class="st31" d="M-185-83.8l-4.2-47c-10.2,1.6-12.9,5.9-12.8,12.6C-201.7-103.6-185-83.8-185-83.8"/>
					<polygon class="st31" points="-106,119.9 -90.2,145.2 -75,117.6 -92.9,82.2 					"/>
					<polygon class="st30" points="-101,119.9 -91.3,145.2 -82,117.6 -93,82.2 					"/>
					<path class="st32" d="M-92.5,107.5c5.2,0,9.9,1,13.5,2.7l-14.5-28L-103,109C-99.9,108.1-96.4,107.5-92.5,107.5"/>
					<path class="st32" d="M-92,129.9c-3.2,0-6.2-0.3-9-0.9l10.9,16.2l10.1-17C-83.5,129.3-87.6,129.9-92,129.9"/>
					<g transform="translate(174.000000, 0.000000)">
					</g>
					<polygon class="st33" points="-61.5,-177.8 -124.5,-177.8 -178,-134.8 -8,-134.8 					"/>
					<polygon class="st31" points="-66,-177.8 -120,-177.8 -166,-134.8 -20,-134.8 					"/>
					<polygon class="st30" points="-68.7,-177.8 -114.3,-177.8 -153,-134.8 -30,-134.8 					"/>
					<polygon class="st31" points="-119,-176 -103.7,-189.8 -80.9,-189.8 -65,-175.8 					"/>
					<polygon class="st33" points="-84.6,-177.8 -99.4,-177.8 -112,-134.8 -72,-134.8 					"/>
					<path class="st30" d="M-126.7,181.2h75c0,0,8.9-47-38.7-47C-133.1,134.2-126.7,181.2-126.7,181.2"/>
					<path class="st32" d="M-88.8,165.6c-14.1,0-26.8-2.9-35.9-7.4c-3.6,11.6-2,23-2,23h75c0,0,2.1-11.4-1.4-22.9
						C-62.1,162.8-74.8,165.6-88.8,165.6"/>
					<path class="st31" d="M-192-137.1c44.6-12.6,168.9-10.5,198,0C1.6-14.4-37.2,96.8-93,101.2C-145.6,90.9-191.5-6.2-192-137.1"/>
					<path class="st30" d="M-169-131.4c34.5-12.2,130.5-10.1,153,0C-19.4-13.2-49.4,93.9-92.5,98.2C-133.2,88.3-168.6-5.3-169-131.4
						"/>
					<path class="st32" d="M5.8-131.6c0.1-1.6,0.2-3.2,0.2-4.8c-29.1-10.2-153.4-12.3-198,0c0,1.9,0.1,3.7,0.1,5.5
						C-145-141.9-32.1-140.5,5.8-131.6"/>
					<path class="st34" d="M-93,82.1c-49.9-9.7-93.7-97.3-98.5-217.7c-0.2,0.1-0.3,0.1-0.5,0.2c0.5,130.5,43.1,230.3,99,240.6
						c59.4-4.4,94.6-118.3,99-240.6c-0.3-0.1-0.7-0.3-1-0.4C-2.6-21.5-40.1,78-93,82.1"/>
					<path class="st30" d="M-42,183.2c0-5-3.8-9-8.5-9h-77c-4.7,0-8.5,4-8.5,9H-42z"/>
					<path class="st31" d="M-129,75.5c7.6,8,40.2,52.2,78-1.3C-80.5,97-101.6,94.9-129,75.5"/>
					<path class="st32" d="M-186-136.8c0-2.8-2-5-4.5-5s-4.5,2.2-4.5,5c0,2.8,2,5,4.5,5S-186-134-186-136.8"/>
					<path class="st32" d="M10-136.8c0-2.8-2-5-4.5-5s-4.5,2.2-4.5,5c0,2.8,2,5,4.5,5S10-134,10-136.8"/>
					<path class="st32" d="M-11-141.8c0-2.8-2-5-4.5-5s-4.5,2.2-4.5,5c0,2.8,2,5,4.5,5S-11-139-11-141.8"/>
					<path class="st32" d="M-165-141.8c0-2.8-2-5-4.5-5s-4.5,2.2-4.5,5c0,2.8,2,5,4.5,5S-165-139-165-141.8"/>
					<path class="st32" d="M-134-146.8c0-2.8-2-5-4.5-5s-4.5,2.2-4.5,5c0,2.8,2,5,4.5,5S-134-144-134-146.8"/>
					<path class="st32" d="M-103-146.8c0-2.8-2-5-4.5-5s-4.5,2.2-4.5,5c0,2.8,2,5,4.5,5S-103-144-103-146.8"/>
					<path class="st32" d="M-68-146.8c0-2.8-2-5-4.5-5s-4.5,2.2-4.5,5c0,2.8,2,5,4.5,5S-68-144-68-146.8"/>
					<path class="st32" d="M-40-144.8c0-2.8-2-5-4.5-5s-4.5,2.2-4.5,5c0,2.8,2,5,4.5,5S-40-142-40-144.8"/>
					<polygon class="st32" points="-131,-172.8 -55,-172.8 -55,-177.8 -131,-177.8 					"/>
					<path class="st30" d="M-53.1-174.8H-131c-1.8-1-2.5-2.8-1.8-4.3c0.7-1.6,2.7-2.7,5-2.7h71.5c2.3,0,4.2,1.1,5,2.7
						C-50.6-177.6-51.3-175.8-53.1-174.8"/>
					<path class="st33" d="M-55-177.3h-74c-1.7-0.3-2.4-0.8-1.7-1.3s2.6-0.8,4.7-0.8h68c2.1,0,4,0.3,4.7,0.8S-53.3-177.6-55-177.3"
						/>
					<polygon class="st35" points="46,-124 52,-131.8 55,-128.9 51.7,-115.8 					"/>
					
						<linearGradient id="SVGID_18_" gradientUnits="userSpaceOnUse" x1="-2045.652" y1="-84.7621" x2="-2045.652" y2="-83.4484" gradientTransform="matrix(42 0 0 149 85986.3906 12499.7461)">
						<stop  offset="0" style="stop-color:#D988AE"/>
						<stop  offset="0.42" style="stop-color:#EFD4D1"/>
						<stop  offset="1" style="stop-color:#F2EAC9"/>
					</linearGradient>
					<path class="st36" d="M50-127.4c0,0-3.6,50.6-1.2,61.9c2.4,11.4,16.8,60.4,15.6,83.9c0,0,20.4-5.7,25.6,0.8
						c0,0-18.8-70.9-26.4-81.8s-10.4-67.2-10.4-67.2L50-127.4z"/>
					<polygon class="st37" points="-234,-123.1 -240.4,-129.8 -244,-126.9 -240.4,-116.8 					"/>
					
						<linearGradient id="SVGID_19_" gradientUnits="userSpaceOnUse" x1="-2047.3049" y1="-84.7628" x2="-2047.3049" y2="-83.4491" gradientTransform="matrix(45 0 0 149 91869.3125 12501.7461)">
						<stop  offset="0" style="stop-color:#D988AE"/>
						<stop  offset="0.42" style="stop-color:#EFD4D1"/>
						<stop  offset="1" style="stop-color:#F2EAC9"/>
					</linearGradient>
					<path class="st38" d="M-238.9-125.4c0,0,3.6,50.7,1,62S-256-3.1-254.8,20.4c0,0-21.6-5.8-27.1,0.7c0,0,20.3-70.8,28.4-81.8
						c8.1-10.9,11.4-67.2,11.4-67.2L-238.9-125.4z"/>
				</g>
			</g>
		</g>
	</g>
</g>
</svg>
