<?xml version="1.0" encoding="utf-8"?>
<!-- Generator: Adobe Illustrator 24.0.0, SVG Export Plug-In . SVG Version: 6.00 Build 0)  -->
<svg version="1.1" id="Layer_1" xmlns="http://www.w3.org/2000/svg" xmlns:xlink="http://www.w3.org/1999/xlink" x="0px" y="0px"
	 viewBox="0 0 770.4 623.3" style="enable-background:new 0 0 770.4 623.3;" xml:space="preserve">
<style type="text/css">
	.st0{display:none;fill-rule:evenodd;clip-rule:evenodd;fill:#82D4F0;}
	.st1{display:none;fill-rule:evenodd;clip-rule:evenodd;fill:#23C0F5;}
	.st2{opacity:0.6899;fill:#82D4F0;enable-background:new    ;}
	.st3{opacity:0.1183;fill:#000405;enable-background:new    ;}
	.st4{fill:#82D4F0;}
	.st5{fill:#323047;}
	.st6{fill:#68C8FD;}
	.st7{fill:url(#SVGID_1_);}
	.st8{fill:url(#SVGID_2_);}
	.st9{fill:url(#SVGID_3_);}
	.st10{fill:url(#SVGID_4_);}
	.st11{fill:url(#SVGID_5_);}
	.st12{fill:url(#SVGID_6_);}
	.st13{fill:url(#SVGID_7_);}
	.st14{fill:url(#SVGID_8_);}
	.st15{fill:url(#SVGID_9_);}
	.st16{fill:url(#SVGID_10_);}
	.st17{fill:url(#SVGID_11_);}
	.st18{fill:url(#SVGID_12_);}
	.st19{fill:url(#SVGID_13_);}
	.st20{fill:#25233A;}
	.st21{fill:#3F3D56;}
	.st22{fill:url(#SVGID_14_);}
	.st23{fill:url(#SVGID_15_);}
	.st24{opacity:0.3967;fill:#25233A;enable-background:new    ;}
	.st25{opacity:0.5972;fill:#25233A;enable-background:new    ;}
	.st26{fill-rule:evenodd;clip-rule:evenodd;fill:url(#SVGID_16_);}
	.st27{fill-rule:evenodd;clip-rule:evenodd;fill:url(#SVGID_17_);}
	.st28{fill-rule:evenodd;clip-rule:evenodd;fill:#FFD169;}
	.st29{fill-rule:evenodd;clip-rule:evenodd;fill:#FCC163;}
	.st30{fill-rule:evenodd;clip-rule:evenodd;fill:#F2B255;}
	.st31{fill-rule:evenodd;clip-rule:evenodd;fill:#FFE183;}
	.st32{fill-rule:evenodd;clip-rule:evenodd;fill:#F5C559;}
	.st33{fill-rule:evenodd;clip-rule:evenodd;fill:#D98BB0;}
	.st34{fill-rule:evenodd;clip-rule:evenodd;fill:url(#SVGID_18_);}
	.st35{fill-rule:evenodd;clip-rule:evenodd;fill:#DA8DB0;}
	.st36{fill-rule:evenodd;clip-rule:evenodd;fill:url(#SVGID_19_);}
</style>
<g>
	<g transform="translate(-839.000000, 0.000000)">
		<g transform="translate(356.000000, 0.000000)">
			<g transform="translate(483.000000, 0.000000)">
				<path class="st0" d="M859-134.7v884c-136.3-150.6-239.6-247.9-310-292c-196.7-123.1-402.1-157.7-509-240
					c-164.4-126.5-271.7-243.9-322-352H859z"/>
				<path class="st1" d="M859-134.7v860C728,580,627.4,485.3,557,441.3c-196.7-123.1-402.1-157.7-509-240
					c-164.4-126.5-266.4-238.5-306-336H859z"/>
				<path class="st2" d="M131.3,151.3c-24.3,5.2-49.6,10.8-69.2,26.2c-16.5,13-42.2,37-50,56.5c-33,82.4,4.3,182.6,76.7,233.9
					c34.1,24.1,76.5,35.8,107.1,64.2c19.4,18,32.9,41.7,53.5,58.2c30.1,24.1,70.7,29.4,109.2,32c26.7,1.8,54.5,2.6,79.3-7.6
					c17.9-7.3,33.1-19.9,48-32.3l98.7-82.4c15.9-13.2,30.7-34.3,51.3-34.2c185.9,1.3,198.4-217.4-86.9-314.3
					c-25.1-8.5-42.4-32.3-66-44.5c-48.8-25.1-104.9-17-154.2,0.4C266.5,129.5,196.1,137.5,131.3,151.3z"/>
			</g>
			<g transform="translate(856.000000, 134.000000)">
				<g transform="translate(228.000000, 0.000000)">
					<path class="st3" d="M44.1,370.2c7.8,0.1,17.8,2.1,19,9.8c0.6,4-1.6,7.9-4.1,11.1c-15.5,20.3-41.2,30.5-66.6,33.3
						s-50.9-1.1-76.2-4.2c-36.6-4.5-73.3-7.5-110.2-9c-26.2-1.1-53.8-1.7-76.4-15.1c-4.2-2.5-8.3-5.6-10.3-10
						c-4-8.8,2.3-19.6,11-23.9c8.7-4.3,18.9-3.9,28.6-3.3C-146.1,363.9-51.2,370.2,44.1,370.2z"/>
					<path class="st4" d="M44.4,18.7c0,0-33.8,43.8-40.3,51.1c-11.7,13.3-19.3,30.8-19.3,30.8l-17,72.3l-19-5.1l-41.3-11
						c0,0,14.7-39.5,7.6-51.5c-9.5-16-1.3-26,0.9-32.9c4-12.7-16.4-36-16.4-36l-13.1-58.6l19.8-2.6l14.3,47.5l24.6,21.9l17.5,0.9
						c0,0,13.2,2.7,22.8-1.7C-5.3,39.6,27.1,3,27.1,3l13.2,12L44.4,18.7z"/>
					<path class="st5" d="M-13.4-15c2.4-1.9,5.5-2.9,8.6-2.7c2.3-0.1,4.5,0.7,6.2,2.1c1.3,1.5,2.2,3.3,2.4,5.3
						c0.5,2.5,0.7,5,0.6,7.5C4.1,1.8,2.9,6.7,4.9,10.8c0.5,1,1.1,1.9,1.9,2.7c0.9,1,2.1,1.6,3.5,1.7c1.4,0.1,2.6-0.9,2.9-2.2
						c-1.2,2.6-3.3,4.6-5.9,5.6c-2.6,1-5.6,0.9-8.1-0.3c-0.8-0.4-1.6-0.9-2.3-1.4l1.7,3.5C-3,20-4.4,19.5-5.7,18.8
						c-4.3-2.3-6.6-7-7.8-11.7c-1-4.4-1.2-8.8-2.1-13.2C-16.3-9.5-16.2-12.6-13.4-15z"/>
					<path class="st6" d="M-27.7-10.2c0.9,0,1.7,0.1,2.5,0.4c1.4,0.6,2.3,1.9,2.4,3.4c0.1,1.5-0.7,2.9-2.1,3.6
						c-0.9,0.3-1.8,0.5-2.7,0.5c-0.8,0-1.7,0-2.5-0.1c-0.5,0-1-0.3-1.2-0.8c-0.5-1.1-1-2.2-1.2-3.4C-33.1-10.5-30.6-10.2-27.7-10.2z
						"/>
					
						<linearGradient id="SVGID_1_" gradientUnits="userSpaceOnUse" x1="-1291.5714" y1="672.2295" x2="-1290.5714" y2="672.2295" gradientTransform="matrix(20.9968 0 0 -36.4411 27066.9219 24539.9082)">
						<stop  offset="0" style="stop-color:#ECC4D7"/>
						<stop  offset="0.42" style="stop-color:#EFD4D1"/>
						<stop  offset="1" style="stop-color:#F2EAC9"/>
					</linearGradient>
					<path class="st7" d="M-31,24.9c0,0-0.2,2.9-0.4,6.6c-0.2,3.2-0.4,7-0.6,10.2c-0.3,5.4-2.6,10.5-6.5,14.2
						c-2.3,2.3-7.6,6.6-11.8,5.1c-2-0.7-2.1-3.3-1.6-4.8c0.9-2.8,1.4-5.6,1.5-8.5c0.1-2.3-0.1-4.7-0.6-7C-53.5,34.3-31,24.9-31,24.9
						z"/>
					
						<linearGradient id="SVGID_2_" gradientUnits="userSpaceOnUse" x1="-1289.0381" y1="657.5835" x2="-1289.205" y2="659.711" gradientTransform="matrix(20.0695 0 0 -22.82 25851.1777 15355.29)">
						<stop  offset="0" style="stop-color:#ECC4D7"/>
						<stop  offset="0.42" style="stop-color:#EFD4D1"/>
						<stop  offset="1" style="stop-color:#F2EAC9"/>
					</linearGradient>
					<path class="st8" d="M-31,24.9c0,0-0.2,2.9-0.4,6.6c-1.6,3.5-3.1,6.4-3.9,7.8c-1.6,2.9-8.3,7.4-15,8.3c0.1-2.3-0.1-4.7-0.6-7
						C-53.5,34.3-31,24.9-31,24.9z"/>
					
						<linearGradient id="SVGID_3_" gradientUnits="userSpaceOnUse" x1="-1302.359" y1="672.7614" x2="-1301.359" y2="672.7614" gradientTransform="matrix(44.5173 0 0 -55.2182 57907.1055 37162.9023)">
						<stop  offset="0" style="stop-color:#ECD0C4"/>
						<stop  offset="0.42" style="stop-color:#EFD4D1"/>
						<stop  offset="1" style="stop-color:#F2EAC9"/>
					</linearGradient>
					<path class="st9" d="M-50.6-13.4C-62.4-12.7-71.4-2.5-70.7,9.4c0,0.5,0.1,1,0.2,1.5c0.7,8.7,2.9,17.3,6.6,25.2
						c7,12,24.7,2.1,27.6-2.8s13.6-27.2,9.1-33.5C-30.5-4.5-39.1-13.8-50.6-13.4z"/>
					<path class="st5" d="M-56.9-25.6c7.5-2.2,15.6-2,22.9,0.7c7.3,2.8,13.5,8.4,16.3,15.7c2.4,6.7,2.2,14.1-0.6,20.7
						c-2.8,6.5-7.3,12.2-13,16.4c-1.5-4.5,3.1-8.5,4.8-12.9c0.4-0.8,0.5-1.7,0.3-2.6c-0.6-1.6-3.1-1.8-4.5-0.8
						c-1.4,1.1-2,2.8-2.5,4.5c1.4-7.1,2.4-15.5-2.7-20.8c-3-3.1-7.5-4.3-11.9-4.3c-8,0-15.7,3.3-21.2,9.1c-1.6,1.7-3.8,3.8-5.9,2.6
						c-0.6-0.4-1.1-1-1.4-1.7C-82.2-10.7-66.5-22.9-56.9-25.6z"/>
					<path class="st5" d="M40.8-12.4c-5-2.2-10.3-4-15.7-4s-11.1,1.8-14.6,5.9c-1.9,2.3-3.2,4.9-4,7.8C5.9-0.9,5.6,1,5.8,2.9
						c0.2,1.4,0.6,2.7,1,4c0.9,3.2,1.3,7-0.7,9.7c-0.8,1.1-2,1.8-3.3,1.9c-1.4,0-2.5-1-2.7-2.3c-0.9,2.5,0.6,5.4,2.8,6.7
						c2.4,1.2,5.2,1.3,7.7,0.4c1-0.3,2-0.9,2.8-1.6c0.8-0.8,1.5-1.7,2-2.8c2.1-3.8,3.1-8,4.7-12.1c1.6-4.1,3.8-8,7.5-10.3
						c2.9-1.6,6.2-2.4,9.5-2.4C40.4-6,43.7-5.7,47-6c3.3-0.3,0.9-2.3-0.5-3.3C44.7-10.5,42.8-11.5,40.8-12.4L40.8-12.4z"/>
					
						<linearGradient id="SVGID_4_" gradientUnits="userSpaceOnUse" x1="-1304.792" y1="673.035" x2="-1303.792" y2="673.035" gradientTransform="matrix(59.5374 0 0 -75.1333 77713.3828 50544.7852)">
						<stop  offset="0" style="stop-color:#ECC4D7"/>
						<stop  offset="0.42" style="stop-color:#EFD4D1"/>
						<stop  offset="1" style="stop-color:#F2EAC9"/>
					</linearGradient>
					<path class="st10" d="M87.1-48.2c0.9,0.7-7.1,6.9-7.1,6.9s-3.7,6.4-7.5,8.2S40.3,15,40.3,15L29.1,4.8l24.2-32.5
						c0,0,8-15.3,7.1-22c0,0,0.5-7.9,2.9-4.2c1.7,2.6,0.6,6.7,2.6,7.2c0.2,0,0.4,0,0.6-0.1c1.7-1,3.2-2.2,4.6-3.6
						c4-3.8,8.8-9.1,8.8-9.1s2.6-1.1,2.3,0c-0.3,1.1-5.1,8.6-5.4,9c0.4-0.4,7.8-7,9-6.5c1.2,0.5-5.7,8.1-6.1,8.5
						c0.4-0.3,8.3-5.8,8.9-5.3c1.1,0.9-6,7.1-6.6,7.6C82.4-46.6,86.3-48.9,87.1-48.2z"/>
					
						<linearGradient id="SVGID_5_" gradientUnits="userSpaceOnUse" x1="-1282.7797" y1="646.9878" x2="-1283.2428" y2="644.9401" gradientTransform="matrix(12.9967 0 0 -7.4 16729.2734 4882.2334)">
						<stop  offset="0" style="stop-color:#ECC4D7"/>
						<stop  offset="0.42" style="stop-color:#EFD4D1"/>
						<stop  offset="1" style="stop-color:#F2EAC9"/>
					</linearGradient>
					<path class="st11" d="M118.7-43.5c-0.6,0.2-1.2,0.2-1.9,0.2c-2-0.2-4-0.2-6.1-0.1c-1.4,0.1-4.2,1-4.2-1.1
						c0-0.6,0.1-1.1,0.1-1.7c0-0.2,0-0.5-0.1-0.7c1.7-1,3.2-2.2,4.5-3.6c0.6,0.2,1.2,0.5,1.7,0.9l3.9,2.6c0.7,0.5,1.4,0.9,2.1,1.4
						c0.3,0.2,0.5,0.5,0.7,0.8C119.6-44.3,119.3-43.7,118.7-43.5L118.7-43.5z"/>
					
						<linearGradient id="SVGID_6_" gradientUnits="userSpaceOnUse" x1="-1282.7797" y1="646.9878" x2="-1283.2428" y2="644.9402" gradientTransform="matrix(12.9967 0 0 -7.4 16596.2539 4818.2373)">
						<stop  offset="0" style="stop-color:#ECC4D7"/>
						<stop  offset="0.42" style="stop-color:#EFD4D1"/>
						<stop  offset="1" style="stop-color:#F2EAC9"/>
					</linearGradient>
					<path class="st12" d="M-14.3-107.5c-0.6,0.2-1.2,0.2-1.9,0.1c-2-0.2-4-0.2-6.1-0.1c-1.4,0.1-4.2,1-4.2-1.1
						c0-0.6,0.1-1.1,0.1-1.7c0-0.2,0-0.5-0.1-0.7c1.7-1,3.2-2.2,4.5-3.6c0.6,0.2,1.2,0.5,1.7,0.9l3.9,2.5c0.7,0.5,1.4,0.9,2.1,1.4
						c0.3,0.2,0.5,0.5,0.7,0.8C-13.4-108.3-13.7-107.7-14.3-107.5L-14.3-107.5z"/>
					
						<linearGradient id="SVGID_7_" gradientUnits="userSpaceOnUse" x1="-1282.7797" y1="646.9878" x2="-1283.2429" y2="644.9402" gradientTransform="matrix(12.9967 0 0 -7.4 16575.7734 4853.0859)">
						<stop  offset="0" style="stop-color:#ECC4D7"/>
						<stop  offset="0.42" style="stop-color:#EFD4D1"/>
						<stop  offset="1" style="stop-color:#F2EAC9"/>
					</linearGradient>
					<path class="st13" d="M-34.9-72.6c-0.6,0.2-1.2,0.2-1.8,0.2c-2-0.2-4-0.2-6.1-0.1c-1.4,0.1-4.2,1-4.2-1.1
						c0-0.6,0.1-1.1,0.1-1.7c0-0.2,0-0.5-0.1-0.7c1.7-1,3.2-2.2,4.6-3.6c0.6,0.2,1.2,0.5,1.7,0.9l3.9,2.5c0.7,0.5,1.4,0.9,2.1,1.4
						c0.3,0.2,0.5,0.5,0.7,0.8C-33.9-73.5-34.3-72.8-34.9-72.6L-34.9-72.6z"/>
					
						<linearGradient id="SVGID_8_" gradientUnits="userSpaceOnUse" x1="-1284.4128" y1="635.1029" x2="-1284.876" y2="633.0552" gradientTransform="matrix(12.7127 -2.7022 -1.5386 -7.2383 17327.9414 1176.2197)">
						<stop  offset="0" style="stop-color:#ECC4D7"/>
						<stop  offset="0.42" style="stop-color:#EFD4D1"/>
						<stop  offset="1" style="stop-color:#F2EAC9"/>
					</linearGradient>
					<path class="st14" d="M53.7-97.9c-0.5,0.3-1.2,0.5-1.8,0.5c-2,0.3-4,0.7-5.9,1.2c-1.3,0.3-3.9,1.8-4.4-0.2
						c-0.1-0.5-0.1-1.1-0.2-1.7c-0.1-0.2-0.1-0.5-0.2-0.7c1.4-1.3,2.7-2.9,3.7-4.5c0.6,0.1,1.3,0.2,1.9,0.5l4.4,1.7
						c0.8,0.3,1.6,0.6,2.3,1c0.3,0.1,0.6,0.3,0.8,0.6C54.5-98.9,54.3-98.2,53.7-97.9L53.7-97.9z"/>
					
						<linearGradient id="SVGID_9_" gradientUnits="userSpaceOnUse" x1="-1294.3634" y1="672.9466" x2="-1294.5399" y2="673.3169" gradientTransform="matrix(25.283 0 0 -85.0627 32625.5703 57192.5313)">
						<stop  offset="0" style="stop-color:#ECC4D7"/>
						<stop  offset="0.42" style="stop-color:#EFD4D1"/>
						<stop  offset="1" style="stop-color:#F2EAC9"/>
					</linearGradient>
					<path class="st15" d="M-116.6-100.3c-1.1,0.1,2.4,9.6,2.4,9.6s-0.2,7.4,2,10.9c2.2,3.5,2,57.1,2,57.1l14.9-2l-3.4-40.4
						c0,0,1.3-17.2,5.6-22.4c0,0,3.7-6.9-0.2-5.1c-2.8,1.3-4.1,5.4-6,4.7c-0.2-0.1-0.4-0.3-0.5-0.5c-0.9-1.7-1.6-3.6-2-5.5
						c-1.4-5.3-2.6-12.4-2.6-12.4s-1.6-2.3-1.9-1.2s-0.2,10-0.2,10.5c-0.2-0.6-3-10.1-4.3-10.3s0.6,9.9,0.7,10.5
						c-0.2-0.5-4-9.3-4.8-9.2c-1.4,0.2,1.4,9.2,1.6,9.9C-113.5-96.4-115.6-100.4-116.6-100.3z"/>
					
						<linearGradient id="SVGID_10_" gradientUnits="userSpaceOnUse" x1="-1277.9056" y1="666.3464" x2="-1275.5133" y2="668.3081" gradientTransform="matrix(12.471 0 0 -8.3637 15860.7471 5448.5664)">
						<stop  offset="0" style="stop-color:#ECC4D7"/>
						<stop  offset="0.42" style="stop-color:#EFD4D1"/>
						<stop  offset="1" style="stop-color:#F2EAC9"/>
					</linearGradient>
					<path class="st16" d="M-72-131.8c0.4,0.5,0.9,0.9,1.5,1.1c1.8,0.9,3.5,2,5.2,3.1c1.1,0.8,3,3.1,4.2,1.3c0.3-0.5,0.5-1,0.8-1.5
						c0.1-0.2,0.3-0.4,0.5-0.6c-0.9-1.7-1.6-3.6-2-5.5c-0.6-0.1-1.3-0.2-1.9-0.2l-4.7,0.1c-0.8,0-1.7,0-2.5,0.1
						c-0.4,0-0.7,0.1-1,0.3C-72.4-133-72.4-132.3-72-131.8L-72-131.8z"/>
					
						<linearGradient id="SVGID_11_" gradientUnits="userSpaceOnUse" x1="-1289.3422" y1="634.3666" x2="-1286.9498" y2="636.3284" gradientTransform="matrix(9.412 -8.1817 -5.4871 -6.3121 15502.9707 -6656.1128)">
						<stop  offset="0" style="stop-color:#ECC4D7"/>
						<stop  offset="0.42" style="stop-color:#EFD4D1"/>
						<stop  offset="1" style="stop-color:#F2EAC9"/>
					</linearGradient>
					<path class="st17" d="M-114.8-119.4c0.6,0.1,1.3,0,1.9-0.2c2-0.5,4-0.8,6-1.1c1.4-0.2,4.3,0.3,4-1.8c-0.1-0.6-0.3-1.1-0.4-1.6
						c0-0.2,0-0.5,0-0.7c-1.8-0.7-3.5-1.7-5.1-2.8c-0.6,0.3-1.1,0.7-1.6,1.1l-3.5,3.1c-0.6,0.5-1.3,1.1-1.8,1.7
						c-0.3,0.2-0.5,0.5-0.6,0.9C-115.9-120.1-115.5-119.5-114.8-119.4L-114.8-119.4z"/>
					
						<linearGradient id="SVGID_12_" gradientUnits="userSpaceOnUse" x1="-1283.0603" y1="645.3074" x2="-1280.6678" y2="647.2691" gradientTransform="matrix(11.3026 -5.2705 -3.5346 -7.5801 16895.9512 -1951.6888)">
						<stop  offset="0" style="stop-color:#ECC4D7"/>
						<stop  offset="0.42" style="stop-color:#EFD4D1"/>
						<stop  offset="1" style="stop-color:#F2EAC9"/>
					</linearGradient>
					<path class="st18" d="M113.7-89.1c0.6,0.3,1.2,0.4,1.8,0.3c2,0.1,4,0.3,6,0.6c1.3,0.2,4,1.5,4.3-0.6c0.1-0.6,0-1.1,0.1-1.7
						c0-0.2,0.1-0.5,0.2-0.7c-1.6-1.2-2.9-2.6-4.1-4.1c-0.6,0.1-1.2,0.4-1.8,0.7l-4.2,2.1c-0.8,0.3-1.5,0.7-2.2,1.2
						c-0.3,0.1-0.6,0.4-0.8,0.7C112.9-90,113.1-89.4,113.7-89.1L113.7-89.1z"/>
					
						<linearGradient id="SVGID_13_" gradientUnits="userSpaceOnUse" x1="-1277.9056" y1="666.3464" x2="-1275.5133" y2="668.3081" gradientTransform="matrix(12.471 0 0 -8.3637 16006.7471 5464.5674)">
						<stop  offset="0" style="stop-color:#ECC4D7"/>
						<stop  offset="0.42" style="stop-color:#EFD4D1"/>
						<stop  offset="1" style="stop-color:#F2EAC9"/>
					</linearGradient>
					<path class="st19" d="M74-115.8c0.4,0.5,0.9,0.9,1.5,1.1c1.8,0.9,3.5,2,5.2,3.1c1.1,0.8,3,3.1,4.2,1.3c0.3-0.5,0.5-1,0.8-1.5
						c0.1-0.2,0.3-0.4,0.5-0.6c-0.9-1.7-1.6-3.6-2-5.5c-0.6-0.1-1.3-0.2-1.9-0.2l-4.7,0.1c-0.8,0-1.7,0-2.5,0.1
						c-0.4,0-0.7,0.1-1,0.3C73.6-117,73.6-116.3,74-115.8L74-115.8z"/>
					<path class="st20" d="M-169.3,371.5c-4,8.2-6.9,14.5-6.9,14.5l-50.3,2.4c0,0,8.3-22.1,21.9-16.4c4.6,1.9,21.2-1.7,21.2-1.7
						l0.5-1.7L-169.3,371.5z"/>
					<path class="st21" d="M9,374l-7.7,4.3l-66-69.4l-7.3-92.6l-60.2,54.6c0,0,1.6,37.6-19.4,67c-3.8,5.3-11.4,20.6-17.2,32.5
						c-0.2,0.4-0.4,0.8-0.5,1.1l-1.1-0.2l-3.9-0.8l-8.5-1.8l27.7-111.8l62.9-100.1l41.3,11l19,5.1c0,0,12.8,25.7,0,92.2l-8.5,38.1
						c0,0,34.3,18.3,44.8,54.4L9,374L9,374z"/>
					
						<linearGradient id="SVGID_14_" gradientUnits="userSpaceOnUse" x1="-1299.4799" y1="674.004" x2="-1299.2026" y2="674.2484" gradientTransform="matrix(45.88 0 0 -28.91 59736.707 19810.8262)">
						<stop  offset="0" style="stop-color:#25233A"/>
						<stop  offset="1.000000e-02" style="stop-color:#67DDF9"/>
						<stop  offset="0.12" style="stop-color:#5CB3CE"/>
						<stop  offset="0.24" style="stop-color:#538EA9"/>
						<stop  offset="0.37" style="stop-color:#4C718B"/>
						<stop  offset="0.5" style="stop-color:#465A73"/>
						<stop  offset="0.63" style="stop-color:#424A63"/>
						<stop  offset="0.79" style="stop-color:#404059"/>
						<stop  offset="1" style="stop-color:#3F3D56"/>
					</linearGradient>
					<path class="st22" d="M9,374l7.8,8.2L-3,402.9h-26c0,0,5.5-9.2,16.6-10.6c11.1-1.5,13.7-14,13.7-14L9,374z"/>
					
						<linearGradient id="SVGID_15_" gradientUnits="userSpaceOnUse" x1="-1307.166" y1="674.0025" x2="-1306.6182" y2="671.9985" gradientTransform="matrix(95.51 0 0 -157.92 124829.2969 106442.4297)">
						<stop  offset="0" style="stop-color:#000000;stop-opacity:0"/>
						<stop  offset="0.91" style="stop-color:#000000;stop-opacity:0.8"/>
						<stop  offset="1" style="stop-color:#000000"/>
					</linearGradient>
					<path class="st23" d="M44.4,18.7c0,0-33.8,43.8-40.3,51.1c-11.7,13.3-19.3,30.8-19.3,30.8l-17,72.3l-19-5.1
						c0,0,17.7-66.3,24.9-80.4C-19.1,73.3,40.3,15,40.3,15L44.4,18.7z"/>
					<path class="st24" d="M9,374c-0.4-1-11.6-32.4-28.6-45.5c-17.2-13.4-27.2-31.8-27.2-31.8c-4-35.4-4.3-128.8-4.3-128.8l19,5.1
						c0,0,12.8,25.7,0,92.2l-8.5,38.1c0,0,34.3,18.3,44.8,54.4L9,374z"/>
					<path class="st25" d="M-132.1,270.9c0,0,1.6,37.6-19.4,67c-3.8,5.3-11.4,20.6-17.2,32.5l-1.7,0.9l-3.9-0.8l0,0l32.6-102.9
						c0,0,39.5-46.8,46.8-51.3s23.1,0,23.1,0L-132.1,270.9z"/>
				</g>
				<g transform="translate(0.000000, 72.000000)">
					
						<linearGradient id="SVGID_16_" gradientUnits="userSpaceOnUse" x1="-1064.851" y1="601.7243" x2="-1064.851" y2="600.6345" gradientTransform="matrix(23 0 0 -165 24254.0645 99288.75)">
						<stop  offset="0" style="stop-color:#D988AE"/>
						<stop  offset="0.42" style="stop-color:#EFD4D1"/>
						<stop  offset="1" style="stop-color:#F2EAC9"/>
					</linearGradient>
					<path class="st26" d="M-237.3-30.8c0,0,10.8,64.7,11.3,76.3c0.5,11.6-8.3,63.1-2.8,86.5c0,0-17.7-6.6-20.1,0.4
						c0,0,9.7-70.8,13-82.5c3.3-11.7-4.2-82.5-4.2-82.5L-237.3-30.8z"/>
					
						<linearGradient id="SVGID_17_" gradientUnits="userSpaceOnUse" x1="-1063.0745" y1="601.7243" x2="-1063.0745" y2="600.6345" gradientTransform="matrix(21 0 0 -165 22371.0625 99286.75)">
						<stop  offset="0" style="stop-color:#D988AE"/>
						<stop  offset="0.42" style="stop-color:#EFD4D1"/>
						<stop  offset="1" style="stop-color:#F2EAC9"/>
					</linearGradient>
					<path class="st27" d="M46.9-32.8c0,0-10.4,64.6-10.9,76.2c-0.5,11.6,7.4,63.2,2.2,86.5c0,0,16.5-6.5,18.8,0.5
						c0,0-8.7-70.8-11.7-82.5c-3-11.7,4.3-82.5,4.3-82.5L46.9-32.8z"/>
					<path class="st28" d="M-154,107.3c-61.4-0.6-86.5-42.9-96.7-63.5C-268,8.8-258.3-85.1-180.1-23l-3,3
						c-68.3-54.2-71.7,33.6-58.9,59.3c12.9,26,40.9,47.4,85.6,47.9L-154,107.3z"/>
					<path class="st29" d="M-235.1,50.8c-6.1-2.4-11.7-5.6-16.9-9.5c0.4,1,0.8,1.9,1.3,2.8c10.3,20.5,35.6,62.6,97.7,63.2l-2.4-20
						C-194,86.9-220.2,71.4-235.1,50.8"/>
					<path class="st28" d="M-33,107.3c61.4-0.6,86.5-42.9,96.7-63.5C81,8.8,71.3-85.1-6.9-23l3,3C64.4-74.2,67.8,13.7,55,39.4
						c-12.9,26-40.9,47.4-85.6,47.9L-33,107.3z"/>
					<path class="st29" d="M59.8,30.9c-0.9,3.8-2.1,7.3-3.5,10C43.2,67.1,14.8,88.6-30.6,89.1l-2.4,20.2c62.3-0.7,87.8-43.2,98.1-64
						c2.6-5.2,4.6-11.8,5.9-19C67.5,28.2,63.7,29.7,59.8,30.9"/>
					<path class="st30" d="M-174.8,78.3l17.8,43C-189.2,116.4-174.8,78.3-174.8,78.3"/>
					<path class="st30" d="M-9.5,78.3l-13.5,43C1.5,116.4-9.5,78.3-9.5,78.3"/>
					<path class="st29" d="M0,7.3l3.1-47c10.9,1.6,13.9,5.9,13.9,12.6C17.1-12.4,0,7.3,0,7.3"/>
					<path class="st29" d="M-185,7.3l-4.2-47c-10.2,1.6-12.9,5.9-12.8,12.6C-201.7-12.5-185,7.3-185,7.3"/>
					<polygon class="st29" points="-106,211 -90.2,236.3 -75,208.7 -92.9,173.3 					"/>
					<polygon class="st28" points="-101,211 -91.3,236.3 -82,208.7 -93,173.3 					"/>
					<path class="st30" d="M-92.5,198.6c5.2,0,9.9,1,13.5,2.7l-14.5-28l-9.5,26.8C-99.9,199.2-96.4,198.6-92.5,198.6"/>
					<path class="st30" d="M-92,221c-3.2,0-6.2-0.3-9-0.9l10.9,16.2l10.1-17C-83.5,220.4-87.6,221-92,221"/>
					<g transform="translate(174.000000, 0.000000)">
					</g>
					<polygon class="st31" points="-61.5,-86.7 -124.5,-86.7 -178,-43.7 -8,-43.7 					"/>
					<polygon class="st29" points="-66,-86.7 -120,-86.7 -166,-43.7 -20,-43.7 					"/>
					<polygon class="st28" points="-68.7,-86.7 -114.3,-86.7 -153,-43.7 -30,-43.7 					"/>
					<polygon class="st29" points="-119,-84.9 -103.7,-98.7 -80.9,-98.7 -65,-84.7 					"/>
					<polygon class="st31" points="-84.6,-86.7 -99.4,-86.7 -112,-43.7 -72,-43.7 					"/>
					<path class="st28" d="M-126.7,272.3h75c0,0,8.9-47-38.7-47C-133.1,225.3-126.7,272.3-126.7,272.3"/>
					<path class="st30" d="M-88.8,256.7c-14.1,0-26.8-2.9-35.9-7.4c-3.6,11.6-2,23-2,23h75c0,0,2.1-11.4-1.4-22.9
						C-62.1,253.9-74.8,256.7-88.8,256.7"/>
					<path class="st29" d="M-192-46c44.6-12.6,168.9-10.5,198,0C1.6,76.7-37.2,187.9-93,192.3C-145.6,182-191.5,84.9-192-46"/>
					<path class="st28" d="M-169-40.3c34.5-12.2,130.5-10.1,153,0C-19.4,77.9-49.4,185-92.5,189.3C-133.2,179.4-168.6,85.8-169-40.3
						"/>
					<path class="st30" d="M5.8-40.5c0.1-1.6,0.2-3.2,0.2-4.8c-29.1-10.2-153.4-12.3-198,0c0,1.9,0.1,3.7,0.1,5.5
						C-145-50.8-32.1-49.4,5.8-40.5"/>
					<path class="st32" d="M-93,173.2c-49.9-9.7-93.7-97.3-98.5-217.7c-0.2,0.1-0.3,0.1-0.5,0.2c0.5,130.5,43.1,230.3,99,240.6
						C-33.6,191.9,1.6,78,6-44.3c-0.3-0.1-0.7-0.3-1-0.4C-2.6,69.6-40.1,169.1-93,173.2"/>
					<path class="st28" d="M-42,274.3c0-5-3.8-9-8.5-9h-77c-4.7,0-8.5,4-8.5,9H-42z"/>
					<path class="st29" d="M-129,166.6c7.6,8,40.2,52.2,78-1.3C-80.5,188.1-101.6,186-129,166.6"/>
					<path class="st30" d="M-186-45.7c0-2.8-2-5-4.5-5c-2.5,0-4.5,2.2-4.5,5c0,2.8,2,5,4.5,5C-188-40.7-186-42.9-186-45.7"/>
					<path class="st30" d="M10-45.7c0-2.8-2-5-4.5-5S1-48.5,1-45.7c0,2.8,2,5,4.5,5S10-42.9,10-45.7"/>
					<path class="st30" d="M-11-50.7c0-2.8-2-5-4.5-5c-2.5,0-4.5,2.2-4.5,5c0,2.8,2,5,4.5,5C-13-45.7-11-47.9-11-50.7"/>
					<path class="st30" d="M-165-50.7c0-2.8-2-5-4.5-5c-2.5,0-4.5,2.2-4.5,5c0,2.8,2,5,4.5,5C-167-45.7-165-47.9-165-50.7"/>
					<path class="st30" d="M-134-55.7c0-2.8-2-5-4.5-5c-2.5,0-4.5,2.2-4.5,5s2,5,4.5,5C-136-50.7-134-52.9-134-55.7"/>
					<path class="st30" d="M-103-55.7c0-2.8-2-5-4.5-5c-2.5,0-4.5,2.2-4.5,5c0,2.8,2,5,4.5,5C-105-50.7-103-52.9-103-55.7"/>
					<path class="st30" d="M-68-55.7c0-2.8-2-5-4.5-5c-2.5,0-4.5,2.2-4.5,5c0,2.8,2,5,4.5,5C-70-50.7-68-52.9-68-55.7"/>
					<path class="st30" d="M-40-53.7c0-2.8-2-5-4.5-5c-2.5,0-4.5,2.2-4.5,5c0,2.8,2,5,4.5,5C-42-48.7-40-50.9-40-53.7"/>
					<polygon class="st30" points="-131,-81.7 -55,-81.7 -55,-86.7 -131,-86.7 					"/>
					<path class="st28" d="M-53.1-83.7h-77.9c-1.8-1-2.5-2.8-1.8-4.3c0.7-1.6,2.7-2.7,5-2.7h71.5c2.3,0,4.2,1.1,5,2.7
						C-50.6-86.5-51.3-84.7-53.1-83.7"/>
					<path class="st31" d="M-55-86.2H-129c-1.7-0.3-2.4-0.8-1.7-1.3c0.7-0.5,2.6-0.8,4.7-0.8h68c2.1,0,4,0.3,4.7,0.8
						C-52.6-87-53.3-86.5-55-86.2"/>
					<polygon class="st33" points="46,-32.9 52,-40.7 55,-37.8 51.7,-24.7 					"/>
					
						<linearGradient id="SVGID_18_" gradientUnits="userSpaceOnUse" x1="-1073.2888" y1="601.9111" x2="-1073.2888" y2="600.5974" gradientTransform="matrix(42 0 0 -149 45147.1602 89646.0547)">
						<stop  offset="0" style="stop-color:#D988AE"/>
						<stop  offset="0.42" style="stop-color:#EFD4D1"/>
						<stop  offset="1" style="stop-color:#F2EAC9"/>
					</linearGradient>
					<path class="st34" d="M50-36.3c0,0-3.6,50.6-1.2,61.9C51.2,37,65.6,86,64.4,109.5c0,0,20.4-5.7,25.6,0.8
						c0,0-18.8-70.9-26.4-81.8C56,17.6,53.2-38.7,53.2-38.7L50-36.3z"/>
					<polygon class="st35" points="-234,-32 -240.4,-38.7 -244,-35.8 -240.4,-25.7 					"/>
					
						<linearGradient id="SVGID_19_" gradientUnits="userSpaceOnUse" x1="-1073.9697" y1="601.9111" x2="-1073.9697" y2="600.5974" gradientTransform="matrix(45 0 0 -149 48069.1367 89648.0547)">
						<stop  offset="0" style="stop-color:#D988AE"/>
						<stop  offset="0.42" style="stop-color:#EFD4D1"/>
						<stop  offset="1" style="stop-color:#F2EAC9"/>
					</linearGradient>
					<path class="st36" d="M-238.9-34.3c0,0,3.6,50.7,1,62c-2.6,11.3-18.1,60.3-16.9,83.8c0,0-21.6-5.8-27.1,0.7
						c0,0,20.3-70.8,28.4-81.8c8.1-10.9,11.4-67.2,11.4-67.2L-238.9-34.3z"/>
				</g>
			</g>
		</g>
	</g>
</g>
</svg>
