<svg version="1.1" xmlns="http://www.w3.org/2000/svg" viewBox="0 0 1953.7 2684.6">
<style type="text/css">
	.st0{display:none;fill:#FFFFFF;}
	.st1{fill:#B27A54;}
	.st2{fill:#8E5B38;}
	.st3{fill:#8C4222;}
	.st4{fill:#A0A0A0;}
	.st5{fill:#5E2410;}
	.st6{fill:#E8B592;}
	.st7{fill:#FCC79F;}
	.st8{fill:#E8AB82;}
	.st9{fill:#E03434;}
	.st10{fill:#EDAF85;}
	.st11{fill:#4C3A22;}
	.st12{opacity:0.37;fill:#BC633B;}
	.st13{fill:#7C633E;}
	.st14{opacity:0.32;fill:#FEFEFE;}
	.st15{fill:#3F4C4C;}
	.st16{fill:#A82F2C;}
	.st17{fill:#BC8C4D;}
	.st18{fill:#FFFFFF;}
	.st19{fill:#B22424;}
	.st20{fill:#F9C5C5;}
	.st21{fill:#F4EBE6;}
	.st22{fill:#D1976F;}
	.st23{fill:#8E5732;}
	.st24{fill:#9BAAA9;}
	.st25{fill:#E8EDED;}
	.st26{fill:#EA7373;}
	.st27{fill:#F99755;}
	.st28{fill:#FFDF57;}
	.st29{fill:#B1D85B;}
	.st30{fill:#8BEAE7;}
	.st31{fill:#8BA1E8;}
	.st32{fill:#A284D3;}
	.st33{fill:#768483;}
	.st34{fill:#505254;}
	.st35{fill:#A2DDD9;}
	.st36{fill:#DDB252;}
	.st37{fill:#B58D3E;}
	.st38{fill:#D55B96;}
	.st39{fill:#BF3D82;}
	.st40{fill:#F786C1;}
	.st41{fill:#E2BC8F;}
	.st42{fill:#CCBE5E;}
	.st43{fill:#F9EE87;}
	.st44{opacity:0.65;fill:#BA9670;}
	.st45{fill:#BD481D;}
	.st46{fill:#993A1D;}
	.st47{fill:#D85830;}
	.st48{fill:#F9C035;}
	.st49{fill:#D89D19;}
	.st50{fill:#FFD066;}
	.st51{fill:#9ED656;}
	.st52{fill:#81B735;}
	.st53{fill:#D4FF97;}
	.st54{fill:#E04F3E;}
	.st55{fill:#C1291E;}
	.st56{fill:#FF6C61;}
	.st57{fill:#80CEC7;}
	.st58{fill:#50A097;}
	.st59{fill:#FCE03F;}
	.st60{fill:#BFED64;}
	.st61{opacity:0.22;fill:#505254;}
	.st62{opacity:0.49;fill:#FFFFFF;}
	.st63{fill:#C0EDE8;}
	.st64{fill:#BDF4F0;}
	.st65{fill:#F9ECB7;}
	.st66{fill:#C6BA8B;}
	.st67{fill:#847A5E;}
	.st68{fill:#4B7F7B;}
	.st69{fill:#E0FCF9;}
	.st70{opacity:0.11;fill:#489692;}
	.st71{fill:#FFDC7B;}
</style>
<rect x="-1022.5" y="-659.2" class="st0" width="4000" height="4000"/>
<g>
	<polygon class="st1" points="0,2603 48.1,2603 580.7,254.9 532.6,254.9 	"/>
	<polygon class="st2" points="580.7,254.9 604,254.9 67.3,2603 48.1,2603 	"/>
	<polygon class="st1" points="804,2603 746.9,2603 115.7,254.9 172.8,254.9 	"/>
	<polygon class="st2" points="115.7,254.9 88.1,254.9 724.3,2603 746.9,2603 	"/>
	<polygon class="st1" points="1474.4,2603 1417.3,2603 786.1,254.9 843.1,254.9 	"/>
	<polygon class="st2" points="786.1,254.9 758.5,254.9 1394.6,2603 1417.3,2603 	"/>
	<g>
		<g>
			<path class="st3" d="M1083.8,791.3l232-86c0,0-0.8-5.7-21.9,2.1c-21.1,7.8-125.8,42.1-158.4,56c-32.5,13.9-53,23.8-53,23.8
				L1083.8,791.3z"/>
			<path class="st3" d="M1083.8,791.3l232-86c0,0,2.7,5-18.5,12.8c-21.1,7.8-123.2,50.3-156.8,60.9c-33.6,10.6-55.4,16.4-55.4,16.4
				L1083.8,791.3z"/>
			<polygon class="st4" points="1043.3,803.2 1044.2,806 1045.1,808.9 1093,794.3 1091.2,788.6 1089.3,782.9 			"/>
			<path class="st5" d="M1006.5,815.1c-2.7,3.4-11.5,9.2-11.5,9.2s10.2-1.3,14.3-0.4c4,0.9,15.5,0.7,23.5-4.2
				c8-4.9,12.5-10.4,12.5-10.4l-1-3.3l-1-3.3c0,0-6.7-1.4-15.8,0.1C1018.3,804.3,1009.1,811.7,1006.5,815.1z"/>
		</g>
		<path class="st6" d="M1394.8,585.2c0,0-144.7,213.8-175,283.2c-30.3,69.4-43.3,117-36.1,130c7.2,13,106.3,72.2,155,85.2
			c48.7,13,66.1,13,66.1,13s-26,60.7-30.3,85.2c-4.3,24.6,19.4,44.8,19.4,44.8l87.7-179.2l-208.3-82.4l120.6-164.7L1394.8,585.2z"/>
		<path class="st7" d="M1425.6,574.3c0,0,30.3-19.5,41.9-58.5c11.6-39,7.1-73.7,7.1-73.7l91.9-16.6c0,0,3.9,88.2,15.2,109.1
			c11.3,20.9,23.1,32.5,23.1,32.5s-26.3,75.1-130.2,80.2C1370.7,652.3,1425.6,574.3,1425.6,574.3z"/>
		<path class="st8" d="M1465.9,520.8c0,0,21.6,1.7,58.7-19.9c37.1-21.7,45-31.4,45-31.4l-2.7-36.5l-93.8,28.5L1465.9,520.8z"/>
		<path class="st7" d="M1536.5,2615.8L1536.5,2615.8c51-20.5,109.5-43.4,114.8-58.6c7.3-21-10.2-495.4-13.9-524.4
			c-3.7-29-25.5-51-35.9-95.7c-10.5-44.7-45.9-331.7-45.9-331.7l209.9-25.7c0,0-9,305.6-2.4,356.6c6.6,51.1,30.6,182.5,19.2,313.7
			c-11.4,131.3-27.8,269.6-27.7,288.5c0,9.6,2.4,32.5,3.7,54.5l0,0C1758.2,2593.1,1499.1,2684.5,1536.5,2615.8z"/>
		<path class="st9" d="M1679.5,2661.5c-19.1,7.2-73.9,26.6-142.8,22.5c-69-4.1-102.1-22.8-52-46.4c13.9-6.5,32.3-14,51.8-21.8v0
			c-37.4,68.7,221.7-22.8,221.7-22.8l0,0c1.3,21.3,1.5,41.7-2.2,48.6C1748.3,2655.6,1698.6,2654.3,1679.5,2661.5z"/>
		<path class="st10" d="M1343.8,2547.9L1343.8,2547.9c51-20.5,109.5-43.4,114.8-58.6c7.3-21-10.2-495.4-13.9-524.4
			c-3.7-29-25.5-51-35.9-95.7c-10.5-44.7-45.9-331.7-45.9-331.7l209.9-25.7c0,0-9,305.6-2.4,356.6c6.6,51.1,30.6,182.5,19.2,313.7
			c-11.4,131.3-27.8,269.6-27.7,288.5c0,9.6,2.4,32.5,3.7,54.5l0,0C1565.5,2525.2,1306.4,2616.7,1343.8,2547.9z"/>
		<path class="st9" d="M1486.8,2593.6c-19.1,7.2-73.9,26.6-142.8,22.5c-69-4.1-102.1-22.8-52-46.4c13.9-6.5,32.3-14,51.8-21.8v0
			c-37.4,68.7,221.7-22.8,221.7-22.8l0,0c1.3,21.3,1.5,41.7-2.2,48.6C1555.7,2587.7,1506,2586.5,1486.8,2593.6z"/>
		<g>
			<path class="st11" d="M1679,480.4c0,0-47-55.5-176.7-58c-129.6-2.5-150.5,38.8-150.5,38.8s-28.1-124.4-13.6-198.9
				c14.5-74.5,28.2-124.4,105.4-118.7c77.2,5.8,210,102.3,210,102.3l14,136l22,65.9L1679,480.4z"/>
			<path class="st7" d="M1361.2,186.5l1.3,123c0,0,29.7,167,118.2,166.1c88.6-0.9,141.9-77,152.8-136.2
				c10.9-59.2,53.7-233.7-87.2-241.2C1405.3,90.9,1361.2,186.5,1361.2,186.5z"/>
			<path class="st12" d="M1572.4,121.3c0,0-45.1,52.9-106.2,69.1c-61.1,16.2-113.3,17.8-113.3,17.8s-5.1-25.7,8.7-32.9
				c13.8-7.2,192.2-55.9,192.2-55.9L1572.4,121.3z"/>
			<path class="st12" d="M1579.9,120.8c0,0,24.1,61.9,28.2,146.8c4.2,84.9-16.2,155.7-16.2,155.7s25.4-26.6,31.3-48.8
				c5.9-22.2-25.5-256.9-25.5-256.9L1579.9,120.8z"/>
			<path class="st13" d="M1582.7,116.4c0,0,30.3,75.7,31.3,172c1,96.2,4,168.4-7,214.5c-11,46.1-34.9,64.4-34.9,64.4
				s42-12.5,54.9-32.8c12.9-20.4,16.7-132,16.7-132s5.3,36,0.8,73.8c-4.5,37.8-10.9,54.8-10.9,54.8s22.8-12.3,30.3-32.6
				c7.4-20.3,8.2-53.7,8.2-53.7s1,18.7-0.7,33.4c-1.8,14.7-3.6,19.5-3.6,19.5s7.7-13.2,10-24.5c2.3-11.3,2.2-20.3,2.2-20.3
				s1.1,7.4,0.2,17.8c-0.9,10.5-2.5,16.2-2.5,16.2s30.1-27.4,33.2-42.2c3.1-14.8-5.8-162.4-16.4-235.3
				c-10.6-72.9-32.3-107.1-32.3-107.1L1582.7,116.4z"/>
			<path class="st13" d="M1569.5,106.4c0,0-18.4,48.6-107.5,71.7c-89.2,23.1-117.1,18.2-117.1,18.2s-4.8-63.7,21.9-99.2
				c26.7-35.6,38.9-47.2,38.9-47.2L1569.5,106.4z"/>
			<path class="st13" d="M1353.4,123.6c0,0-33.6,105-30,214.2c3.6,109.2,57,195.6,57,195.6s-11.9-35.7-16.1-52.6
				c-4.3-16.9-4.9-24.6-4.9-24.6s13,37.1,18,51.2c5.1,14.2,9.6,27.2,14,30.5c4.4,3.2,30.2,12.8,30.2,12.8S1375.1,444,1363,361
				c-12.1-83,6.5-198.1,6.5-198.1L1353.4,123.6z"/>
			<path class="st11" d="M1399.5,89.7c0,0-52.1,81.8-54.1,180.2c-2,98.5,21.4,181.1,32.8,210.1c11.4,29,20.2,47.8,20.2,47.8
				s-27.6-46.9-41.8-115.2c-14.3-68.4-21.1-94.5-13.4-178.7C1350.9,149.7,1399.5,89.7,1399.5,89.7z"/>
			<path class="st11" d="M1336.5,258.6c0,0-10.6,44,1.7,121c12.3,77,33,125,33,125s-29.1-66.4-36.5-125
				c-7.4-58.6-4.1-86.1-2.2-100.1C1334.4,265.6,1336.5,258.6,1336.5,258.6z"/>
			<path class="st11" d="M1407.5,68.3c0,0-39.4,34.5-57.2,97c-17.8,62.5-20.6,113.4-20.6,113.4s0.9-64.4,21.7-126.6
				c20.8-62.2,50.8-87.1,50.8-87.1L1407.5,68.3z"/>
			<path class="st13" d="M1584.6,121.5c0,0,27.5,91.5,28.6,144c1.2,52.5,1.7,154.2,1.7,154.2s7.4-83.8,1.2-167.4
				c-6.2-83.6-26.7-130.2-26.7-130.2L1584.6,121.5z"/>
			<path class="st11" d="M1632.3,224.3c0,0,11.9,89.4,10.3,158.2c-1.6,68.8-11.8,125.6-11.8,125.6s9.9-69,7.9-147.3
				C1636.6,282.5,1632.3,224.3,1632.3,224.3z"/>
			<path class="st11" d="M1624.6,394.2c0,0,5.6-135-4.1-194.4c-9.6-59.4-13.9-74.8-13.9-74.8l5.3-0.1c0,0,14.2,64.9,16.2,136.7
				C1630.1,333.4,1624.6,394.2,1624.6,394.2z"/>
			<path class="st11" d="M1647.6,172.4c0,0,18.1,143.8,17.5,210.2c-0.5,66.5-12.2,127.3-12.2,127.3s6.1-4.2,9.2-23.9
				c3.1-19.7,11.5-71.9,5.4-148.1C1661.4,261.7,1647.6,172.4,1647.6,172.4z"/>
			<path class="st11" d="M1672.3,321.5c0,0-4.6-76.9-14.5-125.9c-9.9-49-15-68.2-15-68.2l4.4,0c0,0,7,27,14.8,70.8
				S1672.3,321.5,1672.3,321.5z"/>
			<path class="st11" d="M1675.5,237c0,0,7.9,92.6,8.6,154.1c0.6,61.5-2.5,92-2.5,92s9-58.8,5.3-135.9
				C1683.2,270.1,1675.5,237,1675.5,237z"/>
			<path class="st11" d="M1698,349.5c0,0-4.7-99.5-16.8-154.2c-12.1-54.7-19.6-70.9-19.6-70.9l5.3-0.1c0,0,12.7,33.8,23.3,110
				C1700.9,310.5,1698,349.5,1698,349.5z"/>
			<path class="st11" d="M1367.9,179.2c15.5-0.5,31.1-1.7,46.4-4.2c7.3-1.2,14.6-2,21.8-3.6c7.2-1.5,14-4.4,21.3-5.7
				c0.1,0,0.1,0.1,0.1,0.1c-6.7,3.1-14,4.4-21.1,6.4c-7.6,2.2-15,4.5-22.8,6c-15.2,2.8-30.3,4.8-45.7,5.6
				C1365,183.9,1364.9,179.3,1367.9,179.2z"/>
			<path class="st11" d="M1371.9,168.2c17.9-0.2,35-1.8,52.7-4.7c0.1,0,0.2,0.2,0.1,0.2c-16.7,5.3-35.2,7.9-52.7,7.6
				C1370,171.2,1369.9,168.2,1371.9,168.2z"/>
			<path class="st11" d="M1392.3,107.8c25.2,6.5,48.7,7.7,74.1,1.9c0.2,0,0.3,0.2,0.1,0.3c-23.8,7.6-51.2,8.8-75.2,1.6
				C1388.8,110.9,1389.8,107.2,1392.3,107.8z"/>
			<path class="st11" d="M1389.5,116.5c16.3,6.5,32.4,8,49.8,6.4c0.2,0,0.2,0.3,0,0.3c-16.6,4.3-34.7,2.2-50.5-4.1
				C1387.2,118.6,1387.8,115.9,1389.5,116.5z"/>
			<path class="st11" d="M1386.1,121.8c8.6,4.4,16.9,5.6,26.2,7.5c0.2,0,0.1,0.3,0,0.3c-9.2,1.1-18.9-2.2-27-6.3
				C1384.2,122.8,1385.1,121.3,1386.1,121.8z"/>
			<path class="st11" d="M1380.3,139.5c17.6-0.6,34.8-0.5,52.1-4.5c17.3-4,33.3-11.1,48.4-20.3c0.1-0.1,0.2,0.1,0.1,0.2
				c-28.3,18.5-66.9,32.5-101.1,28.2C1377.8,142.8,1378.3,139.6,1380.3,139.5z"/>
			<path class="st14" d="M1518.1,160c0,0-81.6-15.8-104.5-44.6c-22.9-28.7-26.2-44.7-26.2-44.7l-22.5,29c0,0-3.6,21.6,29.1,50.4
				c32.7,28.8,69.7,32.1,69.7,32.1L1518.1,160z"/>
			<path class="st14" d="M1598.3,172.8c0,0,25.7,3.6,53.9-3.9c28.2-7.5,29.1-19.9,29.1-19.9l11.2,48.4c0,0-11.8,19.3-38.1,23.3
				c-26.3,4-45.1,4.2-45.1,4.2L1598.3,172.8z"/>
			<path class="st15" d="M1400.4,277.3c0.1,8.5,7.1,15.4,15.6,15.3c8.5-0.1,15.4-7.1,15.3-15.6c-0.1-8.5-7.1-15.4-15.6-15.3
				C1407.2,261.8,1400.3,268.8,1400.4,277.3z"/>
			<path class="st15" d="M1526.3,276c0.1,8.5,7.1,15.4,15.6,15.3c8.5-0.1,15.4-7.1,15.3-15.6c-0.1-8.5-7.1-15.4-15.6-15.3
				C1533.1,260.5,1526.2,267.5,1526.3,276z"/>
			<path class="st12" d="M1453.8,337.8c6.6-9.8,11.3-19.5,13.3-30.7c1.9-10.5-1.2-20-1.6-30.4c0-0.3,0.5-0.3,0.6-0.1
				c7.2,10.7,6.6,27.6,4.2,39.1c-1.5,7.1-4,14-7.7,20.5c-3,5.4-15.6,25.4,2.9,23.9c2-0.2,3.1,1.9,1.3,2.8
				c-5.7,2.7-12.5,0.8-16.1-3.7C1445.1,352.3,1449.6,344,1453.8,337.8z"/>
			<path class="st16" d="M1441.3,388.9c5.4,14.8,19.3,25.1,35.4,24.5c7.8-0.3,15.4-3.1,21.8-7.5c7-4.7,11.2-11.1,16.8-17.1
				c0.8-0.8,2.3,0,2,1.1c-5.3,16.6-26,28.3-42.8,28c-16.5-0.4-33.3-11.2-37.1-27.9C1436.8,387.5,1440.4,386.5,1441.3,388.9z"/>
			<path class="st17" d="M1381.6,252.1c5-8.4,16.6-14,25.4-17.4c11-4.2,22.4-5.3,34-3.4c5.7,1,3.5,10.3-2.3,8.9
				c-9.9-2.4-20.2-2.8-30.2-0.4c-4.6,1.1-9.3,2.9-13.5,5.1c-4.4,2.3-8,5.9-12.3,8.3C1382,253.5,1381.2,252.8,1381.6,252.1z"/>
			<path class="st17" d="M1575.8,250.1c-5.2-8.3-16.8-13.6-25.8-16.9c-11.1-4-22.5-4.8-34-2.7c-5.7,1.1-3.3,10.4,2.5,8.8
				c9.9-2.6,20.1-3.2,30.2-1.1c4.6,1,9.3,2.7,13.6,4.8c4.5,2.2,8.1,5.7,12.5,8C1575.4,251.5,1576.3,250.8,1575.8,250.1z"/>
			<path class="st18" d="M1405,274.7c0,2.3,1.9,4.1,4.1,4.1c2.3,0,4.1-1.9,4.1-4.1c0-2.3-1.9-4.1-4.1-4.1
				C1406.8,270.5,1405,272.4,1405,274.7z"/>
			<path class="st18" d="M1530.3,273.3c0,2.3,1.9,4.1,4.1,4.1s4.1-1.9,4.1-4.1c0-2.3-1.9-4.1-4.1-4.1
				C1532.1,269.2,1530.3,271.1,1530.3,273.3z"/>
			<path class="st13" d="M1405.7,49.9c0,0,56.3-60.4,136.2-48.3c79.9,12.1,76.1,31.2,76.1,31.2s14.5,2.1,26.2,22.7
				c11.7,20.6,18.1,46.7,18.1,46.7l-78.9,15.6l-5.3-9.4l-8.4-2L1405.7,49.9z"/>
			<path class="st11" d="M1462.7,171.5c61.7-20.3,82.3-50,82.3-50s-30.6,20.3-57.9,28.4c-27.4,8.1-36,8.2-36,8.2
				s51.9-17.8,67.8-26.1c15.9-8.4,12.1-16.1,12.1-16.1s-12.2,6.9-29.4,10.3c-17.2,3.3-29.5,5.5-29.5,5.5s52.4-13.7,53.6-15.7
				c0.3-0.6,0.8-1.4,1.4-2.2c0-0.1,0-0.1,0-0.2c0.9-3.4,4.2-6.1,6.4-8.7c0.6-0.7,1.7,0.2,1.2,0.9c-0.7,1-1.3,2.2-2,3.3
				c2.9-2,6.4-3,9.4-5c2.9-2,5.4-4.5,8.2-6.7c0.5-0.4,0.9,0.2,0.9,0.7c-0.2,1.3-0.6,2.6-1.3,4c0.2,0.3,0.2,0.7,0,1.1
				c-0.8,1.8-2.3,3.3-3.5,4.8c-0.6,0.7-1.1,1.5-1.7,2.2l2.1,0.2c2.9-1.5,5.6-3.5,8.1-5.7c5.2-4.8,9.3-10.8,14.7-15.4
				c0.3-0.3,0.9,0,0.8,0.4c-0.9,3-2.2,5.9-3.7,8.7c0,0,0-0.1,0.1-0.1c0.6-0.6,1.9,0,1.5,0.9c-1.4,3.6-3.7,6.6-6,9.7
				c-0.4,0.6-0.9,1.1-1.3,1.7c1.3-0.6,2.5-1.3,3.7-2c3.7-2.4,6.6-6.3,10.5-8.2c1.7-10,6.3-19.8,11.2-28.8
				c-26.2-6.7-56.2,7.1-81,14.5c-22.9,6.9-45.4,11-69,6c-0.1,0-0.1-0.2,0.1-0.2c28.4,6.5,57.3-3.2,84-12.2c12.5-4.2,25-8.3,38-10.6
				c9.6-1.7,19.8-3.4,29,0.7c0,0,0,0,0.1,0c1-1.7,1.9-3.4,2.9-5c1.5-2.6,3.1-5.2,4.8-7.7c-0.6-0.5-1.2-1.1-1.3-2
				c-1.1-9.3-27.8-13-35.5-14.3c-12.4-2-25.1-2.3-37.6-1.1c-25.3,2.5-49.4,10.8-72.4,21.4c-0.5,0.2-0.9-0.4-0.4-0.7
				c26.8-14.8,56.6-23.7,87.3-24.6c14.7-0.4,29.6,0.7,43.9,4.3c6.5,1.6,18,3.9,19.9,11.1c0.8-1.1,1.6-2.1,2.4-3.2
				c-0.9-1.8-1.5-3.6-2.6-5.3c-2.2-3.6-5.6-6.5-9.2-8.7c-6.6-4-14.5-6-22.1-7.5c-0.7-0.1-0.4-1.2,0.3-1.1c9.7,1.6,19.4,3,27.3,9.2
				c3.3,2.6,7,6.4,8.3,10.6c3-3.7,6.2-7.2,9.7-10.3c-20.9-34.1-73.8-27.7-107.6-25.7c-0.5,0-0.6-0.7-0.1-0.8
				c20.8-5.8,44.5-4.2,65.6-0.6c17.5,3,36.4,8.3,46.2,24.2c0.8,0.1,1.4,1,1.1,1.8c0.7,1.4,0,2.8-1.2,3.4c8.7,0.6,14.9,9.2,20.2,15.9
				c7.2,9.1,13.9,19.8,16.7,31.1c0.1,0.3-0.4,0.5-0.5,0.2c-3.9-7.1-7.2-14.5-11.7-21.3c-5.5-8.2-15.3-23.7-27.3-21.5
				c-0.4,0.1-0.8,0-1.2-0.1c-1.5,2.2-3.1,4.4-4.6,6.6c14.2-3.8,25.6,12.8,32,23c11,17.5,22.2,39,26.5,59.3c0.2,0.9-1,1.5-1.5,0.7
				c-8.7-14.1-13.7-30.7-21.5-45.4c-8.3-15.5-17.3-33.8-37-34c-0.4,0-0.6-0.1-0.9-0.3c-0.7,1.1-1.5,2.1-2.2,3.2
				c14.4-0.2,24.5,14.5,31.6,25.2c0.1,0.2-0.1,0.3-0.3,0.2c-4.3-5.7-9.1-11-14.8-15.3c-5.9-4.4-11.7-5.7-18.7-6.8
				c-2.2,3.2-4.3,6.5-6.2,9.9c-0.3,0.6-0.6,1.2-0.9,1.7c11-2.6,25,9.2,31.8,16.1c12.2,12.7,21.5,30.8,21.1,48.7
				c0,1.3-2.1,1.8-2.4,0.4c-5.5-25-21.8-65.4-53.1-60.1c-1.1,2.2-2.1,4.4-3.1,6.6c13.5,2.1,22.4,12.9,29.5,24.2
				c10.2,16.1,18.7,34.1,22.8,52.8c0.1,0.4-0.4,0.5-0.5,0.2c-8.9-24.7-22.2-70-53.6-73c-0.7,1.6-1.5,3.3-2.2,4.9
				c15.5,0.8,31.9,29.7,26.2,41.9c-0.3,0.6-1.1,0.5-1.4,0c-4.3-6.3-4.5-15.2-8.6-22c-4.6-7.7-10.4-12.4-18.2-15.5
				c-1.2,2.6-2.5,5.2-3.8,7.7c8.6,9.3,14.5,26.2,14.8,38.3c0,1-1.4,1.4-1.9,0.5c-3.2-5.8-5.3-12.2-7.9-18.4c-2.1-5-4.8-9.9-6.8-14.9
				c-0.7,2-1.8,4-2.9,5.6c-1.3,2-2.8,3.9-4.7,5.2c-11.3,13.7-44.7,47.3-112.5,65.2c-86.5,22.8-116.1,12.4-116.1,12.4
				S1401,191.9,1462.7,171.5z"/>
			<path class="st11" d="M1400.3,70.7c2.3-7.6,9.3-13.1,15.1-18.2c7.2-6.3,15.3-11.7,23.9-15.7c17.8-8.3,36.8-15.1,56.1-19.1
				c0.6-0.1,0.8,0.7,0.3,0.9c-17.8,6.6-36.5,10.8-53,20.5c-8.4,4.9-16.4,10.5-23.5,17.2c-5.6,5.2-9.7,12.5-16.1,16.6
				C1401.7,73.6,1399.9,72.2,1400.3,70.7z"/>
			<path class="st11" d="M1412.3,81.2c18,0.6,35.4,1.7,53.3-0.2c18.9-2,37.3-6.5,55.3-12.5c0.5-0.2,0.7,0.6,0.2,0.8
				c-33.3,13.5-73.5,20.5-109.1,13.6C1411.1,82.7,1411.3,81.1,1412.3,81.2z"/>
			<path class="st11" d="M1431.5,75.5c9.1,0.7,17.9,0.5,26.8-2c0.7-0.2,1,0.9,0.3,1.1c-8.9,2.7-18.1,3.8-27.3,2
				C1430.7,76.5,1430.8,75.5,1431.5,75.5z"/>
		</g>
		<path class="st9" d="M1436.3,565.6c0,0-47,66.4,26.6,67.2c73.5,0.8,132.2-77.1,132.2-77.1s104.6,44.4,123.7,63.2
			c19.1,18.8-26.1,364.1-15.6,406c10.5,41.9,42.4,79,130.5,285.6c88.1,206.6,121.4,307.7,119.9,323.6
			c-1.4,15.9-128.6,169-424.8,131.5s-300.5-96.8-300.5-106.9c0-10.1,199.4-569.2,196.5-595.3c-2.9-26-10.1-143-24.6-156
			c-14.4-13-64.2-86.7-61.7-132.9c2.5-46.2,46.3-180.6,56.2-189.3C1404.7,576.5,1436.3,565.6,1436.3,565.6z"/>
		<path class="st19" d="M1464.4,800.4c0,0,31.8,45.3,82.8,40.5c51-4.8,62.6-40.5,62.6-40.5s-2.9,52-65.5,58.8
			C1481.7,865.9,1464.4,800.4,1464.4,800.4z"/>
		<path class="st20" d="M1236.4,1632.7c0,0,132.6,86.6,318.5,98.1c185.9,11.6,391.5-130.2,391.5-130.2l-6.7-21.2
			c0,0-162.3,105.1-288.5,117.7c-126.2,12.5-247.3-13.5-319.7-47.2c-72.3-33.7-86.7-42-86.7-42L1236.4,1632.7z"/>
		<path class="st20" d="M1588.4,546.1c0,0-82.7,81-132.7,78.1c-50.1-2.9-12.7-65.3-12.7-65.3l-48.2,26.3c0,0-8.9,108.4,0,102.6
			c8.9-5.8,45.6-46.2,53.7-46.2c8.2,0,32.2,66.5,37,63.6c4.8-2.9,158.2-127.6,158.2-127.6L1588.4,546.1z"/>
		<path class="st7" d="M1759.4,645.4c16.3,30.6-33,136.2-89.8,221.8c-56.8,85.6-103.7,130.3-114.9,127.3
			c-11.3-3-150.5-40.8-222.2-70.9c-71.7-30.1-116.1-68.2-125.3-65.1c-9.2,3.1-54.4,24.7-67.7,15.6c-13.3-9.1-6-20.5-6-20.5
			s-11.9-3.8-18.8-12c-6.9-8.2,2.8-20.8,2.8-20.8s-11.8,1.3-15.2-6.4c-3.3-7.7-2.3-20.7-2.3-20.7s-7.4-4.6-11.2-13.9
			c-3.8-9.3,46.8-17,70-27.3c23.3-10.4,41.6-0.6,63.7,14.1c22.1,14.7,37.2,26.7,42,27.3c4.8,0.6,256.7,85.3,261.7,84.1
			c5-1.3,56.7-181.9,99-235.4c42.2-53.6,79.6-34.9,103.5-24.9C1752.6,627.7,1759.4,645.4,1759.4,645.4z"/>
	</g>
	<polygon class="st1" points="172.8,254.9 786.1,254.9 838.3,340.3 182,340.3 	"/>
	<polygon class="st1" points="469.4,1437.9 1130.2,1437.9 1116.4,1366 450.4,1366 	"/>
	<polygon class="st21" points="195.7,340.3 809,340.3 1087.9,1366 471.5,1366 	"/>
	<rect x="239" y="2057.2" class="st22" width="710.2" height="53.3"/>
	<rect x="239" y="2110.6" class="st23" width="710.2" height="18.6"/>
	<rect x="266.5" y="2129.1" class="st23" width="59.6" height="473.9"/>
	<rect x="852" y="2129.1" class="st23" width="59.6" height="473.9"/>
	<g>
		<path class="st24" d="M715.6,1933.4c0,0,13.9-8.9,29,1.4c15.1,10.3,19,30.2,19.6,37.2c0.6,7-2.9,14.6-2.9,14.6l7.1-2.9l5.2-15.1
			c0,0-4-14.5-4-15.4c0-1-11-19.8-11-19.8l-16.4-12.6c0,0-24.8-1.7-26.7-0.3c-1.9,1.3-9.9,11.5-9.9,11.5L715.6,1933.4z"/>
		<path class="st24" d="M689.9,2056.4c-93.7,7.3-225.2-94.3-217.9-173.4c2.2-24.3,10.3-44.2,22.4-59.2
			c-14.7,15.5-24.5,37.2-27.1,64.5c-7.3,79.1,124.2,180.7,217.9,173.4c40.5-3.2,64.8-18,78.9-35.6
			C749.6,2041.4,726.2,2053.6,689.9,2056.4z"/>
		<path class="st25" d="M689.9,2056.4c36.3-2.8,59.7-15.1,74.3-30.3c18.6-23.3,19.5-51.5,16.1-64.7c-6-23.3-14-31.2-14-31.2
			s-79.7-95.7-151.5-124.2c-47-18.7-92.5-11.5-120.4,17.9c-12.1,15-20.2,34.9-22.4,59.2C464.7,1962.1,596.3,2063.7,689.9,2056.4z
			 M715.6,1933.4c6.1-12.3,25.1-7.7,29.5-5.2c6,3.3,13.4,12.6,13.4,12.6s13.2,18.4,9.2,37.2c-1.6,3.7-3.8,6.6-6.4,8.6
			c-11.8,19.2-42.6,6.2-50.8-27.9C707.1,1944.4,710.2,1937,715.6,1933.4z"/>
		<ellipse class="st26" cx="691.8" cy="1887.3" rx="21.9" ry="19.6"/>
		<ellipse class="st27" cx="642.1" cy="1851.1" rx="21.9" ry="19.6"/>
		<ellipse class="st28" cx="585" cy="1826.5" rx="21.9" ry="19.6"/>
		<ellipse class="st29" cx="523.8" cy="1839.8" rx="21.9" ry="19.6"/>
		<ellipse class="st30" cx="512.5" cy="1904" rx="21.9" ry="19.6"/>
		<ellipse class="st31" cx="549.1" cy="1961.1" rx="21.9" ry="19.6"/>
		<ellipse class="st32" cx="606.9" cy="1995" rx="21.9" ry="19.6"/>
		<path class="st33" d="M691.8,2014.6c0,10.8-9.8,19.6-21.9,19.6c-12.1,0-21.9-8.8-21.9-19.6s9.8-19.6,21.9-19.6
			C682,1995,691.8,2003.8,691.8,2014.6z"/>
	</g>
	<g>
		<path class="st34" d="M820,1873.8c-38.1,0-68.9,2.6-68.9,5.8c0,3.2,30.9,5.8,68.9,5.8c38.1,0,68.9-2.6,68.9-5.8
			C888.9,1876.4,858,1873.8,820,1873.8z"/>
		<path class="st35" d="M819.4,1870.7c-41.3,0-74.7,4-74.7,8.9h6.4c0-3.2,30.9-5.8,68.9-5.8c38.1,0,68.9,2.6,68.9,5.8h5.2
			C894.1,1874.7,860.7,1870.7,819.4,1870.7z"/>
		<g>
			
				<rect x="657" y="1793.7" transform="matrix(0.1196 -0.9928 0.9928 0.1196 -1051.2266 2431.7969)" class="st36" width="377" height="29.8"/>
			
				<rect x="673.8" y="1808.6" transform="matrix(0.1196 -0.9928 0.9928 0.1196 -1038.4644 2450.23)" class="st37" width="377" height="4"/>
			<path class="st37" d="M824.6,1982.5c1.8,0.2,3.1,1.9,2.9,3.7c-0.2,1.8-1.9,3.1-3.7,2.9c-1.8-0.2-3.1-1.9-2.9-3.7
				C821.1,1983.6,822.7,1982.3,824.6,1982.5z"/>
			
				<rect x="818.8" y="1962.1" transform="matrix(0.1196 -0.9928 0.9928 0.1196 -1234.9264 2548.5354)" class="st37" width="1.6" height="17"/>
			
				<rect x="821.2" y="1942.3" transform="matrix(0.1195 -0.9928 0.9928 0.1195 -1213.1033 2533.8713)" class="st37" width="1.6" height="17"/>
			
				<rect x="815.6" y="1956.2" transform="matrix(0.1195 -0.9928 0.9928 0.1195 -1227.4617 2536.7625)" class="st37" width="1.8" height="8.5"/>
			
				<rect x="823.5" y="1922.7" transform="matrix(0.1195 -0.9928 0.9928 0.1195 -1191.4894 2518.8108)" class="st37" width="1.6" height="17"/>
			
				<rect x="818" y="1936.5" transform="matrix(0.1195 -0.9928 0.9928 0.1195 -1205.8214 2521.7952)" class="st37" width="1.8" height="8.5"/>
			
				<rect x="826" y="1902.5" transform="matrix(0.1196 -0.9928 0.9928 0.1196 -1169.4515 2503.2063)" class="st37" width="1.6" height="17"/>
			
				<rect x="820.4" y="1916.4" transform="matrix(0.1197 -0.9928 0.9928 0.1197 -1183.7719 2506.2273)" class="st37" width="1.8" height="8.5"/>
			
				<rect x="828.3" y="1882.8" transform="matrix(0.1196 -0.9928 0.9928 0.1196 -1147.8025 2488.2708)" class="st37" width="1.6" height="17"/>
			
				<rect x="822.8" y="1896.7" transform="matrix(0.1197 -0.9928 0.9928 0.1197 -1162.1321 2491.262)" class="st37" width="1.8" height="8.5"/>
			
				<rect x="830.8" y="1862.7" transform="matrix(0.1195 -0.9928 0.9928 0.1195 -1125.5839 2473.2688)" class="st37" width="1.6" height="17"/>
			
				<rect x="825.2" y="1876.6" transform="matrix(0.1195 -0.9928 0.9928 0.1195 -1139.9186 2476.2488)" class="st37" width="1.8" height="8.5"/>
			
				<rect x="833.1" y="1843" transform="matrix(0.1195 -0.9928 0.9928 0.1195 -1103.9752 2458.197)" class="st37" width="1.6" height="17"/>
			
				<rect x="827.6" y="1856.9" transform="matrix(0.1195 -0.9928 0.9928 0.1195 -1118.3033 2461.198)" class="st37" width="1.8" height="8.5"/>
			
				<rect x="835.5" y="1822.9" transform="matrix(0.1196 -0.9928 0.9928 0.1196 -1081.8984 2442.7344)" class="st37" width="1.6" height="17"/>
			
				<rect x="830" y="1836.7" transform="matrix(0.1196 -0.9928 0.9928 0.1196 -1096.248 2445.6658)" class="st37" width="1.8" height="8.5"/>
			
				<rect x="837.9" y="1803.2" transform="matrix(0.1196 -0.9928 0.9928 0.1196 -1060.2863 2427.6807)" class="st37" width="1.6" height="17"/>
			
				<rect x="832.4" y="1817" transform="matrix(0.1196 -0.9928 0.9928 0.1196 -1074.6122 2430.6868)" class="st37" width="1.8" height="8.5"/>
			
				<rect x="840.3" y="1783.3" transform="matrix(0.1196 -0.9928 0.9928 0.1196 -1038.4072 2412.533)" class="st37" width="1.6" height="17"/>
			
				<rect x="834.8" y="1797.1" transform="matrix(0.1196 -0.9928 0.9928 0.1196 -1052.7333 2415.5396)" class="st37" width="1.8" height="8.5"/>
			
				<rect x="842.7" y="1763.6" transform="matrix(0.1196 -0.9928 0.9928 0.1196 -1016.7712 2397.5537)" class="st37" width="1.6" height="17"/>
			
				<rect x="837.2" y="1777.4" transform="matrix(0.1196 -0.9928 0.9928 0.1196 -1031.0974 2400.5608)" class="st37" width="1.8" height="8.5"/>
			
				<rect x="845.1" y="1743.5" transform="matrix(0.1196 -0.9928 0.9928 0.1196 -994.6628 2382.1975)" class="st37" width="1.6" height="17"/>
			
				<rect x="839.6" y="1757.3" transform="matrix(0.1195 -0.9928 0.9928 0.1195 -1008.8795 2385.5295)" class="st37" width="1.8" height="8.5"/>
			
				<rect x="847.5" y="1723.8" transform="matrix(0.1196 -0.9928 0.9928 0.1196 -973.013 2367.2588)" class="st37" width="1.6" height="17"/>
			
				<rect x="842" y="1737.6" transform="matrix(0.1195 -0.9928 0.9928 0.1195 -987.2344 2370.5723)" class="st37" width="1.8" height="8.5"/>
			
				<rect x="849.9" y="1704" transform="matrix(0.1196 -0.9928 0.9928 0.1196 -951.3505 2352.2119)" class="st37" width="1.6" height="17"/>
			
				<rect x="844.4" y="1717.9" transform="matrix(0.1197 -0.9928 0.9928 0.1197 -965.6715 2355.2354)" class="st37" width="1.8" height="8.5"/>
			
				<rect x="852.2" y="1684.4" transform="matrix(0.1196 -0.9928 0.9928 0.1196 -929.7006 2337.2722)" class="st37" width="1.6" height="17"/>
			
				<rect x="846.7" y="1698.2" transform="matrix(0.1197 -0.9928 0.9928 0.1197 -944.0627 2340.1812)" class="st37" width="1.8" height="8.5"/>
			
				<rect x="854.7" y="1664.2" transform="matrix(0.1195 -0.9928 0.9928 0.1195 -907.4695 2322.252)" class="st37" width="1.6" height="17"/>
			
				<rect x="849.1" y="1678.1" transform="matrix(0.1195 -0.9928 0.9928 0.1195 -921.8335 2325.1628)" class="st37" width="1.8" height="8.5"/>
			
				<rect x="857" y="1644.5" transform="matrix(0.1195 -0.9928 0.9928 0.1195 -885.8375 2307.2566)" class="st37" width="1.6" height="17"/>
			
				<rect x="851.5" y="1658.4" transform="matrix(0.1195 -0.9928 0.9928 0.1195 -900.197 2310.1819)" class="st37" width="1.8" height="8.5"/>
			
				<rect x="859.5" y="1624.2" transform="matrix(0.1196 -0.9928 0.9928 0.1196 -863.5771 2291.4929)" class="st37" width="1.6" height="17"/>
			
				<rect x="854" y="1638" transform="matrix(0.1196 -0.9928 0.9928 0.1196 -877.9041 2294.5029)" class="st37" width="1.8" height="8.5"/>
		</g>
		<g>
			<path class="st38" d="M763.9,1738.8c0,0-0.5-6.5-0.2-7c0.3-0.5,1.8,6.8,1.8,6.8s0.7,3.6-0.5,3.5
				C763.8,1742,763.9,1738.8,763.9,1738.8z"/>
			
				<rect x="770.7" y="1766.7" transform="matrix(0.9931 -0.1177 0.1177 0.9931 -211.6009 103.7644)" class="st39" width="4.5" height="154.2"/>
			
				<rect x="775.1" y="1766.2" transform="matrix(0.9931 -0.1177 0.1177 0.9931 -211.4742 104.2625)" class="st38" width="4.5" height="154.2"/>
			
				<rect x="779.6" y="1765.7" transform="matrix(0.993 -0.1177 0.1177 0.993 -211.45 104.8189)" class="st40" width="4.5" height="154.2"/>
			<path class="st41" d="M761.6,1767.4c0,0,0.5,3.6,2.3,4.5c1.8,0.9,2.1-5.1,2.1-5.1s2.1,8,3.2,7.7c1-0.3,0.6-4.1,0.6-4.1
				s0.6-0.6,0.6-1.6c0-1.1,0.1-2.5,0.1-2.5s1.4,4.2,2.6,4.7c1.1,0.5,1.9-5.2,1.9-5.2s-9.3-27.5-9.4-27.6s0,0.9-0.1,1.1
				c-0.1,0.2,0.1,0.9-0.3,0.3c-0.4-0.6-0.5-1.4-0.4-1s-0.3,1.4-0.3,1.4l-0.5-1.7L761.6,1767.4z"/>
			<path class="st42" d="M791.2,1924.4l-8.3,1c-1.4,0.2-2.8-1.9-3.1-4.7l0.3,2.1c0.3,2.8,1.7,4.9,3.1,4.7l8.3-1
				c1.4-0.2,2.2-2.5,1.9-5.3l-0.3-2.1C793.4,1921.9,792.6,1924.2,791.2,1924.4z"/>
			<path class="st43" d="M779.8,1920.7c0.3,2.8,1.7,4.9,3.1,4.7l8.3-1c1.4-0.2,2.2-2.5,1.9-5.3l0,0L779.8,1920.7L779.8,1920.7z"/>
			<path class="st44" d="M764,1740c0,0-2.1,26.3-2,27.1c0.1,0.7,1.2,3.2,1.7,3.6c0.5,0.4,0.7-2.4,0.7-2.4s1.6-0.2,1.6-1.7
				c0-1.4-1.7-26.2-1.7-26.2L764,1740z"/>
		</g>
		<g>
			<path class="st45" d="M927.2,1778.1c0,0,3.6-6.6,4.2-6.8c0.6-0.3-2.6,7.7-2.6,7.7s-1.6,3.9-2.7,3
				C925,1781.1,927.2,1778.1,927.2,1778.1z"/>
			
				<rect x="781" y="1882.4" transform="matrix(0.4452 -0.8954 0.8954 0.4452 -1205.3298 1824.5381)" class="st46" width="177.4" height="5.1"/>
			
				<rect x="785.6" y="1884.7" transform="matrix(0.4452 -0.8954 0.8954 0.4452 -1204.8281 1829.9934)" class="st45" width="177.4" height="5.1"/>
			
				<rect x="790.2" y="1887" transform="matrix(0.4452 -0.8954 0.8954 0.4452 -1204.3237 1835.3578)" class="st47" width="177.4" height="5.1"/>
			<path class="st41" d="M907,1804.2c0,0-1.8,3.8-0.7,5.8c1.2,2,5.3-3.5,5.3-3.5s-3,9.1-1.8,9.4c1.2,0.3,3.1-3.6,3.1-3.6
				s0.9-0.2,1.6-1.2c0.7-1,1.7-2.3,1.7-2.3s-1.3,5-0.5,6.1c0.8,1.2,5.1-3.9,5.1-3.9s8.4-32.4,8.3-32.5c-0.1-0.1-0.6,0.9-0.8,1
				c-0.2,0.2-0.5,0.9-0.4,0.1c0-0.8,0.5-1.6,0.2-1.2c-0.2,0.4-1.2,1.2-1.2,1.2l0.6-1.9L907,1804.2z"/>
			<path class="st42" d="M836.5,1974l-8.6-4.3c-1.4-0.7-1.4-3.6,0-6.5l-1.1,2.2c-1.4,2.9-1.4,5.8,0,6.5l8.6,4.3
				c1.4,0.7,3.8-1,5.2-3.9l1.1-2.2C840.3,1973,838,1974.7,836.5,1974z"/>
			<path class="st43" d="M827.9,1963.3c-1.4,2.9-1.4,5.8,0,6.5l8.6,4.3c1.4,0.7,3.8-1,5.2-3.9l0,0L827.9,1963.3L827.9,1963.3z"/>
			<path class="st44" d="M926.5,1779.3c0,0-18.6,24.1-19,24.9c-0.4,0.8-0.8,3.9-0.6,4.6c0.2,0.7,2.2-1.9,2.2-1.9s1.7,0.8,2.6-0.6
				c0.9-1.4,14.9-26.3,14.9-26.3L926.5,1779.3z"/>
		</g>
		<g>
			<path class="st48" d="M856.2,1739.3c0,0,1.3-7.1,1.8-7.5c0.5-0.4,0,7.8,0,7.8s-0.3,4.1-1.5,3.6
				C855.1,1742.8,856.2,1739.3,856.2,1739.3z"/>
			
				<rect x="834.2" y="1769.1" transform="matrix(0.9908 0.135 -0.135 0.9908 257.9839 -95.9613)" class="st49" width="4.9" height="170.9"/>
			
				<rect x="839.1" y="1769.8" transform="matrix(0.9908 0.135 -0.135 0.9908 258.1686 -96.6312)" class="st48" width="4.9" height="170.9"/>
			
				<rect x="844" y="1770.4" transform="matrix(0.9908 0.135 -0.135 0.9908 258.2697 -97.2761)" class="st50" width="4.9" height="170.9"/>
			<path class="st41" d="M845.8,1769.4c0,0-0.5,4,1.2,5.5c1.7,1.5,3.7-4.8,3.7-4.8s0.1,9.2,1.3,9.1c1.2-0.1,1.7-4.2,1.7-4.2
				s0.8-0.5,1.1-1.6c0.3-1.1,0.8-2.6,0.8-2.6s0.4,4.9,1.5,5.7c1.1,0.8,3.4-5.1,3.4-5.1s-2.3-32.1-2.5-32.2s-0.3,1-0.5,1.2
				c-0.1,0.2-0.2,1-0.4,0.2c-0.2-0.8-0.1-1.6-0.2-1.2c-0.1,0.4-0.7,1.5-0.7,1.5l0-1.9L845.8,1769.4z"/>
			<path class="st42" d="M833.8,1946l-9.2-1.2c-1.5-0.2-2.4-2.8-2-5.9l-0.3,2.3c-0.4,3,0.5,5.7,2,5.9l9.2,1.2
				c1.5,0.2,3.1-2.1,3.5-5.1l0.3-2.3C837,1944,835.4,1946.3,833.8,1946z"/>
			<path class="st43" d="M822.7,1938.9c-0.4,3,0.5,5.7,2,5.9l9.2,1.2c1.5,0.2,3.1-2.1,3.5-5.1l0,0L822.7,1938.9L822.7,1938.9z"/>
			<path class="st44" d="M855.9,1740.6c0,0-9.6,27.7-9.6,28.5c-0.1,0.8,0.4,3.8,0.8,4.4c0.4,0.6,1.4-2.4,1.4-2.4s1.8,0.2,2.2-1.3
				c0.4-1.5,5.5-28.6,5.5-28.6L855.9,1740.6z"/>
		</g>
		<g>
			<path class="st51" d="M726.7,1742.9c0,0-2-7.2-1.7-7.9c0.3-0.6,3.5,7.3,3.5,7.3s1.6,3.9,0.2,4.1
				C727.2,1746.5,726.7,1742.9,726.7,1742.9z"/>
			
				<rect x="757.2" y="1771" transform="matrix(0.9529 -0.3032 0.3032 0.9529 -528.177 317.9401)" class="st52" width="5.1" height="177.9"/>
			
				<rect x="762.1" y="1769.4" transform="matrix(0.9529 -0.3033 0.3033 0.9529 -527.5767 319.4404)" class="st51" width="5.1" height="177.9"/>
			
				<rect x="767" y="1767.8" transform="matrix(0.9529 -0.3032 0.3032 0.9529 -526.7885 320.7831)" class="st53" width="5.1" height="177.9"/>
			<path class="st41" d="M730.3,1775.8c0,0,1.3,4,3.6,4.6c2.3,0.6,1.3-6.2,1.3-6.2s4.2,8.6,5.3,8c1.1-0.6-0.3-4.8-0.3-4.8
				s0.5-0.8,0.3-2c-0.2-1.2-0.4-2.8-0.4-2.8s2.6,4.5,3.9,4.8c1.4,0.3,1-6.3,1-6.3s-16.5-29.2-16.7-29.2c-0.2,0,0.1,1.1,0.1,1.3
				c0,0.3,0.3,1-0.2,0.4c-0.5-0.6-0.8-1.5-0.7-1.1s0,1.7,0,1.7l-0.9-1.8L730.3,1775.8z"/>
			<path class="st42" d="M798,1947.2l-9.2,2.9c-1.5,0.5-3.6-1.6-4.5-4.6l0.7,2.3c1,3,3,5.1,4.5,4.6l9.2-2.9c1.5-0.5,2-3.4,1-6.4
				l-0.7-2.3C800,1943.8,799.6,1946.7,798,1947.2z"/>
			<path class="st43" d="M784.3,1945.5c1,3,3,5.1,4.5,4.6l9.2-2.9c1.5-0.5,2-3.4,1-6.4l0,0L784.3,1945.5L784.3,1945.5z"/>
			<path class="st44" d="M727,1744.2c0,0,3.4,30.3,3.7,31.1c0.3,0.8,2.1,3.4,2.7,3.7c0.6,0.4,0.2-2.9,0.2-2.9s1.8-0.6,1.5-2.2
				c-0.3-1.6-7.6-29.3-7.6-29.3L727,1744.2z"/>
		</g>
		<g>
			<path class="st54" d="M813.1,1740.8c0,0-0.6-7.3-0.2-7.8c0.4-0.6,2,7.6,2,7.6s0.8,4-0.6,3.9
				C813,1744.4,813.1,1740.8,813.1,1740.8z"/>
			
				<rect x="821" y="1772.1" transform="matrix(0.9927 -0.1202 0.1202 0.9927 -217.5292 112.5131)" class="st55" width="5" height="173.2"/>
			
				<rect x="826" y="1771.5" transform="matrix(0.9927 -0.1203 0.1203 0.9927 -217.4636 113.1325)" class="st54" width="5" height="173.2"/>
			
				<rect x="831" y="1770.9" transform="matrix(0.9927 -0.1203 0.1203 0.9927 -217.3424 113.7188)" class="st56" width="5" height="173.2"/>
			<path class="st41" d="M810.6,1772.9c0,0,0.5,4.1,2.6,5.1c2,1,2.4-5.7,2.4-5.7s2.4,9,3.6,8.6c1.1-0.4,0.6-4.6,0.6-4.6
				s0.6-0.6,0.7-1.8c0-1.2,0.1-2.8,0.1-2.8s1.6,4.7,2.9,5.3c1.3,0.5,2.1-5.9,2.1-5.9s-10.5-30.9-10.7-31c-0.2-0.1-0.1,1.1-0.1,1.3
				c-0.1,0.2,0.1,1-0.3,0.3c-0.4-0.7-0.5-1.6-0.5-1.1c0.1,0.4-0.3,1.6-0.3,1.6l-0.5-1.9L810.6,1772.9z"/>
			<path class="st42" d="M844.3,1949.2l-9.3,1.1c-1.6,0.2-3.1-2.2-3.5-5.3l0.3,2.4c0.4,3.1,1.9,5.4,3.5,5.3l9.3-1.1
				c1.6-0.2,2.5-2.8,2.1-5.9l-0.3-2.4C846.8,1946.4,845.8,1949,844.3,1949.2z"/>
			<path class="st43" d="M831.5,1945.1c0.4,3.1,1.9,5.4,3.5,5.3l9.3-1.1c1.6-0.2,2.5-2.8,2.1-5.9l0,0L831.5,1945.1L831.5,1945.1z"/>
			<path class="st44" d="M813.2,1742.1c0,0-2.3,29.6-2.1,30.4c0.1,0.8,1.4,3.6,1.9,4.1c0.5,0.5,0.8-2.7,0.8-2.7s1.8-0.3,1.8-1.9
				c0-1.6-2-29.4-2-29.4L813.2,1742.1z"/>
		</g>
		<g>
			
				<rect x="870.1" y="1765.4" transform="matrix(0.9513 0.3083 -0.3083 0.9513 604.0513 -182.2679)" class="st57" width="17.4" height="110"/>
			
				<rect x="847.1" y="1877.8" transform="matrix(0.9513 0.3083 -0.3083 0.9513 624.8232 -171.7134)" class="st57" width="17.4" height="27.2"/>
			
				<rect x="814.1" y="1988.3" transform="matrix(0.9513 0.3083 -0.3083 0.9513 654.5467 -156.6081)" class="st57" width="17.4" height="9.4"/>
			<path class="st58" d="M831.9,1991l-15.1-4.9c-1.5-0.5-2.3-2.1-1.8-3.6l25.5-78.8c0.5-1.5,2.1-2.3,3.6-1.8l15.1,4.9
				c1.5,0.5,2.3,2.1,1.8,3.6l-25.5,78.8C835,1990.7,833.4,1991.5,831.9,1991z"/>
			
				<rect x="852.2" y="1872.6" transform="matrix(0.9513 0.3083 -0.3083 0.9513 620.1929 -174.0637)" class="st59" width="17.4" height="6"/>
			
				<rect x="888" y="1762.2" transform="matrix(0.9513 0.3083 -0.3083 0.9513 587.9058 -190.4716)" class="st59" width="17.4" height="6"/>
			<path class="st58" d="M904.3,1764.5l-13.4-4.3l3-9.3c0.3-1,1.4-1.5,2.3-1.2l9.9,3.2c1,0.3,1.5,1.3,1.2,2.3L904.3,1764.5z"/>
			<path class="st58" d="M903.7,1784l-3.6-1.2l5.8-17.9l3.6,1.2c0.7,0.2,1.1,1,0.9,1.7l-5,15.3
				C905.2,1783.9,904.4,1784.3,903.7,1784z"/>
			<path class="st58" d="M884.9,1854.6l-2.4-0.8l26.1-80.7l1.8,0.6c0.3,0.1,0.5,0.5,0.4,0.8L884.9,1854.6z"/>
			<path class="st58" d="M882.5,1853.8c0,0-1-2.7,0.4-7.2c1.5-4.5,3-3.4,3.9-6c0.9-2.6,1.2,0.4,1.2,0.4l-5,13L882.5,1853.8z"/>
			<polygon class="st58" points="813.1,1994.8 815,2017.4 829.7,2000.2 			"/>
		</g>
		<g>
			
				<rect x="821.1" y="1920.3" transform="matrix(-0.9861 0.1659 -0.1659 -0.9861 1975.8013 3785.4827)" class="st57" width="17.4" height="110"/>
			
				<rect x="808.7" y="1888" transform="matrix(-0.9861 0.1659 -0.1659 -0.9861 1939.0201 3641.3157)" class="st57" width="17.4" height="27.2"/>
			
				<rect x="791" y="1791.6" transform="matrix(-0.9861 0.1659 -0.1659 -0.9861 1886.3389 3435.0195)" class="st57" width="17.4" height="9.4"/>
			<path class="st58" d="M792.6,1802.3l15.7-2.6c1.5-0.3,3,0.8,3.2,2.3l13.7,81.7c0.3,1.5-0.8,3-2.3,3.2l-15.7,2.6
				c-1.5,0.3-3-0.8-3.2-2.3l-13.7-81.7C790.1,1804,791.1,1802.5,792.6,1802.3z"/>
			
				<rect x="811.5" y="1915" transform="matrix(-0.9861 0.1659 -0.1659 -0.9861 1947.2133 3673.4246)" class="st59" width="17.4" height="6"/>
			
				<rect x="830.7" y="2029.5" transform="matrix(-0.9861 0.1659 -0.1659 -0.9861 2004.4109 3897.5269)" class="st59" width="17.4" height="6"/>
			<path class="st58" d="M833,2036.6l13.8-2.3l1.6,9.6c0.2,1-0.5,1.9-1.5,2.1l-10.2,1.7c-1,0.2-1.9-0.5-2.1-1.5L833,2036.6z"/>
			<path class="st58" d="M824.5,2019l3.7-0.6l3.1,18.5l-3.7,0.6c-0.7,0.1-1.4-0.4-1.5-1.1l-2.7-15.9
				C823.3,2019.8,823.8,2019.1,824.5,2019z"/>
			<path class="st58" d="M808.6,1947.8l2.5-0.4l14.1,83.6l-1.9,0.3c-0.4,0.1-0.7-0.2-0.8-0.5L808.6,1947.8z"/>
			<path class="st58" d="M811.1,1947.3c0,0,2.2,2,3,6.6c0.8,4.7-1.1,4.4-0.6,7.1c0.5,2.7-1.3,0.2-1.3,0.2l-1.5-13.9L811.1,1947.3z"
				/>
			<polygon class="st58" points="807.5,1790.2 795.4,1771 790.3,1793.1 			"/>
		</g>
		<g>
			<path class="st3" d="M724,1799l65.6,140.4c0,0,3.2-0.8-2.8-13.6c-6-12.8-33-76.4-43.2-96c-10.2-19.6-17.3-31.9-17.3-31.9
				L724,1799z"/>
			<path class="st3" d="M724,1799l65.6,140.4c0,0-2.6,1.9-8.6-10.9c-6-12.8-37.4-74.3-45.9-94.7c-8.5-20.4-13.3-33.7-13.3-33.7
				L724,1799z"/>
			<polygon class="st4" points="714.4,1774.3 712.8,1775 711.3,1775.7 723,1804.9 726.1,1803.4 729.2,1802 			"/>
			<path class="st5" d="M704.9,1751.9c-2.1-1.5-6-6.7-6-6.7s1.5,6.3,1.3,8.9c-0.2,2.6,0.8,9.7,4.1,14.4c3.3,4.7,6.8,7.3,6.8,7.3
				l1.8-0.8l1.8-0.8c0,0,0.3-4.3-1.2-9.8C711.9,1758.7,707,1753.4,704.9,1751.9z"/>
		</g>
		<g>
			<path class="st3" d="M892,1711.3l-58.1,209c0,0,4.1,2,9.4-17c5.3-19,34.5-111.3,41.5-141.4c7-30.2,10.6-49.7,10.6-49.7
				L892,1711.3z"/>
			<path class="st3" d="M892,1711.3l-58.1,209c0,0-4.5-0.4,0.8-19.4c5.3-19,27.9-113.1,37.5-142.5c9.6-29.4,16.6-48,16.6-48
				L892,1711.3z"/>
			<polygon class="st4" points="904.3,1676.2 901.9,1675.6 899.6,1675 885.6,1716.7 890.2,1717.9 894.8,1719.2 			"/>
			<path class="st5" d="M914.6,1643.9c-0.9-3.5-0.3-12.6-0.3-12.6s-4.2,8.1-6.8,10.6c-2.6,2.6-8,11-8.8,19.1
				c-0.8,8.1,0.6,13.9,0.6,13.9l2.6,0.7l2.6,0.7c0,0,4.2-4.3,7.7-11.6C915.8,1657.5,915.4,1647.4,914.6,1643.9z"/>
		</g>
		<g>
			<path class="st3" d="M775.5,1762.5l32.9,166.3c0,0,7.5-1,4.5-16.1c-3-15.1-12-90.5-18.9-113.7c-7-23.2-12.8-37.7-12.8-37.7
				L775.5,1762.5z"/>
			<path class="st3" d="M775.5,1762.5l32.9,166.3c0,0-7.3,2.3-10.3-12.8c-3-15.1-23.3-88-25.8-112.2c-2.4-24.2-2.5-40-2.5-40
				L775.5,1762.5z"/>
			<polygon class="st4" points="773.9,1733.2 769.9,1734.1 766,1734.9 768.7,1769.5 776.6,1767.8 784.5,1766 			"/>
			<path class="st5" d="M770.8,1706.7c-3.4-1.8-7.9-7.9-7.9-7.9s-1.8,7.5-4.2,10.6c-2.5,3.1-6,11.6-2.4,17.1
				c3.6,5.6,9.1,8.5,9.1,8.5l4.5-1l4.5-1c0,0,4-5.1,5.1-11.7C780.7,1714.7,774.2,1708.4,770.8,1706.7z"/>
		</g>
		<path class="st48" d="M819.4,1888.6c-41.3,0-74.7-4-74.7-8.9v179.2c0,4.9,33.5,8.9,74.7,8.9c41.3,0,74.7-4,74.7-8.9v-179.2
			C894.1,1884.6,860.7,1888.6,819.4,1888.6z"/>
		<path class="st59" d="M744.7,1917.6c0,0,15.5,10.8,75.3,10.8c59.8,0,74.1-10.8,74.1-10.8v19.5c0,0-25.9,11.1-74.1,11.1
			c-48.2,0-75.3-12.6-75.3-12.6V1917.6z"/>
		<path class="st59" d="M744.7,2026.8c0,0,15.5,10.8,75.3,10.8c59.8,0,74.1-10.8,74.1-10.8v19.5c0,0-25.9,11.1-74.1,11.1
			c-48.2,0-75.3-12.6-75.3-12.6V2026.8z"/>
		<path class="st60" d="M744.7,2001.8c0,0,15.5,10.8,75.3,10.8c59.8,0,74.1-10.8,74.1-10.8v19.5c0,0-25.9,11.1-74.1,11.1
			c-48.2,0-75.3-12.6-75.3-12.6V2001.8z"/>
		<polygon class="st61" points="746.7,1884.1 746.7,2059.4 768.9,2063.3 768.9,1888.6 		"/>
		<polygon class="st62" points="884.1,1888.6 884.1,2060.5 873.6,2063.3 873.6,1888.6 		"/>
		<path class="st63" d="M819.4,1888.6c41.3,0,74.7-4,74.7-8.9h-5.2c0,3.2-30.9,5.8-68.9,5.8c-38.1,0-68.9-2.6-68.9-5.8h-6.4
			C744.7,1884.6,778.1,1888.6,819.4,1888.6z"/>
	</g>
	<g>
		<path class="st64" d="M411.9,1988.3h-95.6c-6.6,0-12.6,3.9-15.3,9.9c-2.4,5.5-4.4,13.6-4.4,25.7c0,11.1,1.8,18.6,4.1,23.8
			c2.7,6.2,8.9,11.9,15.7,11.9h95.5V1988.3z"/>
		<path class="st64" d="M318.9,1988.3h-95.6c-6.6,0-12.6,3.9-15.3,9.9c-2.4,5.5-4.4,13.6-4.4,25.7c0,11.1,1.8,18.6,4.1,23.8
			c2.7,6.2,8.9,11.9,15.7,11.9h95.5V1988.3z"/>
		<path class="st65" d="M580.8,1997.6c0,0-7.4,10.3-7.4,26.3c0,16,7.4,26.3,7.4,26.3H405.7c0,0-13.6-10.8-13.1-26.3
			c0.5-15.5,12.2-29,12.5-29.1c0.3-0.1,5.9-1.5,5.9-1.5l165,1.6L580.8,1997.6z"/>
		<path class="st66" d="M411.9,1997.6c0,0,6.3,6.3,7.2,25.5c1,19.3-7.2,27-7.2,27s-19.3-9.9-17.6-29
			C396.1,2002.2,411.9,1997.6,411.9,1997.6z"/>
		<path class="st67" d="M408.3,1997.6c0,0,5.6,8.8,5.6,26.3c0,17.4-5.6,26.3-5.6,26.3s-18.9-15.6-15.4-30.5
			C396.4,2004.8,408.3,1997.6,408.3,1997.6z"/>
		<path class="st68" d="M581.4,2057.9c2.2,0,4-2.1,4-4.7c0-0.9-0.2-1.7-0.6-2.4c1.2,0.8,1.9,2.3,1.9,4c0,2.6-1.8,4.7-4,4.7H408.2
			c0,0-5.7-2.7-11-9.4c4.9,5.5,9.6,7.8,9.6,7.8H581.4z"/>
		<path class="st68" d="M393.5,2021.6c0-16.5,13.3-25.5,13.3-25.5h174.6c2.2,0,4-2.1,4-4.7c0-0.9-0.2-1.7-0.6-2.4
			c1.2,0.8,1.9,2.3,1.9,4c0,2.6-1.8,4.7-4,4.7H408.2c0,0-13.3,9-13.3,25.5c0,9.6,4.4,17.1,8.2,21.7
			C399.2,2040.5,393.5,2032.3,393.5,2021.6z"/>
		<path class="st69" d="M408.2,1988.3h174.6c0.7,0,1.4,0.2,2,0.7c0.3,0.7,0.6,1.5,0.6,2.4c0,2.6-1.8,4.7-4,4.7H406.8
			c0,0-13.3,9-13.3,25.5c0,10.8,5.6,19,9.6,23.4c2.7,3.4,5.1,5.3,5.1,5.3h174.6c0.7,0,1.4,0.2,2,0.7c0.3,0.7,0.6,1.5,0.6,2.4
			c0,2.6-1.8,4.7-4,4.7H406.8c0,0-4.7-2.3-9.6-7.8c-4.8-6-9.4-15.2-9.4-28.4C387.8,1993.7,408.2,1988.3,408.2,1988.3z"/>
		<polygon class="st70" points="580.8,1997.6 408.2,1997.6 411.4,2004.3 577.3,2004.3 		"/>
		<polygon class="st66" points="581.8,2050.2 579.6,2048.2 409.9,2048.2 407.1,2049.2 408.2,2050.2 		"/>
		<polygon class="st66" points="580.8,1997.6 408.2,1997.6 409.9,2000.5 579.1,2000.5 		"/>
		<polygon class="st66" points="575,2011.3 427.2,2010.4 574.6,2012.9 		"/>
		<polygon class="st66" points="573.5,2021.8 480.2,2020 573.4,2023.3 		"/>
		<polygon class="st66" points="576.3,2040.8 416.6,2042.3 576.7,2042.1 		"/>
		<polygon class="st66" points="574.4,2033.6 447.8,2034 574.7,2035.2 		"/>
		<path class="st71" d="M396.2,1988.3c0,0-21.1,8.5-21.1,35.6c0,27.1,21.1,35.6,21.1,35.6h-13.3c0,0-15.6-11.1-15.6-35.6
			c0-24.5,16.7-35.6,16.7-35.6H396.2z"/>
		<path class="st71" d="M241.3,1988.3c0,0-21.1,8.5-21.1,35.6c0,27.1,21.1,35.6,21.1,35.6h-13.3c0,0-15.6-11.1-15.6-35.6
			c0-24.5,16.7-35.6,16.7-35.6H241.3z"/>
		
			<rect x="229.8" y="1999.5" transform="matrix(-1 -1.224647e-16 1.224647e-16 -1 599.7197 4002.4136)" class="st71" width="140.1" height="3.4"/>
		
			<rect x="228.6" y="2044.2" transform="matrix(-1 -1.224647e-16 1.224647e-16 -1 598.5467 4091.8167)" class="st71" width="141.3" height="3.4"/>
		<g>
			<path class="st18" d="M236.9,2033.2v-18.6h7c1.2,0,2.2,0.1,2.8,0.2c0.9,0.2,1.7,0.4,2.3,0.9c0.6,0.4,1.1,1,1.5,1.8
				c0.4,0.8,0.6,1.6,0.6,2.5c0,1.6-0.5,2.9-1.5,4c-1,1.1-2.8,1.6-5.5,1.6h-4.8v7.6H236.9z M239.4,2023.5h4.8c1.6,0,2.7-0.3,3.4-0.9
				c0.7-0.6,1-1.4,1-2.5c0-0.8-0.2-1.4-0.6-2c-0.4-0.6-0.9-0.9-1.6-1.1c-0.4-0.1-1.2-0.2-2.3-0.2h-4.8V2023.5z"/>
			<path class="st18" d="M250.3,2033.2l7.2-18.6h2.7l7.6,18.6h-2.8l-2.2-5.6H255l-2,5.6H250.3z M255.7,2025.6h6.3l-1.9-5.2
				c-0.6-1.6-1-2.9-1.3-3.9c-0.2,1.2-0.6,2.4-1,3.6L255.7,2025.6z"/>
			<path class="st18" d="M270.1,2033.2v-18.6h2.5v18.6H270.1z"/>
			<path class="st18" d="M276.9,2033.2v-18.6h2.5l9.8,14.6v-14.6h2.4v18.6h-2.5l-9.8-14.6v14.6H276.9z"/>
			<path class="st18" d="M300.5,2033.2v-16.4h-6.1v-2.2h14.8v2.2h-6.2v16.4H300.5z"/>
			<path class="st18" d="M312.1,2033.2v-18.6h2.5v18.6H312.1z"/>
			<path class="st18" d="M318.8,2033.2v-18.6h2.5l9.8,14.6v-14.6h2.4v18.6H331l-9.8-14.6v14.6H318.8z"/>
			<path class="st18" d="M346.4,2025.9v-2.2l7.9,0v6.9c-1.2,1-2.5,1.7-3.7,2.2c-1.3,0.5-2.6,0.7-4,0.7c-1.8,0-3.5-0.4-5-1.2
				c-1.5-0.8-2.6-1.9-3.4-3.4c-0.8-1.5-1.1-3.1-1.1-5c0-1.8,0.4-3.5,1.1-5.1c0.8-1.6,1.8-2.7,3.3-3.5c1.4-0.8,3.1-1.1,4.9-1.1
				c1.3,0,2.6,0.2,3.7,0.7c1.1,0.4,1.9,1,2.6,1.8c0.6,0.8,1.1,1.8,1.4,3l-2.2,0.6c-0.3-0.9-0.6-1.7-1-2.2c-0.4-0.5-1-1-1.8-1.3
				c-0.8-0.3-1.6-0.5-2.6-0.5c-1.1,0-2.1,0.2-2.9,0.5c-0.8,0.3-1.5,0.8-2,1.4c-0.5,0.6-0.9,1.2-1.2,1.8c-0.5,1.2-0.7,2.4-0.7,3.7
				c0,1.7,0.3,3,0.9,4.2c0.6,1.1,1.4,1.9,2.5,2.5c1.1,0.5,2.3,0.8,3.5,0.8c1.1,0,2.1-0.2,3.1-0.6c1-0.4,1.8-0.8,2.3-1.3v-3.5H346.4z
				"/>
		</g>
	</g>
</g>
</svg>
